<?xml version="1.0" standalone="no"?>
<!DOCTYPE svg PUBLIC "-//W3C//DTD SVG 1.1//EN" "http://www.w3.org/Graphics/SVG/1.1/DTD/svg11.dtd" >
<svg>
<metadata>
Created by FontForge 20090622 at Mon Jul 17 03:48:38 2017
 By deploy user
Copyright (c) 2015, Ek Type. All rights reserved.
</metadata>
<defs>
<font id="BalooBhaina-Regular" horiz-adv-x="0" >
  <font-face 
    font-family="Baloo Bhaina"
    font-weight="400"
    font-stretch="normal"
    units-per-em="1000"
    panose-1="3 8 9 2 4 3 2 2 2 0"
    ascent="800"
    descent="-200"
    x-height="485"
    cap-height="615"
    bbox="-782 -827 1201 1185"
    underline-thickness="50"
    underline-position="-50"
    unicode-range="U+000D-U+FB02"
  />
<missing-glyph horiz-adv-x="223" 
d="M455 519h-226v-385h226v385zM80 572q0 36 21 57.5t58 21.5h366q37 0 58 -21.5t21 -57.5v-491q0 -36 -21 -57.5t-58 -21.5h-366q-37 0 -58 21.5t-21 57.5v491z" />
    <glyph glyph-name="fi" unicode="fi" horiz-adv-x="709" 
d="M54 486q0 51 17.5 87.5t47.5 60t70.5 34.5t86.5 11q74 0 109 -19.5t35 -66.5q0 -20 -8.5 -36t-18.5 -24q-19 5 -39.5 8.5t-47.5 3.5q-43 0 -67 -14.5t-24 -50.5v-32h164q6 -11 11.5 -27.5t5.5 -36.5q0 -35 -15.5 -50.5t-41.5 -15.5h-115v-317q-10 -3 -31.5 -6t-44.5 -3
q-22 0 -39.5 3t-29.5 12t-18.5 24.5t-6.5 40.5v414zM475 621q0 38 25.5 64t67.5 26t67.5 -26t25.5 -64t-25.5 -64t-67.5 -26t-67.5 26t-25.5 64zM653 1q-11 -2 -32.5 -5.5t-43.5 -3.5t-39.5 3t-29.5 12t-18.5 24.5t-6.5 40.5v407q11 2 32.5 5.5t43.5 3.5t39.5 -3t29.5 -12
t18.5 -24.5t6.5 -40.5v-407z" />
    <glyph glyph-name="fl" unicode="fl" horiz-adv-x="710" 
d="M54 486q0 51 17.5 87.5t47.5 60t70.5 34.5t86.5 11q74 0 109 -19.5t35 -66.5q0 -20 -8.5 -36t-18.5 -24q-19 5 -39.5 8.5t-47.5 3.5q-43 0 -67 -14.5t-24 -50.5v-32h164q6 -11 11.5 -27.5t5.5 -36.5q0 -35 -15.5 -50.5t-41.5 -15.5h-115v-317q-10 -3 -31.5 -6t-44.5 -3
q-22 0 -39.5 3t-29.5 12t-18.5 24.5t-6.5 40.5v414zM655 1q-11 -2 -32.5 -5.5t-43.5 -3.5t-39.5 3t-29.5 12t-18.5 24.5t-6.5 40.5v580q11 2 32.5 5.5t43.5 3.5t39.5 -3t29.5 -12t18.5 -24.5t6.5 -40.5v-580z" />
    <glyph glyph-name=".notdef" horiz-adv-x="223" 
d="M455 519h-226v-385h226v385zM80 572q0 36 21 57.5t58 21.5h366q37 0 58 -21.5t21 -57.5v-491q0 -36 -21 -57.5t-58 -21.5h-366q-37 0 -58 21.5t-21 57.5v491z" />
    <glyph glyph-name="NULL" 
 />
    <glyph glyph-name="NULL" 
 />
    <glyph glyph-name="CR" unicode="&#xd;" horiz-adv-x="223" 
 />
    <glyph glyph-name="space" unicode=" " horiz-adv-x="200" 
 />
    <glyph glyph-name="exclam" unicode="!" horiz-adv-x="298" 
d="M237 580q0 -23 -1 -66.5t-4 -94t-8 -101t-12 -87.5q-4 -3 -12 -6t-17 -5t-18 -3t-16 -1q-29 0 -48.5 9t-24.5 35q-5 23 -8.5 70t-6.5 102t-4.5 109t-1.5 92q20 11 45.5 17.5t50.5 6.5q41 0 63.5 -19t22.5 -58zM53 76q0 41 25.5 67.5t70.5 26.5t70.5 -26.5t25.5 -67.5
t-25.5 -67.5t-70.5 -26.5t-70.5 26.5t-25.5 67.5z" />
    <glyph glyph-name="quotedbl" unicode="&#x22;" horiz-adv-x="410" 
d="M158 404q-11 -6 -26 -8t-32 -2q-25 0 -42.5 9.5t-19.5 34.5l-13 199q30 24 80 24q35 0 55.5 -13t20.5 -47q0 -14 -2 -39t-5.5 -53.5t-7.5 -56.5t-8 -48zM359 404q-11 -6 -26 -8t-32 -2q-25 0 -42.5 9.5t-19.5 34.5l-13 199q30 24 80 24q35 0 55.5 -13t20.5 -47
q0 -14 -2 -39t-5.5 -53.5t-7.5 -56.5t-8 -48z" />
    <glyph glyph-name="numbersign" unicode="#" horiz-adv-x="714" 
d="M484 1q-14 -2 -25.5 -2.5t-22.5 -0.5q-42 0 -62 16t-20 52q0 23 6 52l2 11h-90l-28 -128q-14 -2 -25.5 -2.5t-22.5 -0.5q-42 0 -62 16t-20 52q0 23 6 52l2 11h-75q-5 11 -11 27.5t-6 33.5q0 35 16.5 50.5t40.5 15.5h63l22 101h-98q-5 11 -11 27.5t-6 33.5q0 35 16.5 50.5
t40.5 15.5h86l29 129q14 2 26 2h23q42 0 62.5 -15.5t20.5 -51.5q0 -11 -2 -25t-5 -28l-3 -11h89l29 129q14 2 26 2h23q42 0 62.5 -15.5t20.5 -51.5q0 -11 -2 -25t-5 -28l-3 -11h75q7 -10 12.5 -27t5.5 -35q0 -35 -16.5 -50t-39.5 -15h-65l-22 -101h98q7 -10 12.5 -27
t5.5 -35q0 -35 -16.5 -50t-39.5 -15h-89zM301 256h89l22 101h-89z" />
    <glyph glyph-name="dollar" unicode="$" horiz-adv-x="565" 
d="M241 241q-44 15 -80 30.5t-62 37.5t-40.5 52.5t-14.5 74.5q0 68 42 114.5t120 63.5v81q9 2 28 5t39 3q39 0 61 -13.5t22 -57.5v-13q62 -8 99.5 -32t37.5 -66q0 -26 -12 -44.5t-29 -31.5q-22 14 -59 24.5t-81 10.5q-45 0 -66 -12.5t-21 -31.5q0 -15 13 -24.5t39 -17.5
l53 -17q94 -30 144.5 -76.5t50.5 -126.5q0 -68 -43 -115.5t-126 -64.5v-80q-9 -2 -28 -5t-39 -3q-39 0 -61 13.5t-22 57.5v10q-36 4 -65.5 13t-51 23t-33.5 33t-12 43q0 29 17 49.5t37 31.5q28 -22 68.5 -38t88.5 -16q49 0 69 15t20 35t-16 30.5t-45 20.5z" />
    <glyph glyph-name="percent" unicode="%" horiz-adv-x="799" 
d="M538 617q34 -5 60.5 -18.5t28.5 -36.5q0 -16 -8 -33t-21 -35l-346 -501q-32 5 -53.5 18.5t-23.5 36.5q0 16 2.5 31.5t15.5 35.5zM351 458q0 -75 -45 -117t-116 -42q-72 0 -116.5 42t-44.5 117q0 74 44.5 116t116.5 42q71 0 116 -42t45 -116zM150 458q0 -30 11.5 -44.5
t28.5 -14.5t28.5 14.5t11.5 44.5q0 29 -11.5 43t-28.5 14t-28.5 -14t-11.5 -43zM770 151q0 -75 -45 -117t-116 -42q-72 0 -116.5 42t-44.5 117q0 74 44.5 116t116.5 42q71 0 116 -42t45 -116zM569 151q0 -30 11.5 -44.5t28.5 -14.5t28.5 14.5t11.5 44.5q0 29 -11.5 43
t-28.5 14t-28.5 -14t-11.5 -43z" />
    <glyph glyph-name="ampersand" unicode="&#x26;" horiz-adv-x="673" 
d="M467 378q19 8 35.5 11.5t33.5 3.5q24 0 39 -7t23.5 -19.5t11.5 -29.5t3 -37q0 -81 -41 -154l77 -74q-2 -38 -26 -62t-57 -24q-40 0 -78 38l-19 18q-37 -27 -84.5 -42.5t-105.5 -15.5q-59 0 -104 15.5t-76 42.5t-47 63.5t-16 79.5q0 37 11 66t29 51t40 37.5t45 25.5
q-20 24 -28.5 51t-8.5 51q0 31 13 58t37 47t58.5 31t78.5 11q63 0 89 -22.5t26 -57.5q0 -17 -6.5 -33t-19.5 -29q-11 5 -25.5 8t-30.5 3q-26 0 -43 -8t-17 -29q0 -15 13 -30.5t32 -34.5l128 -124q5 22 7.5 52t2.5 69zM196 196q0 -35 23.5 -58.5t69.5 -23.5q20 0 42 5.5
t42 18.5l-128 129q-24 -11 -36.5 -30t-12.5 -41z" />
    <glyph glyph-name="quotesingle" unicode="'" horiz-adv-x="219" 
d="M168 408q-11 -6 -27 -10t-36 -4q-27 0 -46 11.5t-21 36.5l-13 191q14 11 36 19.5t49 8.5q38 0 59.5 -15t21.5 -49q0 -14 -2 -38t-5.5 -51t-7.5 -53.5t-8 -46.5z" />
    <glyph glyph-name="parenleft" unicode="(" horiz-adv-x="305" 
d="M42 266q0 105 18.5 184t47.5 133q19 35 46.5 60t68.5 25q27 0 48 -15t32 -32q-24 -36 -42.5 -74.5t-31 -81.5t-19 -92t-6.5 -107t6.5 -107t19 -92t31 -81.5t42.5 -74.5q-11 -17 -32 -32t-48 -15q-41 0 -68.5 25t-46.5 60q-29 54 -47.5 133t-18.5 184z" />
    <glyph glyph-name="parenright" unicode=")" horiz-adv-x="305" 
d="M263 266q0 -105 -18.5 -184t-47.5 -133q-19 -35 -46.5 -60t-68.5 -25q-27 0 -48 15t-32 32q24 36 42.5 74.5t31 81.5t19 92t6.5 107t-6.5 107t-19 92t-31 81.5t-42.5 74.5q11 17 32 32t48 15q41 0 68.5 -25t46.5 -60q29 -54 47.5 -133t18.5 -184z" />
    <glyph glyph-name="asterisk" unicode="*" horiz-adv-x="351" 
d="M307 397q-7 -22 -23 -36t-39 -14q-24 0 -36 13.5t-23 32.5l-8 14l-38 -57q-12 -3 -23 -3q-33 0 -50 13t-17 36q0 12 5.5 23t16.5 25l15 19l-61 17q-6 18 -6 37q0 25 14.5 39t40.5 14q7 0 15.5 -2t17.5 -5l15 -5v72q8 5 22 12t32 7q23 0 37 -12t14 -36q0 -8 -0.5 -20
t-1.5 -25l59 25q17 -8 29 -23t12 -36q0 -24 -12.5 -33t-34.5 -18l-18 -8z" />
    <glyph glyph-name="plus" unicode="+" horiz-adv-x="545" 
d="M351 50q-8 -4 -29.5 -6.5t-41.5 -2.5q-41 0 -62 13.5t-21 57.5v110h-151q-7 11 -11.5 29t-4.5 36q0 36 16 52.5t43 16.5h108v168q10 3 30.5 6.5t40.5 3.5q40 0 61.5 -14t21.5 -59v-105h148q5 -12 10.5 -29.5t5.5 -36.5q0 -35 -16 -51.5t-42 -16.5h-106v-172z" />
    <glyph glyph-name="comma" unicode="," horiz-adv-x="243" 
d="M149 -73q-17 -22 -36.5 -32t-47.5 -10q-44 0 -75 25q22 62 37 127.5t25 118.5q17 9 41 15.5t48 6.5q31 0 54.5 -14t23.5 -50q0 -21 -6 -46.5t-16 -51t-22.5 -49.5t-25.5 -40z" />
    <glyph glyph-name="hyphen" unicode="-" horiz-adv-x="354" 
d="M49 186q-7 11 -13 29t-6 38q0 37 17 53.5t44 16.5h214q6 -11 12.5 -29t6.5 -38q0 -37 -17 -53.5t-44 -16.5h-214z" />
    <glyph glyph-name="period" unicode="." horiz-adv-x="238" 
d="M22 81q0 42 26 70t71 28t71 -28t26 -70t-26 -70t-71 -28t-71 28t-26 70z" />
    <glyph glyph-name="slash" unicode="/" horiz-adv-x="343" 
d="M141 -106q-14 -2 -27 -2.5t-24 -0.5q-42 0 -64.5 18t-22.5 58q0 27 8 54.5l14 48.5l176 635q15 2 28 2.5t24 0.5q40 0 63.5 -17t23.5 -55q0 -29 -8 -55t-15 -52z" />
    <glyph glyph-name="zero" unicode="0" horiz-adv-x="606" 
d="M400 304q0 88 -25.5 136t-72.5 48t-71.5 -48t-24.5 -136t24.5 -136.5t71.5 -48.5t72.5 48.5t25.5 136.5zM571 304q0 -77 -20 -137t-55.5 -100.5t-85 -61.5t-107.5 -21q-59 0 -108.5 21t-85 61.5t-55 100.5t-19.5 137t19.5 136.5t55 100t85 61.5t108.5 21q58 0 107.5 -21
t85 -61.5t55.5 -100t20 -136.5z" />
    <glyph glyph-name="one" unicode="1" horiz-adv-x="393" 
d="M155 446l-100 -31q-15 10 -30 28t-15 50q0 60 73 84l112 38h37q43 0 68 -25t25 -68v-521q-11 -2 -32.5 -5.5t-43.5 -3.5t-39.5 3t-29.5 12t-18.5 24.5t-6.5 40.5v374z" />
    <glyph glyph-name="two" unicode="2" horiz-adv-x="522" 
d="M241 623q57 0 101 -14.5t75 -39.5t47 -59t16 -73q0 -105 -119 -200l-131 -105h240q6 -11 11.5 -28t5.5 -37q0 -36 -16 -51.5t-42 -15.5h-347q-22 15 -34.5 38.5t-12.5 55.5q0 34 14 57.5t31 37.5l138 118q26 22 43 39.5t27.5 31.5t15 26t4.5 23q0 28 -24.5 44t-60.5 16
q-40 0 -71.5 -12.5t-52.5 -26.5q-17 12 -28 30t-11 42q0 52 49 77.5t132 25.5z" />
    <glyph glyph-name="three" unicode="3" horiz-adv-x="518" 
d="M233 623q115 0 175 -47.5t60 -127.5q0 -48 -25.5 -81.5t-60.5 -50.5q21 -8 39 -20t32 -30t22 -42t8 -56q0 -43 -18.5 -77t-51.5 -58t-78.5 -36.5t-99.5 -12.5q-104 0 -157 29t-53 74q0 27 13 46.5t32 30.5q20 -14 53.5 -29.5t87.5 -15.5q51 0 75.5 18t24.5 47t-19.5 44
t-67.5 15h-94q-7 11 -12 27t-5 38q0 23 4.5 39.5t12.5 27.5h94q72 0 72 55q0 26 -23 42t-69 16q-41 0 -72 -9.5t-51 -23.5q-17 12 -28 29.5t-11 41.5q0 50 52 73.5t139 23.5z" />
    <glyph glyph-name="four" unicode="4" horiz-adv-x="606" 
d="M286 601q19 6 43.5 10t44.5 4q23 0 44.5 -4.5t38.5 -15t27 -28.5t10 -45v-266h89q6 -11 12 -29t6 -38q0 -38 -17 -54t-43 -16h-47v-118q-11 -2 -33 -5.5t-42 -3.5q-22 0 -39 2t-28.5 9.5t-17.5 21.5t-6 38v56h-251q-23 12 -39.5 35.5t-16.5 57.5q0 19 5 42t17 40z
M337 444h-3l-133 -188h136v188z" />
    <glyph glyph-name="five" unicode="5" horiz-adv-x="522" 
d="M250 -16q-46 0 -83.5 7t-64.5 21t-42 34.5t-15 47.5q0 28 16 47t36 30q28 -21 60 -36.5t81 -15.5q47 0 67 21t20 51q0 29 -17.5 48t-60.5 19q-27 0 -45 -6t-41 -17q-49 2 -77.5 26.5t-28.5 75.5v7.5t1 18.5l12 152q3 43 27 68t67 25h288q6 -11 12 -29t6 -38
q0 -38 -17 -54t-43 -16h-192l-7 -94q19 5 38.5 9t49.5 4q52 0 90 -15.5t62.5 -42.5t36 -63t11.5 -77t-14 -79t-44 -66.5t-76.5 -45.5t-112.5 -17z" />
    <glyph glyph-name="six" unicode="6" horiz-adv-x="558" 
d="M483 534q0 -21 -9.5 -40.5t-22.5 -29.5q-27 12 -56.5 18.5t-54.5 6.5q-60 0 -92.5 -31.5t-43.5 -90.5q20 14 53 25.5t68 11.5q92 0 146.5 -53t54.5 -152q0 -43 -15 -82t-45 -68.5t-74.5 -47t-103.5 -17.5q-118 0 -185.5 79t-67.5 225q0 83 20.5 146t58 105t89.5 63
t115 21q80 0 122.5 -22t42.5 -67zM287 274q-19 0 -40.5 -8t-34.5 -22v-25q0 -54 22.5 -77t54.5 -23q33 0 49.5 22t16.5 57t-17.5 55.5t-50.5 20.5z" />
    <glyph glyph-name="seven" unicode="7" horiz-adv-x="482" 
d="M428 608q17 -11 30.5 -30.5t13.5 -48.5q0 -16 -3 -32.5t-10 -32.5l-208 -471q-14 -1 -26.5 -1h-23.5q-45 0 -73 17t-28 59q0 21 10 45.5t27 58.5l146 299h-245q-6 11 -12 29t-6 38q0 38 17 54t43 16h348z" />
    <glyph glyph-name="eight" unicode="8" horiz-adv-x="560" 
d="M50 444q0 40 17 73t47 57t72 37t92 13t92 -12t72 -34t47 -54t17 -72q0 -44 -18 -77t-50 -55q38 -26 62 -61.5t24 -95.5q0 -40 -17 -73t-49 -57t-77 -37t-101 -13t-101 13t-76.5 37t-49 57t-17.5 73q0 54 23.5 90t55.5 56q-27 22 -46 52.5t-19 82.5zM207 178
q0 -31 20.5 -49t52.5 -18t52.5 18.5t20.5 48.5q0 29 -17.5 48.5t-47.5 30.5q-44 -10 -62.5 -30.5t-18.5 -48.5zM339 438q0 27 -16 43t-45 16t-45 -16t-16 -42t16.5 -42t38.5 -26q35 8 51 26t16 41z" />
    <glyph glyph-name="nine" unicode="9" horiz-adv-x="558" 
d="M212 118q64 0 102.5 33t38.5 91q-11 -9 -40.5 -21t-75.5 -12t-83.5 13t-64.5 38.5t-42 62.5t-15 86q0 43 15 81.5t45 68t74.5 47t103.5 17.5q118 0 185.5 -79t67.5 -225q0 -83 -21 -146t-58.5 -105t-89.5 -63t-115 -21q-80 0 -125 22t-45 67q0 21 9.5 40.5t22.5 29.5
q27 -12 56.5 -18.5t54.5 -6.5zM276 337q19 0 38.5 8t32.5 22v12q-1 57 -20 83t-56 26q-33 0 -51.5 -20.5t-18.5 -55.5q0 -34 21 -54.5t54 -20.5z" />
    <glyph glyph-name="colon" unicode=":" horiz-adv-x="258" 
d="M32 395q0 42 26 70t71 28t71 -28t26 -70t-26 -70t-71 -28t-71 28t-26 70zM32 81q0 42 26 70t71 28t71 -28t26 -70t-26 -70t-71 -28t-71 28t-26 70z" />
    <glyph glyph-name="semicolon" unicode=";" horiz-adv-x="266" 
d="M162 -73q-17 -22 -36.5 -32t-47.5 -10q-44 0 -75 25q22 62 37 127.5t25 118.5q17 9 41 15.5t48 6.5q31 0 54.5 -14t23.5 -50q0 -21 -6 -46.5t-16 -51t-22.5 -49.5t-25.5 -40zM38 395q0 42 26 70t71 28t71 -28t26 -70t-26 -70t-71 -28t-71 28t-26 70z" />
    <glyph glyph-name="less" unicode="&#x3c;" horiz-adv-x="471" 
d="M437 122q2 -6 2.5 -14t0.5 -15q0 -18 -4 -34t-13 -28t-23.5 -19.5t-36.5 -7.5q-21 0 -41.5 9t-50.5 26l-215 124q-26 34 -26 90q0 42 12 65t35 36l275 160q49 -13 66.5 -35.5t17.5 -48.5q0 -35 -17.5 -54.5t-51.5 -36.5l-176 -89z" />
    <glyph glyph-name="equal" unicode="=" horiz-adv-x="489" 
d="M48 328q-7 11 -11.5 29t-4.5 36q0 36 16 52.5t43 16.5h350q5 -12 10.5 -29.5t5.5 -36.5q0 -35 -16 -51.5t-42 -16.5h-351zM48 129q-7 11 -11.5 29t-4.5 36q0 36 16 52.5t43 16.5h350q5 -12 10.5 -29.5t5.5 -36.5q0 -35 -16 -51.5t-42 -16.5h-351z" />
    <glyph glyph-name="greater" unicode="&#x3e;" horiz-adv-x="471" 
d="M34 396q-2 6 -2.5 14t-0.5 15q0 18 4 34t13 28t23.5 19.5t36.5 7.5q21 0 41.5 -9t50.5 -26l215 -124q26 -34 26 -90q0 -42 -12 -65t-35 -36l-275 -160q-49 13 -66.5 35.5t-17.5 48.5q0 35 17.5 54.5t51.5 36.5l176 89z" />
    <glyph glyph-name="question" unicode="?" horiz-adv-x="498" 
d="M103 77q0 41 25.5 67.5t70.5 26.5t70.5 -26.5t25.5 -67.5t-25.5 -67.5t-70.5 -26.5t-70.5 26.5t-25.5 67.5zM136 208q-17 9 -32 32.5t-15 55.5q0 31 16.5 46.5t48.5 23.5l78 19q50 13 50 48q0 19 -18.5 33t-63.5 14q-41 0 -77 -10.5t-58 -24.5q-17 13 -29 31.5t-12 44.5
t15 45.5t41.5 32t63 18.5t80.5 6q118 0 178.5 -52.5t60.5 -137.5q0 -160 -226 -205z" />
    <glyph glyph-name="at" unicode="@" horiz-adv-x="1069" 
d="M514 0q-43 0 -80 12.5t-64 37.5t-42.5 62t-15.5 85q0 60 20 105.5t54.5 76.5t80 47t97.5 16q48 0 91 -12t75 -35q39 -27 39 -67v-9t-1 -11l-21 -180q4 -2 12 -3t13 -1q45 0 71 42.5t26 110.5q0 57 -23 104.5t-63.5 81.5t-97 53t-123.5 19q-78 0 -143 -25t-111.5 -69.5
t-72 -105t-25.5 -131.5q0 -69 22.5 -124t62.5 -94t94.5 -59.5t119.5 -20.5q45 0 73.5 4l50.5 7q7 -11 12.5 -27t5.5 -30q0 -21 -7 -37t-24.5 -27t-47.5 -17t-75 -6q-77 0 -156.5 24t-144.5 75.5t-106 133.5t-41 198q0 106 39.5 191.5t108.5 144.5t162.5 91t201.5 32
q103 0 189 -27.5t148 -77.5t96.5 -122t34.5 -160q0 -134 -67 -207.5t-190 -73.5q-30 0 -66.5 8.5t-65.5 26.5q-21 -12 -52.5 -21t-73.5 -9zM609 299q-6 4 -17 7t-29 3q-16 0 -31 -6.5t-26.5 -20t-18.5 -34.5t-7 -50q0 -33 16 -51.5t48 -18.5q18 0 29 4.5t21 10.5z" />
    <glyph glyph-name="A" unicode="A" horiz-adv-x="627" 
d="M194 588q17 10 51.5 19t69.5 9q50 0 88.5 -14.5t49.5 -45.5q18 -52 39 -121l42 -142.5l41 -145l35 -126.5q-12 -14 -36 -22.5t-57 -8.5q-24 0 -40.5 4t-27 12t-17 21t-11.5 30l-18 69h-181l-16 -62l-16 -62q-14 -5 -29.5 -8.5t-37.5 -3.5q-51 0 -75.5 17.5t-24.5 48.5
q0 14 4 28l9 33q7 27 19.5 67l27.5 86.5l32 95.5l32 92.5l27.5 77.5zM314 459l-31.5 -93.5t-31.5 -104.5h124l-28.5 105.5l-26.5 92.5h-6z" />
    <glyph glyph-name="B" unicode="B" horiz-adv-x="619" 
d="M235 125q14 -4 36 -5.5t42 -1.5q40 0 66.5 16.5t26.5 51.5q0 33 -22 47t-67 14h-82v-122zM235 369h73q43 0 62.5 16t19.5 47q0 27 -22.5 43t-67.5 16q-15 0 -34.5 -1t-30.5 -3v-118zM300 -16q-17 0 -40 1t-47.5 4t-48.5 7.5t-44 12.5q-55 21 -55 73v467q0 21 11.5 32.5
t31.5 18.5q34 12 85 17.5t105 5.5q128 0 197 -43t69 -133q0 -45 -26 -77.5t-70 -47.5q50 -14 83.5 -51t33.5 -93q0 -99 -73.5 -146.5t-211.5 -47.5z" />
    <glyph glyph-name="C" unicode="C" horiz-adv-x="571" 
d="M374 484q-77 0 -118 -47t-41 -133q0 -87 45.5 -134t122.5 -47q41 0 69.5 11t54.5 25q17 -14 26.5 -33.5t9.5 -45.5q0 -41 -45.5 -69.5t-138.5 -28.5q-67 0 -126 19t-103 58.5t-69.5 100t-25.5 144.5q0 78 24.5 137.5t67 100.5t99.5 62t122 21q92 0 142.5 -30t50.5 -77
q0 -26 -13 -45t-30 -30q-26 17 -55.5 29t-68.5 12z" />
    <glyph glyph-name="D" unicode="D" horiz-adv-x="666" 
d="M239 130q11 -2 27 -3.5t30 -1.5q34 0 62.5 10t49 31t32 54.5t11.5 80.5q0 90 -42 135.5t-112 45.5q-14 0 -28.5 -1t-29.5 -3v-348zM295 -16q-17 0 -39 1t-45.5 4t-47 7.5t-43.5 12.5q-55 21 -55 73v467q0 21 11.5 32.5t31.5 18.5q43 14 91 18.5t86 4.5q78 0 141.5 -19
t109 -58.5t70.5 -99.5t25 -142q0 -80 -24 -139.5t-68.5 -100t-106.5 -60.5t-137 -20z" />
    <glyph glyph-name="E" unicode="E" horiz-adv-x="548" 
d="M65 513q0 43 25 68t68 25h330q7 -11 12.5 -29t5.5 -38q0 -38 -16.5 -54t-43.5 -16h-211v-93h225q7 -11 12.5 -28.5t5.5 -37.5q0 -38 -16 -54t-43 -16h-184v-105h257q7 -11 12.5 -29t5.5 -38q0 -38 -16.5 -54.5t-43.5 -16.5h-292q-43 0 -68 25t-25 68v423z" />
    <glyph glyph-name="F" unicode="F" horiz-adv-x="531" 
d="M491 606q7 -11 12.5 -29.5t5.5 -38.5q0 -39 -16.5 -55.5t-44.5 -16.5h-210v-113h219q8 -11 13.5 -29t5.5 -38q0 -38 -16.5 -54.5t-44.5 -16.5h-175v-211q-11 -3 -34.5 -6t-46.5 -3t-40.5 3.5t-29.5 12.5t-18 25t-6 42v435q0 43 25 68t68 25h333z" />
    <glyph glyph-name="G" unicode="G" horiz-adv-x="664" 
d="M614 99q0 -31 -11 -46t-35 -29q-14 -8 -35 -15.5t-46 -13t-52.5 -8.5t-54.5 -3q-72 0 -135 19.5t-109.5 59t-73.5 98.5t-27 137q0 82 29.5 143t78 101.5t111 60.5t128.5 20q95 0 150.5 -30.5t55.5 -79.5q0 -26 -13 -45t-30 -30q-25 15 -62.5 29.5t-84.5 14.5
q-84 0 -133.5 -48t-49.5 -133q0 -46 13.5 -79.5t36.5 -55t53 -32t64 -10.5q22 0 39 4t26 9v94h-107q-6 11 -11.5 29t-5.5 38q0 36 16.5 52t42.5 16h169q30 0 46.5 -16.5t16.5 -46.5v-204z" />
    <glyph glyph-name="H" unicode="H" horiz-adv-x="672" 
d="M607 4q-11 -3 -34.5 -6t-46.5 -3t-40.5 3.5t-29.5 12.5t-18 25t-6 42v156h-192v-230q-11 -3 -34.5 -6t-46.5 -3t-40.5 3.5t-29.5 12.5t-18 25t-6 42v528q11 2 35 5.5t46 3.5q23 0 40.5 -3.5t29.5 -12.5t18 -25t6 -42v-160h192v234q11 2 35 5.5t46 3.5q23 0 40.5 -3.5
t29.5 -12.5t18 -25t6 -42v-528z" />
    <glyph glyph-name="I" unicode="I" horiz-adv-x="305" 
d="M240 4q-11 -3 -34.5 -6t-46.5 -3t-40.5 3.5t-29.5 12.5t-18 25t-6 42v528q11 2 35 5.5t46 3.5q23 0 40.5 -3.5t29.5 -12.5t18 -25t6 -42v-528z" />
    <glyph glyph-name="J" unicode="J" horiz-adv-x="412" 
d="M175 606q11 2 35 5.5t46 3.5q23 0 40.5 -3.5t29.5 -12.5t18 -25t6 -42v-370q0 -89 -51 -133.5t-150 -44.5q-52 0 -84 16q-23 11 -33.5 30t-10.5 43q0 20 5.5 35t13.5 24q19 -4 32.5 -5.5t29.5 -1.5q39 0 56 19.5t17 57.5v404z" />
    <glyph glyph-name="K" unicode="K" horiz-adv-x="615" 
d="M241 225v-221q-11 -3 -35 -6t-47 -3t-40.5 3.5t-29.5 12.5t-18 25t-6 42v528q11 2 35 5.5t46 3.5q23 0 40.5 -3.5t29.5 -12.5t18 -25t6 -42v-159l208 239q68 0 97.5 -25.5t29.5 -60.5q0 -26 -13 -49t-42 -52l-125 -125l52 -57l53 -57.5l50.5 -54.5l44.5 -47q0 -22 -8 -39
t-21.5 -29t-30.5 -18t-36 -6q-41 0 -67 20.5t-50 48.5z" />
    <glyph glyph-name="L" unicode="L" horiz-adv-x="513" 
d="M158 -3q-43 0 -68 25t-25 68v517q11 2 35 5.5t46 3.5q23 0 40.5 -3.5t29.5 -12.5t18 -25t6 -42v-395h229q7 -11 13 -29.5t6 -38.5q0 -40 -17 -56.5t-45 -16.5h-268z" />
    <glyph glyph-name="M" unicode="M" horiz-adv-x="797" 
d="M484 149q-13 -11 -33.5 -17.5t-47.5 -6.5q-36 0 -59.5 9t-30.5 31l-46 142.5t-28 95.5h-5q-3 -59 -4.5 -107.5t-2 -94.5t-2 -93t-4.5 -104q-13 -5 -34 -8.5t-42 -3.5q-44 0 -68.5 14t-24.5 51l29 510q8 13 35 28t76 15q53 0 83 -16.5t44 -53.5q9 -24 19.5 -55l21 -64
l20.5 -65.5l18 -58.5h5l48 162.5t44 131.5q15 8 38.5 13.5t52.5 5.5q49 0 80 -14.5t36 -41.5q4 -20 8.5 -61.5t9.5 -93.5t10 -110l9.5 -111.5t7.5 -98t4 -68.5q-17 -10 -35.5 -14.5t-47.5 -4.5q-38 0 -64 13t-28 51q-6 109 -7.5 196t-4.5 146h-5q-10 -39 -29 -98t-46 -151z
" />
    <glyph glyph-name="N" unicode="N" horiz-adv-x="679" 
d="M614 21q-14 -14 -40.5 -21.5t-63.5 -7.5t-70 11t-54 53l-99 202q-15 31 -27 58.5t-26 63.5l-6 -1q4 -54 4.5 -110t0.5 -110v-155q-11 -3 -33.5 -6t-44.5 -3t-39 3t-28 12t-17 24.5t-6 40.5v500q14 20 43 30t62 10q37 0 70.5 -11.5t53.5 -52.5l100 -202q15 -31 27 -58.5
t26 -63.5l5 1q-4 54 -5 108t-1 108v162q11 3 33.5 6t44.5 3q44 0 67 -15.5t23 -64.5v-514z" />
    <glyph glyph-name="O" unicode="O" horiz-adv-x="703" 
d="M35 304q0 78 24.5 138t67 100.5t100 61.5t124.5 21t124.5 -21t100.5 -61.5t67.5 -100.5t24.5 -138t-24 -138.5t-66.5 -101t-100.5 -61.5t-126 -21t-126 21.5t-100 62.5t-66 101t-24 137zM215 304q0 -91 37 -136t99 -45q63 0 100 45t37 136q0 90 -36.5 135t-99.5 45
q-62 0 -99.5 -44.5t-37.5 -135.5z" />
    <glyph glyph-name="P" unicode="P" horiz-adv-x="581" 
d="M292 325q42 0 64.5 19.5t22.5 59.5q0 38 -23.5 58.5t-68.5 20.5q-16 0 -26.5 -0.5t-21.5 -2.5v-155h53zM240 4q-11 -3 -34.5 -6t-46.5 -3t-40.5 3.5t-29.5 12.5t-18 25t-6 42v471q0 21 11.5 32.5t31.5 18.5q34 12 77.5 17.5t87.5 5.5q138 0 211 -59t73 -160
q0 -49 -15.5 -88.5t-46 -68t-77 -44t-107.5 -15.5h-71v-184z" />
    <glyph glyph-name="Q" unicode="Q" horiz-adv-x="705" 
d="M35 304q0 78 24.5 138t67 100.5t100 61.5t124.5 21t124.5 -21t100.5 -61.5t67.5 -100.5t24.5 -138q0 -98 -36 -166.5t-98 -107.5q15 -7 35.5 -15l43 -16t46.5 -15.5l45 -13.5q1 -6 1 -10.5v-8.5q0 -57 -29.5 -83t-77.5 -26q-46 0 -95 25.5t-100 73.5l-44 41h-8
q-68 0 -126 21.5t-100 62.5t-66 101t-24 137zM215 304q0 -91 37 -136t99 -45q63 0 100 45t37 136q0 90 -36.5 135t-99.5 45q-62 0 -99.5 -44.5t-37.5 -135.5z" />
    <glyph glyph-name="R" unicode="R" horiz-adv-x="609" 
d="M239 196v-192q-11 -3 -34.5 -6t-46.5 -3t-40.5 3.5t-29 12.5t-17.5 25t-6 42v471q0 21 11.5 32.5t31.5 18.5q34 12 79 17.5t96 5.5q138 0 208 -58t70 -157q0 -62 -32 -106t-76 -68q36 -49 71 -92t55 -78q-10 -35 -36.5 -53.5t-59.5 -18.5q-22 0 -38 5t-28 14t-22 22
t-19 28l-84 135h-53zM302 329q38 0 60 19.5t22 57.5t-24.5 57.5t-77.5 19.5q-15 0 -24 -1t-20 -3v-150h64z" />
    <glyph glyph-name="S" unicode="S" horiz-adv-x="551" 
d="M237 241q-44 15 -80 30.5t-62 37.5t-40.5 52.5t-14.5 74.5q0 85 65.5 136t183.5 51q43 0 80 -6t63.5 -18.5t41.5 -32t15 -45.5t-12 -44.5t-29 -31.5q-22 14 -59 24.5t-81 10.5q-45 0 -66 -12.5t-21 -31.5q0 -15 13 -24.5t39 -17.5l53 -17q94 -30 144.5 -76.5t50.5 -126.5
q0 -85 -67 -137.5t-197 -52.5q-46 0 -85.5 7.5t-69 22t-46 36t-16.5 49.5q0 29 17 49.5t37 31.5q28 -22 68.5 -38t88.5 -16q49 0 69 15t20 35t-16 30.5t-45 20.5z" />
    <glyph glyph-name="T" unicode="T" horiz-adv-x="556" 
d="M37 466q-7 11 -13 30t-6 40q0 39 17.5 56t45.5 17h436q7 -11 13 -30t6 -40q0 -39 -17.5 -56t-45.5 -17h-111v-462q-11 -3 -34.5 -6t-46.5 -3t-40.5 3.5t-29.5 12.5t-18 25t-6 42v388h-150z" />
    <glyph glyph-name="U" unicode="U" horiz-adv-x="664" 
d="M602 224q0 -54 -18.5 -98.5t-53.5 -76t-85 -48.5t-113 -17t-113 17t-85 48.5t-53.5 76t-18.5 98.5v382q11 2 35 5.5t46 3.5q23 0 40.5 -3.5t29.5 -12.5t18 -25t6 -42v-305q0 -48 26.5 -75t68.5 -27q43 0 69 27t26 75v379q11 2 35 5.5t46 3.5q23 0 40.5 -3.5t29.5 -12.5
t18 -25t6 -42v-308z" />
    <glyph glyph-name="V" unicode="V" horiz-adv-x="634" 
d="M428 20q-14 -12 -43.5 -21t-64.5 -9q-42 0 -72 12.5t-41 34.5q-11 23 -27 59.5t-33.5 81.5l-36 95.5t-35.5 102.5l-32 102t-26 94q14 14 40.5 25.5t56.5 11.5q37 0 60.5 -15.5t34.5 -57.5q27 -98 54.5 -187.5l57.5 -186.5h6q27 94 55.5 205l54.5 221q18 9 38.5 15t46.5 6
q37 0 63 -16.5t26 -54.5q0 -22 -10.5 -64t-27 -94.5t-37 -109.5t-41 -107.5t-38.5 -89t-29 -53.5z" />
    <glyph glyph-name="W" unicode="W" horiz-adv-x="863" 
d="M345 458q11 5 34.5 11.5t47.5 6.5q42 0 70 -12.5t34 -36.5l20.5 -76.5l18.5 -68l17.5 -64.5t16.5 -67h5q9 61 16 116.5t13 109l12 106l12 106.5q37 21 79 21q37 0 64 -16t27 -54q0 -22 -4.5 -62.5t-12 -90.5t-17.5 -105t-21 -105t-22.5 -90.5t-21.5 -62.5
q-15 -14 -49 -23t-70 -9q-47 0 -79.5 12.5t-39.5 35.5q-13 40 -28 95l-32 121q-14 -65 -29 -127t-27 -105q-15 -14 -45 -23t-66 -9q-45 0 -81.5 12.5t-47.5 35.5q-9 18 -19.5 53.5t-21.5 81t-22.5 98.5t-21 106t-17.5 103.5t-12 92.5q14 13 39 24t54 11q38 0 62.5 -16.5
t30.5 -55.5l26.5 -170l17 -111.5t9.5 -67.5t6 -38h5l17 74l16.5 68.5l17.5 74t19 90.5z" />
    <glyph glyph-name="X" unicode="X" horiz-adv-x="601" 
d="M23 532q5 14 14 28t22.5 25.5t31.5 19t40 7.5q29 0 51 -14.5t45 -49.5l78 -119l115 170q8 4 22.5 7.5t28.5 3.5q46 0 72 -22t26 -54q0 -28 -14.5 -50t-39.5 -53l-103 -126l163 -233q-8 -37 -34.5 -58.5t-71.5 -21.5q-29 0 -50 14.5t-43 49.5l-81 128l-126 -190
q-8 -1 -15 -1.5t-14 -0.5q-57 0 -84 23t-27 57q0 29 12.5 50.5t35.5 50.5l105 135z" />
    <glyph glyph-name="Y" unicode="Y" horiz-adv-x="574" 
d="M383 4q-11 -3 -34 -6t-45 -3q-46 0 -69 15.5t-23 65.5v135l-54 82l-57 92t-52 92.5t-39 83.5q13 18 35.5 33t55.5 15q39 0 63.5 -16t46.5 -60l83 -167h6q14 31 24.5 56.5l20.5 51l21 53l25 63.5q18 9 40 14t42 5q35 0 59.5 -18.5t24.5 -55.5q0 -12 -5 -29t-23 -51.5
t-52.5 -93.5l-93.5 -154v-203z" />
    <glyph glyph-name="Z" unicode="Z" horiz-adv-x="560" 
d="M308 466h-246q-7 11 -13 30t-6 40q0 39 17.5 56t45.5 17h373q44 -36 44 -96q0 -25 -11.5 -49.5t-29.5 -46.5l-227 -274h256q7 -11 13 -30t6 -40q0 -39 -17.5 -56t-45.5 -17h-394q-17 14 -28 38t-11 55q0 25 13 51t31 48z" />
    <glyph glyph-name="bracketleft" unicode="[" horiz-adv-x="303" 
d="M46 587q0 35 20.5 55.5t55.5 20.5h160q5 -11 10.5 -26.5t5.5 -34.5q0 -35 -15.5 -50t-39.5 -15h-39v-542h78q5 -11 10.5 -26.5t5.5 -34.5q0 -35 -15.5 -50t-39.5 -15h-121q-35 0 -55.5 20.5t-20.5 55.5v642z" />
    <glyph glyph-name="backslash" unicode="\" horiz-adv-x="360" 
d="M360 -72q-14 -15 -39 -26t-48 -11q-27 0 -47 11.5t-28 42.5l-198 726q14 15 39 26t48 11q27 0 47 -11.5t28 -42.5z" />
    <glyph glyph-name="bracketright" unicode="]" horiz-adv-x="317" 
d="M21 -131q-5 11 -10.5 26.5t-5.5 34.5q0 35 15.5 50t39.5 15h39v542h-78q-5 11 -10.5 26.5t-5.5 34.5q0 35 15.5 50t39.5 15h121q35 0 55.5 -20.5t20.5 -55.5v-642q0 -35 -20.5 -55.5t-55.5 -20.5h-160z" />
    <glyph glyph-name="asciicircum" unicode="^" horiz-adv-x="488" 
d="M153 662q12 10 36 17t54 7q34 0 58 -10t35 -28q12 -16 28.5 -50.5t33.5 -76t32 -84t23 -74.5q-12 -12 -33 -22.5t-45 -10.5q-31 0 -48.5 13t-30.5 48l-56 157h-4q-17 -46 -32.5 -99t-26.5 -102q-15 -9 -34.5 -13t-36.5 -4q-30 0 -50.5 13.5t-20.5 45.5q0 18 12 53.5
t30 76t38.5 79t37.5 64.5z" />
    <glyph glyph-name="underscore" unicode="_" horiz-adv-x="569" 
d="M48 -188q-6 10 -12 27.5t-6 37.5q0 37 17 53t43 16h430q5 -10 12 -27.5t7 -37.5q0 -37 -17 -53t-44 -16h-430z" />
    <glyph glyph-name="grave" unicode="`" horiz-adv-x="302" 
d="M18 643q-2 10 -2 20q0 38 19 61t52 23q25 0 42 -10t38 -28l113 -95q-2 -38 -21.5 -61t-44.5 -23q-16 0 -32 6.5t-32 17.5z" />
    <glyph glyph-name="a" unicode="a" horiz-adv-x="544" 
d="M260 108q17 0 37.5 3.5t30.5 9.5v80l-72 -6q-28 -2 -46 -12t-18 -30t15.5 -32.5t52.5 -12.5zM252 501q54 0 98.5 -11t76 -33.5t48.5 -57t17 -81.5v-224q0 -26 -14.5 -42.5t-34.5 -28.5q-65 -39 -183 -39q-53 0 -95.5 10t-73 30t-47 51t-16.5 72q0 69 41 106t127 46
l131 14v7q0 29 -25.5 41.5t-73.5 12.5q-38 0 -74 -8t-65 -20q-13 9 -22 27.5t-9 38.5q0 26 12.5 41.5t38.5 26.5q29 11 68.5 16t74.5 5z" />
    <glyph glyph-name="b" unicode="b" horiz-adv-x="590" 
d="M54 651q10 3 32 6.5t45 3.5q22 0 39.5 -3t29.5 -12t18 -24.5t6 -40.5v-98q25 10 47.5 14t49.5 4q48 0 91 -17t76 -49.5t52 -80.5t19 -111q0 -65 -19.5 -113.5t-54.5 -80.5t-85.5 -48.5t-111.5 -16.5q-66 0 -112 15.5t-78 38.5q-44 31 -44 80v533zM288 118q46 0 71.5 31.5
t25.5 93.5q0 63 -26 94t-70 31q-20 0 -34.5 -4t-31.5 -12v-218q11 -7 26.5 -11.5t38.5 -4.5z" />
    <glyph glyph-name="c" unicode="c" horiz-adv-x="489" 
d="M326 367q-25 0 -47.5 -8t-39 -23.5t-26.5 -38.5t-10 -54q0 -62 35.5 -93t86.5 -31q30 0 52 7t39 15q20 -14 30 -30.5t10 -39.5q0 -41 -39 -63.5t-108 -22.5q-63 0 -114 18.5t-87.5 52t-56.5 80.5t-20 104q0 66 21.5 115.5t58.5 81.5t85.5 48t102.5 16q72 0 111 -26
t39 -67q0 -19 -9 -35.5t-21 -28.5q-17 8 -41 15.5t-52 7.5z" />
    <glyph glyph-name="d" unicode="d" horiz-adv-x="586" 
d="M31 243q0 66 20 114.5t55.5 80.5t83 47.5t102.5 15.5q20 0 39 -3.5t31 -8.5v162q10 3 32 6.5t45 3.5q22 0 39.5 -3t29.5 -12t18 -24.5t6 -40.5v-474q0 -47 -44 -75q-29 -19 -75 -33.5t-106 -14.5q-65 0 -116.5 18t-87 52t-54 81.5t-18.5 107.5zM315 368q-54 0 -83 -31
t-29 -94q0 -62 27 -93.5t78 -31.5q18 0 32.5 5.5t22.5 12.5v220q-20 12 -48 12z" />
    <glyph glyph-name="e" unicode="e" horiz-adv-x="549" 
d="M309 -16q-59 0 -109.5 16.5t-88 49.5t-59 83t-21.5 117q0 66 21.5 113.5t56.5 78t80 45t92 14.5q53 0 96.5 -16t75 -44t49 -67t17.5 -85q0 -34 -19 -52t-53 -23l-247 -37q11 -33 45 -49.5t78 -16.5q41 0 77.5 10.5t59.5 24.5q16 -10 27 -28t11 -38q0 -45 -42 -67
q-32 -17 -72 -23t-75 -6zM281 377q-24 0 -41.5 -8t-28.5 -20.5t-16.5 -28t-6.5 -31.5l171 28q-3 20 -22 40t-56 20z" />
    <glyph glyph-name="f" unicode="f" horiz-adv-x="430" 
d="M54 486q0 51 17.5 87.5t47.5 60t70.5 34.5t86.5 11q74 0 109 -19.5t35 -66.5q0 -20 -8.5 -36t-18.5 -24q-19 5 -39.5 8.5t-47.5 3.5q-43 0 -67 -14.5t-24 -50.5v-32h164q6 -11 11.5 -27.5t5.5 -36.5q0 -35 -15.5 -50.5t-41.5 -15.5h-115v-317q-10 -3 -31.5 -6t-44.5 -3
q-22 0 -39.5 3t-29.5 12t-18.5 24.5t-6.5 40.5v414z" />
    <glyph glyph-name="g" unicode="g" horiz-adv-x="567" 
d="M289 501q57 0 103.5 -14.5t78.5 -37.5q20 -14 31.5 -31t11.5 -44v-350q0 -53 -20 -91.5t-54.5 -64t-81 -37.5t-99.5 -12q-91 0 -143 24.5t-52 79.5q0 23 9.5 40.5t21.5 26.5q29 -16 65.5 -27t75.5 -11q54 0 86 18t32 58v16q-41 -18 -100 -18q-45 0 -85.5 13.5t-71 42
t-49 73.5t-18.5 107q0 61 19.5 106t54 74.5t82 44t103.5 14.5zM351 356q-7 4 -20.5 8t-33.5 4q-49 0 -73.5 -27.5t-24.5 -78.5q0 -58 24.5 -83.5t62.5 -25.5q41 0 65 19v184z" />
    <glyph glyph-name="h" unicode="h" horiz-adv-x="585" 
d="M532 1q-10 -3 -31.5 -6t-44.5 -3q-22 0 -39.5 3t-29.5 12t-18.5 24.5t-6.5 40.5v222q0 41 -20.5 57.5t-50.5 16.5q-20 0 -38 -5t-29 -12v-350q-10 -3 -31.5 -6t-44.5 -3q-22 0 -39.5 3t-29.5 12t-18.5 24.5t-6.5 40.5v580q11 2 32.5 5.5t43.5 3.5t39.5 -3t29.5 -12
t18.5 -24.5t6.5 -40.5v-98q13 5 39.5 11.5t58.5 6.5q99 0 154.5 -49.5t55.5 -147.5v-303z" />
    <glyph glyph-name="i" unicode="i" horiz-adv-x="282" 
d="M48 621q0 38 25.5 64t67.5 26t67.5 -26t25.5 -64t-25.5 -64t-67.5 -26t-67.5 26t-25.5 64zM226 1q-11 -2 -32.5 -5.5t-43.5 -3.5t-39.5 3t-29.5 12t-18.5 24.5t-6.5 40.5v407q11 2 32.5 5.5t43.5 3.5t39.5 -3t29.5 -12t18.5 -24.5t6.5 -40.5v-407z" />
    <glyph glyph-name="j" unicode="j" horiz-adv-x="287" 
d="M53 621q0 38 25.5 64t67.5 26t67.5 -26t25.5 -64t-25.5 -64t-67.5 -26t-67.5 26t-25.5 64zM19 -68q22 14 32 38.5t10 54.5v454q11 2 32.5 5.5t43.5 3.5t39.5 -3t29.5 -12t18.5 -24.5t6.5 -40.5v-399q0 -42 -10 -76t-28.5 -58.5t-45 -38t-59.5 -13.5q-44 0 -69 26.5
t-26 66.5z" />
    <glyph glyph-name="k" unicode="k" horiz-adv-x="555" 
d="M527 88q-5 -47 -27.5 -72t-65.5 -25q-32 0 -57 15.5t-54 52.5l-99 124v-182q-11 -2 -32.5 -5.5t-43.5 -3.5t-39.5 3t-29.5 12t-18.5 24.5t-6.5 40.5v579q11 3 32.5 6.5t43.5 3.5t39.5 -3t29.5 -12t18.5 -24.5t6.5 -40.5v-264l172 176q52 0 83.5 -23t31.5 -58
q0 -15 -5 -27.5t-15.5 -25.5t-27 -27.5l-38.5 -33.5l-58 -50z" />
    <glyph glyph-name="l" unicode="l" horiz-adv-x="280" 
d="M225 1q-11 -2 -32.5 -5.5t-43.5 -3.5t-39.5 3t-29.5 12t-18.5 24.5t-6.5 40.5v580q11 2 32.5 5.5t43.5 3.5t39.5 -3t29.5 -12t18.5 -24.5t6.5 -40.5v-580z" />
    <glyph glyph-name="m" unicode="m" horiz-adv-x="846" 
d="M285 501q41 0 80.5 -11.5t68.5 -34.5q30 20 67.5 33t90.5 13q38 0 74.5 -10t65 -31.5t45.5 -57t17 -86.5v-315q-10 -3 -31.5 -6t-44.5 -3q-22 0 -39.5 3t-29.5 12t-18.5 24.5t-6.5 40.5v239q0 30 -17 43.5t-46 13.5q-14 0 -30 -6.5t-24 -13.5q1 -4 1 -7.5v-6.5v-333
q-11 -3 -32.5 -6t-43.5 -3t-39.5 3t-29.5 12t-18.5 24.5t-6.5 40.5v239q0 30 -18.5 43.5t-44.5 13.5q-18 0 -31 -5.5t-22 -10.5v-351q-10 -3 -31.5 -6t-44.5 -3q-22 0 -39.5 3t-29.5 12t-18.5 24.5t-6.5 40.5v302q0 27 11.5 43t31.5 30q34 24 84.5 39t105.5 15z" />
    <glyph glyph-name="n" unicode="n" horiz-adv-x="583" 
d="M360 308q0 31 -17.5 45.5t-47.5 14.5q-20 0 -39.5 -5t-33.5 -15v-347q-10 -3 -31.5 -6t-44.5 -3q-22 0 -39.5 3t-29.5 12t-18.5 24.5t-6.5 40.5v300q0 27 11.5 44t31.5 31q34 24 85.5 39t114.5 15q113 0 174 -49.5t61 -137.5v-313q-10 -3 -31.5 -6t-44.5 -3
q-22 0 -39.5 3t-29.5 12t-18.5 24.5t-6.5 40.5v236z" />
    <glyph glyph-name="o" unicode="o" horiz-adv-x="586" 
d="M555 243q0 -62 -19 -110.5t-53.5 -81.5t-82.5 -50t-107 -17t-107 18t-82.5 51.5t-53.5 81.5t-19 108q0 59 19 107t53.5 81.5t82.5 51.5t107 18t107 -18.5t82.5 -52t53.5 -81.5t19 -106zM205 243q0 -61 23.5 -93.5t65.5 -32.5t64.5 33t22.5 93t-23 92.5t-65 32.5
t-65 -32.5t-23 -92.5z" />
    <glyph glyph-name="p" unicode="p" horiz-adv-x="585" 
d="M275 501q60 0 111.5 -15.5t88.5 -47.5t58 -80.5t21 -115.5q0 -64 -18 -112t-51 -80.5t-79.5 -48.5t-103.5 -16q-43 0 -80 13v-166q-10 -3 -32 -6.5t-45 -3.5q-22 0 -39.5 3t-29.5 12t-18 24.5t-6 40.5v480q0 27 11.5 44t31.5 31q31 20 77 32t103 12zM277 119
q103 0 103 123q0 64 -25.5 95t-73.5 31q-19 0 -34 -4.5t-26 -10.5v-220q12 -6 26 -10t30 -4z" />
    <glyph glyph-name="q" unicode="q" horiz-adv-x="587" 
d="M282 -16q-53 0 -99 15.5t-80 47.5t-53 80t-19 113q0 63 20 111.5t56.5 82t88 50.5t114.5 17q56 0 105 -15t75 -33q20 -14 31.5 -32t11.5 -45v-544q-10 -3 -32 -6.5t-45 -3.5q-22 0 -39.5 3t-29.5 12t-18 24.5t-6 40.5v95q-17 -7 -38 -10t-43 -3zM364 358q-9 4 -21 7
t-28 3q-54 0 -83 -31.5t-29 -94.5q0 -66 28 -95t79 -29q34 0 54 14v226z" />
    <glyph glyph-name="r" unicode="r" horiz-adv-x="411" 
d="M222 1q-10 -3 -31.5 -6t-44.5 -3q-22 0 -39.5 3t-29.5 12t-18.5 24.5t-6.5 40.5v300q0 23 8.5 39.5t24.5 29.5t39.5 23.5t50.5 18.5t56 12.5t58 4.5q48 0 76 -18.5t28 -60.5q0 -14 -4 -27.5t-10 -24.5q-21 0 -43 -2t-43 -6t-39.5 -8.5t-31.5 -10.5v-341z" />
    <glyph glyph-name="s" unicode="s" horiz-adv-x="492" 
d="M462 145q0 -76 -57 -119t-168 -43q-42 0 -78 6t-61.5 18.5t-40 31.5t-14.5 45q0 24 10 40.5t24 27.5q29 -16 66.5 -28.5t86.5 -12.5q31 0 47.5 9t16.5 24q0 14 -12 22t-40 13l-30 6q-87 17 -129.5 53.5t-42.5 104.5q0 37 16 67t45 50t69.5 31t89.5 11q37 0 69.5 -5.5
t56.5 -16.5t38 -28.5t14 -41.5q0 -23 -8.5 -39.5t-21.5 -27.5q-8 5 -24 10.5t-35 10t-38.5 7.5t-35.5 3q-33 0 -51 -7.5t-18 -23.5q0 -11 10 -18t38 -13l31 -7q96 -22 136.5 -60.5t40.5 -99.5z" />
    <glyph glyph-name="t" unicode="t" horiz-adv-x="400" 
d="M222 167q0 -26 16.5 -37t46.5 -11q15 0 31 2.5t28 6.5q9 -11 15.5 -24.5t6.5 -32.5q0 -38 -28.5 -62t-100.5 -24q-88 0 -135.5 40t-47.5 130v428q11 3 31.5 6.5t43.5 3.5q44 0 68.5 -15.5t24.5 -65.5v-64h131q6 -11 11.5 -27.5t5.5 -36.5q0 -35 -15.5 -50.5t-41.5 -15.5
h-91v-151z" />
    <glyph glyph-name="u" unicode="u" horiz-adv-x="582" 
d="M52 479q10 3 31.5 6t44.5 3q22 0 39.5 -3t29.5 -12t18.5 -24.5t6.5 -40.5v-215q0 -41 20 -58.5t58 -17.5q23 0 37.5 4t22.5 8v350q10 3 31.5 6t44.5 3q22 0 39.5 -3t29.5 -12t18.5 -24.5t6.5 -40.5v-304q0 -50 -42 -75q-35 -22 -83.5 -33.5t-105.5 -11.5q-54 0 -99.5 12
t-78.5 37t-51 64.5t-18 95.5v286z" />
    <glyph glyph-name="v" unicode="v" horiz-adv-x="545" 
d="M377 13q-14 -11 -41 -18t-61 -7q-39 0 -67.5 10t-39.5 32q-9 17 -21.5 47.5l-26.5 68l-29 80.5l-28.5 85t-24.5 81t-18 69q14 14 37.5 24.5t51.5 10.5q35 0 57.5 -14.5t33.5 -54.5l39 -153q11 -45 21 -81.5t15 -56.5h5q19 74 40 164t38 177q17 9 38.5 14t41.5 5
q35 0 59 -15t24 -52q0 -16 -7.5 -46.5t-19 -69t-27 -81.5l-31.5 -84t-31.5 -76.5t-27.5 -58.5z" />
    <glyph glyph-name="w" unicode="w" horiz-adv-x="791" 
d="M329 15q-14 -12 -38 -19.5t-57 -7.5q-41 0 -71 11.5t-40 32.5q-11 24 -25.5 76t-28.5 114t-26.5 126t-19.5 113q14 14 37.5 24.5t51.5 10.5q35 0 57.5 -15.5t27.5 -53.5l17 -125.5l11.5 -81l7 -48t4.5 -26.5h4q3 16 10.5 46.5l17.5 69.5l21 84.5l22 90.5q20 11 39.5 17
t48.5 6q35 0 60 -11t32 -34l23 -85.5l20 -77l16 -63t10 -43.5h5q11 77 21.5 160t19.5 169q18 11 38 16t40 5q35 0 58 -15t23 -52q0 -16 -5 -48t-13 -72t-18.5 -84l-21 -85t-20 -74t-16.5 -51q-14 -12 -43 -19.5t-62 -7.5q-84 0 -99 42l-15 45.5l-19 60.5t-19 68.5t-15 68.5
q-7 -35 -17 -72.5t-20.5 -73l-19.5 -65t-14 -47.5z" />
    <glyph glyph-name="x" unicode="x" horiz-adv-x="523" 
d="M25 407q8 38 31.5 62t58.5 24q33 0 51 -16t40 -45l64 -84l107 145q55 0 87 -19.5t32 -52.5q0 -13 -3.5 -23.5t-10.5 -21.5t-18 -25l-26 -33l-66 -74l131 -173q-5 -38 -30 -60t-60 -22q-38 1 -60.5 22t-43.5 51l-54 77l-102 -147q-5 0 -11 -0.5t-10 -0.5q-51 0 -77.5 21
t-26.5 52q0 24 11.5 42.5t39.5 50.5l80 93z" />
    <glyph glyph-name="y" unicode="y" horiz-adv-x="551" 
d="M128 124l-23.5 56t-26 71t-28 91.5t-30.5 118.5q14 14 37.5 24.5t51.5 10.5q35 0 58 -14.5t34 -54.5l79 -275h4q12 34 23.5 74t22.5 82.5t20.5 85t16.5 83.5q36 19 79 19q35 0 58 -15t23 -52q0 -27 -7 -62.5t-18.5 -75.5t-27 -82.5t-32.5 -83.5t-35 -77.5t-35 -65.5
q-28 -49 -52 -80t-46 -48.5t-44 -24t-46 -6.5q-42 0 -68 25t-31 65q32 25 64 55.5t58 62.5q-17 5 -36.5 23.5t-42.5 69.5z" />
    <glyph glyph-name="z" unicode="z" horiz-adv-x="481" 
d="M69 0q-16 14 -25.5 33t-9.5 43q0 20 9.5 39.5t23.5 36.5l172 202h-184q-6 11 -11.5 28t-5.5 37q0 35 15.5 50.5t41.5 15.5h315q16 -14 25.5 -33t9.5 -43q0 -20 -9.5 -39.5t-23.5 -36.5l-168 -202h196q6 -11 11.5 -28t5.5 -37q0 -35 -15.5 -50.5t-41.5 -15.5h-331z" />
    <glyph glyph-name="braceleft" unicode="{" horiz-adv-x="327" 
d="M199 266q54 -26 54 -110v-112q0 -34 11.5 -48.5t33.5 -20.5q2 -8 2 -14.5v-12.5q0 -47 -22 -65.5t-57 -18.5q-55 0 -90 35t-35 106v105q0 44 -15.5 67t-49.5 32q-3 12 -5 26.5t-2 30.5t2 30.5t5 26.5q34 9 49.5 32t15.5 67v105q0 71 35 106t90 35q35 0 57 -18.5t22 -65.5
v-12.5t-2 -14.5q-22 -6 -33.5 -20.5t-11.5 -48.5v-112q0 -85 -54 -110z" />
    <glyph glyph-name="bar" unicode="|" horiz-adv-x="281" 
d="M216 -134q-10 -2 -29 -4.5t-38 -2.5q-40 0 -62 13t-22 57v747q10 2 29 4.5t38 2.5q40 0 62 -13.5t22 -57.5v-746z" />
    <glyph glyph-name="braceright" unicode="}" horiz-adv-x="327" 
d="M125 266q-54 25 -54 110v112q0 34 -11.5 48.5t-33.5 20.5q-2 8 -2 14.5v12.5q0 47 22 65.5t57 18.5q55 0 90 -35t35 -106v-105q0 -44 15.5 -67t49.5 -32q3 -12 5 -26.5t2 -30.5t-2 -30.5t-5 -26.5q-34 -9 -49.5 -32t-15.5 -67v-105q0 -71 -35 -106t-90 -35
q-35 0 -57 18.5t-22 65.5v12.5t2 14.5q22 6 33.5 20.5t11.5 48.5v112q0 84 54 110z" />
    <glyph glyph-name="asciitilde" unicode="~" horiz-adv-x="503" 
d="M325 313q24 0 37.5 13t22.5 28q21 0 39.5 -7t32.5 -19t22 -29.5t8 -38.5q0 -26 -10 -45.5t-26.5 -32t-38.5 -18.5t-46 -6q-31 0 -70 9q-30 7 -49.5 12t-32 7.5t-20.5 3.5t-15 1q-25 0 -38.5 -14.5t-21.5 -25.5q-20 0 -38.5 7t-32.5 19t-22 29.5t-8 38.5q0 27 11 46
t28.5 31.5t38.5 18.5t42 6q25 0 49 -5.5t47 -11.5l45.5 -11.5t45.5 -5.5z" />
    <glyph glyph-name="uni00A0" unicode="&#xa0;" horiz-adv-x="200" 
 />
    <glyph glyph-name="exclamdown" unicode="&#xa1;" horiz-adv-x="298" 
d="M61 -139q0 23 1 66.5t4 94t8 101t12 87.5q4 3 12 6t17 5t18 3t16 1q29 0 48.5 -9t24.5 -35q4 -23 8 -70t7 -102t4.5 -109t1.5 -92q-20 -11 -45.5 -17.5t-50.5 -6.5q-41 0 -63.5 19t-22.5 58zM245 365q0 -41 -25.5 -67.5t-70.5 -26.5t-70.5 26.5t-25.5 67.5t25.5 67.5
t70.5 26.5t70.5 -26.5t25.5 -67.5z" />
    <glyph glyph-name="cent" unicode="&#xa2;" horiz-adv-x="492" 
d="M324 367q-25 0 -47.5 -8t-39 -23.5t-26.5 -38.5t-10 -54q0 -62 35.5 -93t86.5 -31q30 0 52 7t39 15q20 -14 30 -30.5t10 -39.5q0 -36 -31 -58t-87 -27v-72q-9 -2 -28 -5t-39 -3q-39 0 -61 13.5t-22 57.5v29q-74 28 -115.5 88.5t-41.5 145.5q0 97 44 156.5t113 85.5v92
q9 2 28 5t39 3q39 0 61 -13.5t22 -57.5v-13q54 -7 82.5 -31t28.5 -59q0 -19 -9 -35.5t-21 -28.5q-17 8 -41 15.5t-52 7.5z" />
    <glyph glyph-name="sterling" unicode="&#xa3;" horiz-adv-x="504" 
d="M104 371q-3 19 -3 38q0 56 18.5 96.5t50 66.5t73.5 38.5t89 12.5q68 0 103.5 -23t35.5 -68q0 -20 -9 -38.5t-20 -26.5q-17 9 -36 14.5t-46 5.5q-43 0 -67.5 -19t-24.5 -65v-16t2 -16h131q5 -11 11 -27.5t6 -35.5q0 -38 -15.5 -53t-41.5 -15h-80v-13q0 -55 -30 -95h221
q6 -11 11.5 -28t5.5 -37q0 -36 -16 -51.5t-42 -15.5h-331q-26 0 -45.5 20.5t-19.5 58.5v7.5t1 7.5q40 18 60 48t20 87v11h-21q-26 0 -41.5 15t-15.5 53q0 19 6 35.5t11 27.5h49z" />
    <glyph glyph-name="currency" unicode="&#xa4;" horiz-adv-x="565" 
d="M493 292q0 -38 -10.5 -69t-29.5 -56l57 -67q-11 -26 -27.5 -38t-35.5 -12q-18 0 -32.5 14t-28.5 31l-11 13q-44 -18 -96 -18q-49 0 -91 17l-51 -66q-31 6 -50.5 19.5t-19.5 34.5q0 15 8 30t22 32l9 10q-20 25 -30.5 56t-10.5 69q0 37 10.5 68t30.5 56l-51 62
q11 26 27.5 38t35.5 12q18 0 32.5 -14t28.5 -31l6 -8q42 18 94 18q27 0 52 -5.5t47 -15.5l46 60q31 -6 50.5 -19.5t19.5 -34.5q0 -14 -8.5 -29t-21.5 -33l-7 -9q17 -23 26.5 -52t9.5 -63zM207 292q0 -44 19.5 -67.5t53.5 -23.5t53 24t19 67t-19.5 66.5t-53.5 23.5t-53 -23.5
t-19 -66.5z" />
    <glyph glyph-name="yen" unicode="&#xa5;" horiz-adv-x="597" 
d="M74 254q-5 8 -9.5 22t-4.5 29q0 30 13 42t33 12h34l-61 107t-46 96q12 18 34 32.5t53 14.5q38 0 62 -15t45 -58l79 -160h6l23.5 54.5l20 48.5l19.5 51t24 61q17 8 38.5 13t41.5 5q32 0 56 -18t24 -53q0 -9 -2.5 -20.5t-11.5 -31t-25.5 -50t-44.5 -77.5h62q5 -9 9.5 -22
t4.5 -30q0 -29 -13 -41t-33 -12h-431zM74 102q-5 8 -9.5 22t-4.5 29q0 30 13 42t33 12h431q5 -9 9.5 -22t4.5 -30q0 -29 -13 -41t-33 -12h-115v-98q-11 -3 -34 -6t-45 -3q-46 0 -69 15.5t-23 65.5v26h-145z" />
    <glyph glyph-name="brokenbar" unicode="&#xa6;" horiz-adv-x="293" 
d="M216 330q-10 -2 -29 -4.5t-38 -2.5q-40 0 -62 13t-22 57v283q10 2 29 4.5t38 2.5q40 0 62 -13.5t22 -57.5v-282zM216 -133q-10 -2 -29 -4.5t-38 -2.5q-40 0 -62 13t-22 57v283q10 2 29 4.5t38 2.5q40 0 62 -13.5t22 -57.5v-282z" />
    <glyph glyph-name="section" unicode="&#xa7;" horiz-adv-x="546" 
d="M496 111q0 -73 -62 -115.5t-183 -42.5q-42 0 -78 6t-61.5 18.5t-40 31.5t-14.5 45q0 24 10 40.5t24 27.5q29 -16 66.5 -28.5t86.5 -12.5q48 0 66 9t18 24q0 14 -11.5 20t-40.5 11l-59 9q-88 13 -127.5 50.5t-39.5 100.5q0 27 10.5 51t29.5 42q-19 14 -29.5 38.5
t-10.5 57.5q0 36 16 64t45 47.5t69.5 30t89.5 10.5q36 0 68.5 -5.5t57 -16.5t38.5 -28.5t14 -41.5q0 -23 -8.5 -39.5t-21.5 -27.5q-8 5 -24 10.5t-35 10t-38.5 7.5t-35.5 3q-33 0 -51 -7.5t-18 -23.5q0 -11 9.5 -16t38.5 -10l55 -8q91 -14 134 -53t43 -100q0 -27 -11 -52.5
t-27 -41.5q17 -17 27.5 -42.5t10.5 -52.5zM208 310q0 -11 10 -23.5t38 -17.5l70 -14q5 6 8.5 14.5t3.5 19.5q0 14 -12 26t-41 17l-65 12q-12 -12 -12 -34z" />
    <glyph glyph-name="dieresis" unicode="&#xa8;" horiz-adv-x="374" 
d="M-14 637q0 35 25 60.5t62 25.5q42 0 66 -25.5t24 -60.5t-24 -60.5t-66 -25.5q-18 0 -34 7t-28 18.5t-18.5 27t-6.5 33.5zM210 637q0 35 23.5 60.5t65.5 25.5q19 0 35 -7t28 -19t18.5 -27.5t6.5 -32.5q0 -35 -25 -60.5t-63 -25.5q-42 0 -65.5 25.5t-23.5 60.5z" />
    <glyph glyph-name="copyright" unicode="&#xa9;" horiz-adv-x="713" 
d="M35 308q0 65 23 122t65 99t101 66t131 24t131 -24t102 -66t66.5 -99t23.5 -122q0 -66 -23.5 -122.5t-66.5 -98t-102 -65.5t-131 -24t-131 24t-101 65.5t-65 98t-23 122.5zM355 529q-50 0 -89 -16.5t-67 -46t-42.5 -70t-14.5 -88.5t14.5 -88t42.5 -69t67 -45t89 -16
t89.5 16t67 45t42 69t14.5 88t-14.5 88.5t-42 70t-67 46t-89.5 16.5zM394 373q-27 0 -46 -16t-19 -45q0 -31 18 -48t46 -17q19 0 32.5 5t23.5 10q23 -20 23 -50q0 -23 -28 -40t-73 -17q-33 0 -61.5 10.5t-49.5 30.5t-33 49.5t-12 67.5q0 39 14.5 67.5t37.5 47.5t51.5 28.5
t56.5 9.5q42 0 67 -16.5t25 -41.5q0 -29 -20 -49q-9 5 -22.5 9.5t-30.5 4.5z" />
    <glyph glyph-name="ordfeminine" unicode="&#xaa;" horiz-adv-x="355" 
d="M165 401q11 0 24.5 2t19.5 6v52l-47 -4q-19 -2 -30.5 -8t-11.5 -20q0 -13 10 -20.5t35 -7.5zM159 656q71 0 113.5 -29t42.5 -90v-146q0 -17 -9.5 -27t-22.5 -18q-21 -14 -50.5 -20t-67.5 -6q-69 0 -110 26t-41 79q0 88 109 100l85 9v4q0 35 -64 35q-25 0 -49 -4.5
t-41 -12.5q-8 5 -14.5 16.5t-6.5 25.5q0 17 8 27t25 17q20 8 45 11t48 3z" />
    <glyph glyph-name="guillemotleft" unicode="&#xab;" horiz-adv-x="574" 
d="M542 94q0 -29 -19 -52t-59 -23q-22 0 -39.5 11.5t-34.5 29.5l-97 98q-6 10 -10.5 26.5t-4.5 32.5q0 32 8 51.5t20 30.5l147 142q38 -11 57.5 -31.5t19.5 -44.5q0 -11 -1.5 -20.5t-6.5 -19t-14 -20t-24 -23.5l-66 -61zM293 94q0 -29 -19 -52t-59 -23q-22 0 -39.5 11.5
t-34.5 29.5l-97 98q-6 10 -10.5 26.5t-4.5 32.5q0 32 8 51.5t20 30.5l147 142q38 -11 57.5 -31.5t19.5 -44.5q0 -11 -1.5 -20.5t-6.5 -19t-14 -20t-24 -23.5l-66 -61z" />
    <glyph glyph-name="logicalnot" unicode="&#xac;" horiz-adv-x="481" 
d="M380 356q35 0 55 -20t20 -55v-171q-10 -3 -31.5 -5.5t-41.5 -2.5q-21 0 -37 3t-26.5 11t-16 23t-5.5 38v45h-253q-6 11 -12 28.5t-6 37.5q0 36 16.5 52t42.5 16h295z" />
    <glyph glyph-name="uni00AD" unicode="&#xad;" horiz-adv-x="354" 
d="M49 186q-7 11 -13 29t-6 38q0 37 17 53.5t44 16.5h214q6 -11 12.5 -29t6.5 -38q0 -37 -17 -53.5t-44 -16.5h-214z" />
    <glyph glyph-name="registered" unicode="&#xae;" horiz-adv-x="619" 
d="M37 372q0 55 19.5 103t55.5 83.5t86 56t111 20.5q60 0 110 -20.5t86.5 -56t56.5 -83.5t20 -103t-20 -103t-56.5 -83t-86.5 -55.5t-110 -20.5q-61 0 -111 20.5t-86 55.5t-55.5 83t-19.5 103zM127 372q0 -41 12.5 -74.5t36.5 -58t57.5 -38t75.5 -13.5t75.5 13.5t56.5 38
t35.5 58t12.5 74.5q0 40 -12.5 74.5t-35.5 59.5t-56.5 39t-75.5 14t-75.5 -14t-57.5 -39t-36.5 -59.5t-12.5 -74.5zM290 336v-76q-6 -1 -15.5 -2t-22.5 -1q-17 0 -26.5 6t-9.5 26v187q0 13 16 19q14 5 32 7t38 2q55 0 82.5 -22.5t27.5 -62.5q0 -26 -12.5 -42.5t-30.5 -25.5
q14 -20 28 -37t22 -31q-4 -14 -15.5 -21t-24.5 -7q-18 0 -28 8.5t-19 22.5l-32 50h-10zM305 390q15 0 24 6.5t9 22.5q0 28 -34 28q-5 0 -8.5 -0.5t-5.5 -0.5v-56h15z" />
    <glyph glyph-name="macron" unicode="&#xaf;" horiz-adv-x="321" 
d="M30 564q-5 11 -10.5 27.5t-5.5 34.5q0 37 15 51.5t40 14.5h265q8 -11 12 -27.5t4 -34.5q0 -37 -14.5 -51.5t-39.5 -14.5h-266z" />
    <glyph glyph-name="degree" unicode="&#xb0;" horiz-adv-x="361" 
d="M178 363q-77 0 -119.5 42t-42.5 106q0 66 44 107.5t122 41.5q75 0 119 -41.5t44 -107.5q0 -32 -12 -59t-34 -47t-53 -31t-68 -11zM179 458q21 0 34.5 14t13.5 39q0 24 -12 38.5t-33 14.5q-20 0 -34 -13.5t-14 -39.5q0 -25 12 -39t33 -14z" />
    <glyph glyph-name="plusminus" unicode="&#xb1;" horiz-adv-x="497" 
d="M52 -3q-7 11 -11.5 29t-4.5 36q0 36 16 52.5t43 16.5h360q5 -12 10.5 -29.5t5.5 -36.5q0 -35 -16 -51.5t-42 -16.5h-361zM327 172q-8 -4 -29.5 -6.5t-41.5 -2.5q-41 0 -62 13.5t-21 57.5v90h-131q-7 11 -11.5 29t-4.5 36q0 36 16 52.5t43 16.5h88v148q10 3 30.5 6.5
t40.5 3.5q40 0 61.5 -14t21.5 -59v-85h128q5 -12 10.5 -29.5t5.5 -36.5q0 -35 -16 -51.5t-42 -16.5h-86v-152z" />
    <glyph glyph-name="twosuperior" unicode="&#xb2;" horiz-adv-x="280" 
d="M128 621q60 0 92.5 -28.5t32.5 -73.5q0 -31 -20.5 -59.5t-50.5 -54.5l-38 -33h104q3 -7 6.5 -17.5t3.5 -21.5q0 -22 -9.5 -31t-25.5 -9h-177q-11 8 -17.5 19.5t-6.5 27.5q0 17 4 28.5t10 19.5l72 66q15 13 24 22.5t14 16.5t6.5 12.5t1.5 10.5q0 13 -9.5 19.5t-25.5 6.5
q-22 0 -38.5 -6.5t-27.5 -13.5q-8 7 -14 18.5t-6 26.5q0 27 25.5 40.5t69.5 13.5z" />
    <glyph glyph-name="threesuperior" unicode="&#xb3;" horiz-adv-x="286" 
d="M125 495q33 0 33 22q0 26 -43 26q-20 0 -36 -5.5t-29 -12.5q-24 16 -24 44q0 27 28.5 40t76.5 13q60 0 93 -25.5t33 -69.5q0 -21 -12.5 -38.5t-29.5 -27.5q20 -8 34.5 -27.5t14.5 -50.5q0 -45 -37 -71.5t-96 -26.5q-56 0 -85 16.5t-29 41.5q0 14 7.5 26.5t19.5 17.5
q16 -9 33.5 -15t41.5 -6q46 0 46 27q0 26 -38 26h-52q-4 6 -7 15.5t-3 21.5q0 14 2.5 23t7.5 16h50z" />
    <glyph glyph-name="acute" unicode="&#xb4;" horiz-adv-x="298" 
d="M185 744q52 0 75.5 -20t23.5 -48q0 -26 -14 -43.5t-46 -34.5l-129 -68q-30 3 -51 24t-21 45q0 12 6 24t20 22z" />
    <glyph glyph-name="mu" unicode="&#xb5;" horiz-adv-x="584" 
d="M53 479q10 3 31.5 6t44.5 3q22 0 39.5 -3t29.5 -12t18.5 -24.5t6.5 -40.5v-220q0 -20 6.5 -34t17.5 -22t25 -11.5t30 -3.5q19 0 33.5 3.5t25.5 8.5v350q10 3 31.5 6t44.5 3q22 0 39.5 -3t29.5 -12t18.5 -24.5t6.5 -40.5v-305q0 -25 -10.5 -43t-29.5 -32
q-23 -17 -62.5 -30.5t-104.5 -13.5q-28 0 -54 5t-47 13v-170q-10 -3 -32 -6.5t-45 -3.5q-22 0 -39.5 3t-29.5 12t-18 24.5t-6 40.5v577z" />
    <glyph glyph-name="paragraph" unicode="&#xb6;" horiz-adv-x="550" 
d="M401 607q22 0 39.5 -3t29.5 -12t18.5 -24.5t6.5 -40.5v-596q-11 -2 -32.5 -5.5t-43.5 -3.5t-39.5 3t-29.5 12t-18.5 24.5t-6.5 40.5v462h-69v-243q0 -13 -15 -21.5t-48 -8.5q-32 0 -64 12t-57 36.5t-40.5 62t-15.5 89.5q0 54 19 94.5t51.5 67.5t75.5 40.5t91 13.5h148z
" />
    <glyph glyph-name="periodcentered" unicode="&#xb7;" horiz-adv-x="234" 
d="M20 301q0 42 26 70t71 28t71 -28t26 -70t-26 -70t-71 -28t-71 28t-26 70z" />
    <glyph glyph-name="cedilla" unicode="&#xb8;" horiz-adv-x="195" 
d="M111 38q37 -18 60 -54t23 -71q0 -51 -32 -84.5t-89 -33.5q-41 0 -67 20.5t-26 58.5q0 17 4 30q32 2 50 15.5t18 36.5q0 10 -5 24.5t-14 24.5z" />
    <glyph glyph-name="onesuperior" unicode="&#xb9;" horiz-adv-x="222" 
d="M180 293q-6 -1 -18.5 -2.5t-25.5 -1.5q-26 0 -40 8t-14 37v175l-41 -12q-11 7 -22.5 20t-11.5 34q0 31 32 44l72 26h16q24 0 38.5 -15t14.5 -38v-275z" />
    <glyph glyph-name="ordmasculine" unicode="&#xba;" horiz-adv-x="396" 
d="M365 489q0 -81 -46.5 -124.5t-123.5 -43.5t-123.5 44.5t-46.5 123.5q0 77 46.5 122t123.5 45q38 0 69.5 -12t54 -33.5t34.5 -52.5t12 -69zM138 489q0 -40 15.5 -61t42.5 -21q26 0 41 21.5t15 60.5q0 38 -15 59.5t-42 21.5t-42 -21t-15 -60z" />
    <glyph glyph-name="guillemotright" unicode="&#xbb;" horiz-adv-x="574" 
d="M29 366q0 29 19 52t59 23q22 0 39.5 -11.5t34.5 -29.5l97 -100q6 -10 10.5 -26.5t4.5 -32.5q0 -32 -8 -51.5t-20 -30.5l-147 -140q-38 11 -57.5 31.5t-19.5 44.5q0 22 8.5 39t37.5 44l66 61zM278 366q0 29 19 52t59 23q22 0 39.5 -11.5t34.5 -29.5l97 -100
q6 -10 10.5 -26.5t4.5 -32.5q0 -32 -8 -51.5t-20 -30.5l-147 -140q-38 11 -57.5 31.5t-19.5 44.5q0 22 8.5 39t37.5 44l66 61z" />
    <glyph glyph-name="onequarter" unicode="&#xbc;" horiz-adv-x="630" 
d="M180 293q-6 -1 -18.5 -2.5t-25.5 -1.5q-26 0 -40 8t-14 37v175l-41 -12q-11 7 -22.5 20t-11.5 34q0 31 32 44l72 26h16q24 0 38.5 -15t14.5 -38v-275zM445 617q31 -5 50.5 -17.5t21.5 -33.5q0 -15 -7.5 -30t-19.5 -33l-351 -510q-31 5 -50.5 17.5t-21.5 33.5q0 15 7.5 30
t19.5 33zM573 139h43q3 -6 6 -16.5t3 -22.5q0 -21 -9.5 -30t-23.5 -9h-19v-61q-6 -2 -18 -3t-24 -1q-24 0 -37.5 8t-13.5 35v22h-129q-13 6 -21.5 18.5t-8.5 31.5q0 14 4 24.5t10 21.5l120 159l23 4.5t28 2.5q24 0 45.5 -10.5t21.5 -39.5v-134zM483 227l-59 -88h59v88z" />
    <glyph glyph-name="onehalf" unicode="&#xbd;" horiz-adv-x="636" 
d="M180 293q-6 -1 -18.5 -2.5t-25.5 -1.5q-26 0 -40 8t-14 37v175l-41 -12q-11 7 -22.5 20t-11.5 34q0 31 32 44l72 26h16q24 0 38.5 -15t14.5 -38v-275zM445 617q31 -5 50.5 -17.5t21.5 -33.5q0 -15 -7.5 -30t-19.5 -33l-351 -510q-31 5 -50.5 17.5t-21.5 33.5q0 15 7.5 30
t19.5 33zM484 330q60 0 92.5 -28.5t32.5 -73.5q0 -31 -20.5 -59.5t-50.5 -54.5l-38 -33h104q3 -7 6.5 -17.5t3.5 -21.5q0 -22 -9.5 -31t-25.5 -9h-177q-11 8 -17.5 19.5t-6.5 27.5q0 17 4 28.5t10 19.5l72 66q15 13 24 22.5t14 16.5t6.5 12.5t1.5 10.5q0 13 -9.5 19.5
t-25.5 6.5q-22 0 -38.5 -6.5t-27.5 -13.5q-8 7 -14 18.5t-6 26.5q0 27 25.5 40.5t69.5 13.5z" />
    <glyph glyph-name="threequarters" unicode="&#xbe;" horiz-adv-x="686" 
d="M125 495q33 0 33 22q0 26 -43 26q-20 0 -36 -5.5t-29 -12.5q-24 16 -24 44q0 27 28.5 40t76.5 13q60 0 93 -25.5t33 -69.5q0 -21 -12.5 -38.5t-29.5 -27.5q20 -8 34.5 -27.5t14.5 -50.5q0 -45 -37 -71.5t-96 -26.5q-56 0 -85 16.5t-29 41.5q0 14 7.5 26.5t19.5 17.5
q16 -9 33.5 -15t41.5 -6q46 0 46 27q0 26 -38 26h-52q-4 6 -7 15.5t-3 21.5q0 14 2.5 23t7.5 16h50zM500 617q31 -5 50.5 -17.5t21.5 -33.5q0 -15 -7.5 -30t-19.5 -33l-351 -510q-31 5 -50.5 17.5t-21.5 33.5q0 15 7.5 30t19.5 33zM629 139h43q3 -6 6 -16.5t3 -22.5
q0 -21 -9.5 -30t-23.5 -9h-19v-61q-6 -2 -18 -3t-24 -1q-24 0 -37.5 8t-13.5 35v22h-129q-13 6 -21.5 18.5t-8.5 31.5q0 14 4 24.5t10 21.5l120 159l23 4.5t28 2.5q24 0 45.5 -10.5t21.5 -39.5v-134zM539 227l-59 -88h59v88z" />
    <glyph glyph-name="questiondown" unicode="&#xbf;" horiz-adv-x="439" 
d="M341 365q0 -41 -25.5 -67.5t-70.5 -26.5t-70.5 26.5t-25.5 67.5t25.5 67.5t70.5 26.5t70.5 -26.5t25.5 -67.5zM308 234q17 -9 32 -32.5t15 -55.5q0 -31 -16.5 -46.5t-48.5 -23.5l-78 -19q-50 -13 -50 -48q0 -19 18.5 -33t63.5 -14q41 0 77 10.5t58 24.5q17 -13 29 -31.5
t12 -44.5t-15 -45.5t-41.5 -32t-63.5 -18.5t-80 -6q-118 0 -178.5 52.5t-60.5 137.5q0 160 226 205z" />
    <glyph glyph-name="Agrave" unicode="&#xc0;" horiz-adv-x="627" 
d="M194 588q17 10 51.5 19t69.5 9q50 0 88.5 -14.5t49.5 -45.5q18 -52 39 -121l42 -142.5l41 -145l35 -126.5q-12 -14 -36 -22.5t-57 -8.5q-24 0 -40.5 4t-27 12t-17 21t-11.5 30l-18 69h-181l-16 -62l-16 -62q-14 -5 -29.5 -8.5t-37.5 -3.5q-51 0 -75.5 17.5t-24.5 48.5
q0 14 4 28l9 33q7 27 19.5 67l27.5 86.5l32 95.5l32 92.5l27.5 77.5zM314 459l-31.5 -93.5t-31.5 -104.5h124l-28.5 105.5l-26.5 92.5h-6zM183 726q-5 11 -6.5 22t-1.5 20q0 32 19.5 52t53.5 20q18 0 34 -6.5t36 -17.5l136 -70q1 -4 1 -8v-8q0 -35 -17.5 -56t-43.5 -21
q-25 0 -57 13z" />
    <glyph glyph-name="Aacute" unicode="&#xc1;" horiz-adv-x="627" 
d="M194 588q17 10 51.5 19t69.5 9q50 0 88.5 -14.5t49.5 -45.5q18 -52 39 -121l42 -142.5l41 -145l35 -126.5q-12 -14 -36 -22.5t-57 -8.5q-24 0 -40.5 4t-27 12t-17 21t-11.5 30l-18 69h-181l-16 -62l-16 -62q-14 -5 -29.5 -8.5t-37.5 -3.5q-51 0 -75.5 17.5t-24.5 48.5
q0 14 4 28l9 33q7 27 19.5 67l27.5 86.5l32 95.5l32 92.5l27.5 77.5zM314 459l-31.5 -93.5t-31.5 -104.5h124l-28.5 105.5l-26.5 92.5h-6zM371 851q49 -4 70 -23.5t21 -45.5q0 -29 -16.5 -46t-51.5 -31l-137 -54q-29 6 -46.5 24t-17.5 40q0 14 7.5 27t23.5 21z" />
    <glyph glyph-name="Acircumflex" unicode="&#xc2;" horiz-adv-x="627" 
d="M194 588q17 10 51.5 19t69.5 9q50 0 88.5 -14.5t49.5 -45.5q18 -52 39 -121l42 -142.5l41 -145l35 -126.5q-12 -14 -36 -22.5t-57 -8.5q-24 0 -40.5 4t-27 12t-17 21t-11.5 30l-18 69h-181l-16 -62l-16 -62q-14 -5 -29.5 -8.5t-37.5 -3.5q-51 0 -75.5 17.5t-24.5 48.5
q0 14 4 28l9 33q7 27 19.5 67l27.5 86.5l32 95.5l32 92.5l27.5 77.5zM314 459l-31.5 -93.5t-31.5 -104.5h124l-28.5 105.5l-26.5 92.5h-6zM324 734l-55 -39.5l-46 -32.5q-30 0 -50.5 17.5t-20.5 43.5q0 20 9.5 35t36.5 34l36 26q25 17 46.5 26.5t41.5 9.5q27 0 46 -9t45 -32
l81 -71q0 -34 -14.5 -55.5t-45.5 -21.5q-10 0 -18.5 2t-18.5 7t-22 14.5t-28 24.5z" />
    <glyph glyph-name="Atilde" unicode="&#xc3;" horiz-adv-x="627" 
d="M194 588q17 10 51.5 19t69.5 9q50 0 88.5 -14.5t49.5 -45.5q18 -52 39 -121l42 -142.5l41 -145l35 -126.5q-12 -14 -36 -22.5t-57 -8.5q-24 0 -40.5 4t-27 12t-17 21t-11.5 30l-18 69h-181l-16 -62l-16 -62q-14 -5 -29.5 -8.5t-37.5 -3.5q-51 0 -75.5 17.5t-24.5 48.5
q0 14 4 28l9 33q7 27 19.5 67l27.5 86.5l32 95.5l32 92.5l27.5 77.5zM314 459l-31.5 -93.5t-31.5 -104.5h124l-28.5 105.5l-26.5 92.5h-6zM322 825q18 -5 30 -8t20 -3q22 0 34 13t17 22q35 0 58.5 -22.5t23.5 -57.5q0 -45 -28 -66t-70 -21q-14 0 -28 1.5t-31 6.5l-40 12
l-23.5 6.5t-18.5 2.5q-22 0 -33.5 -12.5t-17.5 -22.5q-35 0 -58.5 22.5t-23.5 57.5q0 22 8.5 38.5t22.5 27.5t31.5 16t35.5 5q13 0 31.5 -3t59.5 -15z" />
    <glyph glyph-name="Adieresis" unicode="&#xc4;" horiz-adv-x="627" 
d="M194 588q17 10 51.5 19t69.5 9q50 0 88.5 -14.5t49.5 -45.5q18 -52 39 -121l42 -142.5l41 -145l35 -126.5q-12 -14 -36 -22.5t-57 -8.5q-24 0 -40.5 4t-27 12t-17 21t-11.5 30l-18 69h-181l-16 -62l-16 -62q-14 -5 -29.5 -8.5t-37.5 -3.5q-51 0 -75.5 17.5t-24.5 48.5
q0 14 4 28l9 33q7 27 19.5 67l27.5 86.5l32 95.5l32 92.5l27.5 77.5zM314 459l-31.5 -93.5t-31.5 -104.5h124l-28.5 105.5l-26.5 92.5h-6zM117 755q0 35 25 60.5t62 25.5q42 0 66 -25.5t24 -60.5t-24 -60.5t-66 -25.5q-18 0 -34 7t-28 18.5t-18.5 27t-6.5 33.5zM341 755
q0 35 23.5 60.5t65.5 25.5q19 0 35 -7t28 -19t18.5 -27.5t6.5 -32.5q0 -35 -25 -60.5t-63 -25.5q-42 0 -65.5 25.5t-23.5 60.5z" />
    <glyph glyph-name="Aring" unicode="&#xc5;" horiz-adv-x="627" 
d="M194 588q17 10 51.5 19t69.5 9q50 0 88.5 -14.5t49.5 -45.5q18 -52 39 -121l42 -142.5l41 -145l35 -126.5q-12 -14 -36 -22.5t-57 -8.5q-24 0 -40.5 4t-27 12t-17 21t-11.5 30l-18 69h-181l-16 -62l-16 -62q-14 -5 -29.5 -8.5t-37.5 -3.5q-51 0 -75.5 17.5t-24.5 48.5
q0 14 4 28l9 33q7 27 19.5 67l27.5 86.5l32 95.5l32 92.5l27.5 77.5zM314 459l-31.5 -93.5t-31.5 -104.5h124l-28.5 105.5l-26.5 92.5h-6zM189 754q0 47 36 78t96 31q63 0 100 -31t37 -78t-37 -77.5t-100 -30.5q-60 0 -96 30.5t-36 77.5zM290 754q0 -14 9.5 -22.5t22.5 -8.5
q15 0 24.5 8.5t9.5 22.5t-9.5 22.5t-24.5 8.5q-13 0 -22.5 -8.5t-9.5 -22.5z" />
    <glyph glyph-name="AE" unicode="&#xc6;" horiz-adv-x="875" 
d="M815 606q7 -11 12.5 -29t5.5 -38q0 -38 -16.5 -54t-43.5 -16h-211v-93h225q7 -11 12.5 -28.5t5.5 -37.5q0 -38 -16 -54t-43 -16h-184v-105h257q7 -11 12.5 -29t5.5 -38q0 -38 -16.5 -54.5t-43.5 -16.5h-292q-43 0 -68 25t-25 68v36h-153l-57 -124q-14 -5 -29.5 -8.5
t-37.5 -3.5q-46 0 -68 17.5t-22 48.5q0 14 3.5 28.5t11.5 32.5q12 28 31.5 68l41.5 85.5l45.5 93l45 90l39.5 76t29 51.5q15 11 43 20.5t63 9.5q23 0 49.5 -5t45.5 -14q22 14 51 14h291zM386 459l-86 -198h92v198h-6z" />
    <glyph glyph-name="Ccedilla" unicode="&#xc7;" horiz-adv-x="571" 
d="M374 484q-77 0 -118 -47t-41 -133q0 -87 45.5 -134t122.5 -47q41 0 69.5 11t54.5 25q17 -14 26.5 -33.5t9.5 -45.5q0 -33 -28 -58t-88 -34q8 -14 12 -36t4 -39q0 -52 -32 -86t-91 -34q-42 0 -67.5 21.5t-25.5 59.5q0 11 1.5 17.5t3.5 12.5q65 3 65 49q0 6 -1.5 15.5
t-6.5 19.5q-54 8 -100.5 31.5t-80.5 62.5t-53.5 94.5t-19.5 127.5q0 78 24.5 137.5t67 100.5t99.5 62t122 21q92 0 142.5 -30t50.5 -77q0 -26 -13 -45t-30 -30q-26 17 -55.5 29t-68.5 12z" />
    <glyph glyph-name="Egrave" unicode="&#xc8;" horiz-adv-x="541" 
d="M58 513q0 43 25 68t68 25h330q7 -11 12.5 -29t5.5 -38q0 -38 -16.5 -54t-43.5 -16h-211v-93h225q7 -11 12.5 -28.5t5.5 -37.5q0 -38 -16 -54t-43 -16h-184v-105h257q7 -11 12.5 -29t5.5 -38q0 -38 -16.5 -54.5t-43.5 -16.5h-292q-43 0 -68 25t-25 68v423zM124 726
q-5 11 -6.5 22t-1.5 20q0 32 19.5 52t53.5 20q18 0 34 -6.5t36 -17.5l136 -70q1 -4 1 -8v-8q0 -35 -17.5 -56t-43.5 -21q-25 0 -57 13z" />
    <glyph glyph-name="Eacute" unicode="&#xc9;" horiz-adv-x="541" 
d="M58 513q0 43 25 68t68 25h330q7 -11 12.5 -29t5.5 -38q0 -38 -16.5 -54t-43.5 -16h-211v-93h225q7 -11 12.5 -28.5t5.5 -37.5q0 -38 -16 -54t-43 -16h-184v-105h257q7 -11 12.5 -29t5.5 -38q0 -38 -16.5 -54.5t-43.5 -16.5h-292q-43 0 -68 25t-25 68v423zM328 851
q49 -4 70 -23.5t21 -45.5q0 -29 -16.5 -46t-51.5 -31l-137 -54q-29 6 -46.5 24t-17.5 40q0 14 7.5 27t23.5 21z" />
    <glyph glyph-name="Ecircumflex" unicode="&#xca;" horiz-adv-x="541" 
d="M58 513q0 43 25 68t68 25h330q7 -11 12.5 -29t5.5 -38q0 -38 -16.5 -54t-43.5 -16h-211v-93h225q7 -11 12.5 -28.5t5.5 -37.5q0 -38 -16 -54t-43 -16h-184v-105h257q7 -11 12.5 -29t5.5 -38q0 -38 -16.5 -54.5t-43.5 -16.5h-292q-43 0 -68 25t-25 68v423zM272 734
l-55 -39.5l-46 -32.5q-30 0 -50.5 17.5t-20.5 43.5q0 20 9.5 35t36.5 34l36 26q25 17 46.5 26.5t41.5 9.5q27 0 46 -9t45 -32l81 -71q0 -34 -14.5 -55.5t-45.5 -21.5q-10 0 -18.5 2t-18.5 7t-22 14.5t-28 24.5z" />
    <glyph glyph-name="Edieresis" unicode="&#xcb;" horiz-adv-x="541" 
d="M58 513q0 43 25 68t68 25h330q7 -11 12.5 -29t5.5 -38q0 -38 -16.5 -54t-43.5 -16h-211v-93h225q7 -11 12.5 -28.5t5.5 -37.5q0 -38 -16 -54t-43 -16h-184v-105h257q7 -11 12.5 -29t5.5 -38q0 -38 -16.5 -54.5t-43.5 -16.5h-292q-43 0 -68 25t-25 68v423zM70 757
q0 35 25 60.5t62 25.5q42 0 66 -25.5t24 -60.5t-24 -60.5t-66 -25.5q-18 0 -34 7t-28 18.5t-18.5 27t-6.5 33.5zM294 757q0 35 23.5 60.5t65.5 25.5q19 0 35 -7t28 -19t18.5 -27.5t6.5 -32.5q0 -35 -25 -60.5t-63 -25.5q-42 0 -65.5 25.5t-23.5 60.5z" />
    <glyph glyph-name="Igrave" unicode="&#xcc;" horiz-adv-x="305" 
d="M1 726q-5 11 -6.5 22t-1.5 20q0 32 19.5 52t53.5 20q18 0 34 -6.5t36 -17.5l136 -70q1 -4 1 -8v-8q0 -35 -17.5 -56t-43.5 -21q-25 0 -57 13zM240 4q-11 -3 -34.5 -6t-46.5 -3t-40.5 3.5t-29.5 12.5t-18 25t-6 42v528q11 2 35 5.5t46 3.5q23 0 40.5 -3.5t29.5 -12.5
t18 -25t6 -42v-528z" />
    <glyph glyph-name="Iacute" unicode="&#xcd;" horiz-adv-x="305" 
d="M220 851q49 -4 70 -23.5t21 -45.5q0 -29 -16.5 -46t-51.5 -31l-137 -54q-29 6 -46.5 24t-17.5 40q0 14 7.5 27t23.5 21zM240 4q-11 -3 -34.5 -6t-46.5 -3t-40.5 3.5t-29.5 12.5t-18 25t-6 42v528q11 2 35 5.5t46 3.5q23 0 40.5 -3.5t29.5 -12.5t18 -25t6 -42v-528z" />
    <glyph glyph-name="Icircumflex" unicode="&#xce;" horiz-adv-x="305" 
d="M153 734l-55 -39.5l-46 -32.5q-30 0 -50.5 17.5t-20.5 43.5q0 20 9.5 35t36.5 34l36 26q25 17 46.5 26.5t41.5 9.5q27 0 46 -9t45 -32l81 -71q0 -34 -14.5 -55.5t-45.5 -21.5q-10 0 -18.5 2t-18.5 7t-22 14.5t-28 24.5zM240 4q-11 -3 -34.5 -6t-46.5 -3t-40.5 3.5
t-29.5 12.5t-18 25t-6 42v528q11 2 35 5.5t46 3.5q23 0 40.5 -3.5t29.5 -12.5t18 -25t6 -42v-528z" />
    <glyph glyph-name="Idieresis" unicode="&#xcf;" horiz-adv-x="305" 
d="M-53 755q0 35 25 60.5t62 25.5q42 0 66 -25.5t24 -60.5t-24 -60.5t-66 -25.5q-18 0 -34 7t-28 18.5t-18.5 27t-6.5 33.5zM171 755q0 35 23.5 60.5t65.5 25.5q19 0 35 -7t28 -19t18.5 -27.5t6.5 -32.5q0 -35 -25 -60.5t-63 -25.5q-42 0 -65.5 25.5t-23.5 60.5zM240 4
q-11 -3 -34.5 -6t-46.5 -3t-40.5 3.5t-29.5 12.5t-18 25t-6 42v528q11 2 35 5.5t46 3.5q23 0 40.5 -3.5t29.5 -12.5t18 -25t6 -42v-528z" />
    <glyph glyph-name="Eth" unicode="&#xd0;" horiz-adv-x="700" 
d="M38 238q-7 11 -12.5 29t-5.5 38q0 38 17 54t43 16h19v174q0 21 11.5 32.5t31.5 18.5q43 14 91 18.5t86 4.5q78 0 141.5 -19t109 -58.5t70.5 -99.5t25 -142q0 -80 -24 -139.5t-68.5 -100t-106.5 -60.5t-137 -20q-17 0 -39 1t-45.5 4t-47 7.5t-43.5 12.5q-55 21 -55 73v156
h-61zM273 130q11 -2 27 -3.5t30 -1.5q34 0 62.5 10t49 31t32 54.5t11.5 80.5q0 90 -42 135.5t-112 45.5q-14 0 -28.5 -1t-29.5 -3v-103h95q7 -11 12.5 -29t5.5 -38q0 -38 -17 -54t-43 -16h-53v-108z" />
    <glyph glyph-name="Ntilde" unicode="&#xd1;" horiz-adv-x="665" 
d="M607 21q-14 -14 -40.5 -21.5t-63.5 -7.5t-70 11t-54 53l-99 202q-15 31 -27 58.5t-26 63.5l-6 -1q4 -54 4.5 -110t0.5 -110v-155q-11 -3 -33.5 -6t-44.5 -3t-39 3t-28 12t-17 24.5t-6 40.5v500q14 20 43 30t62 10q37 0 70.5 -11.5t53.5 -52.5l100 -202q15 -31 27 -58.5
t26 -63.5l5 1q-4 54 -5 108t-1 108v162q11 3 33.5 6t44.5 3q44 0 67 -15.5t23 -64.5v-514zM338 816q18 -5 30 -8t20 -3q22 0 34 13t17 22q35 0 58.5 -22.5t23.5 -57.5q0 -45 -28 -66t-70 -21q-14 0 -28 1.5t-31 6.5l-40 12l-23.5 6.5t-18.5 2.5q-22 0 -33.5 -12.5
t-17.5 -22.5q-35 0 -58.5 22.5t-23.5 57.5q0 22 8.5 38.5t22.5 27.5t31.5 16t35.5 5q13 0 31.5 -3t59.5 -15z" />
    <glyph glyph-name="Ograve" unicode="&#xd2;" horiz-adv-x="703" 
d="M35 304q0 78 24.5 138t67 100.5t100 61.5t124.5 21t124.5 -21t100.5 -61.5t67.5 -100.5t24.5 -138t-24 -138.5t-66.5 -101t-100.5 -61.5t-126 -21t-126 21.5t-100 62.5t-66 101t-24 137zM215 304q0 -91 37 -136t99 -45q63 0 100 45t37 136q0 90 -36.5 135t-99.5 45
q-62 0 -99.5 -44.5t-37.5 -135.5zM213 726q-5 11 -6.5 22t-1.5 20q0 32 19.5 52t53.5 20q18 0 34 -6.5t36 -17.5l136 -70q1 -4 1 -8v-8q0 -35 -17.5 -56t-43.5 -21q-25 0 -57 13z" />
    <glyph glyph-name="Oacute" unicode="&#xd3;" horiz-adv-x="703" 
d="M35 304q0 78 24.5 138t67 100.5t100 61.5t124.5 21t124.5 -21t100.5 -61.5t67.5 -100.5t24.5 -138t-24 -138.5t-66.5 -101t-100.5 -61.5t-126 -21t-126 21.5t-100 62.5t-66 101t-24 137zM215 304q0 -91 37 -136t99 -45q63 0 100 45t37 136q0 90 -36.5 135t-99.5 45
q-62 0 -99.5 -44.5t-37.5 -135.5zM406 851q49 -4 70 -23.5t21 -45.5q0 -29 -16.5 -46t-51.5 -31l-137 -54q-29 6 -46.5 24t-17.5 40q0 14 7.5 27t23.5 21z" />
    <glyph glyph-name="Ocircumflex" unicode="&#xd4;" horiz-adv-x="703" 
d="M35 304q0 78 24.5 138t67 100.5t100 61.5t124.5 21t124.5 -21t100.5 -61.5t67.5 -100.5t24.5 -138t-24 -138.5t-66.5 -101t-100.5 -61.5t-126 -21t-126 21.5t-100 62.5t-66 101t-24 137zM215 304q0 -91 37 -136t99 -45q63 0 100 45t37 136q0 90 -36.5 135t-99.5 45
q-62 0 -99.5 -44.5t-37.5 -135.5zM356 734l-55 -39.5l-46 -32.5q-30 0 -50.5 17.5t-20.5 43.5q0 20 9.5 35t36.5 34l36 26q25 17 46.5 26.5t41.5 9.5q27 0 46 -9t45 -32l81 -71q0 -34 -14.5 -55.5t-45.5 -21.5q-10 0 -18.5 2t-18.5 7t-22 14.5t-28 24.5z" />
    <glyph glyph-name="Otilde" unicode="&#xd5;" horiz-adv-x="703" 
d="M35 304q0 78 24.5 138t67 100.5t100 61.5t124.5 21t124.5 -21t100.5 -61.5t67.5 -100.5t24.5 -138t-24 -138.5t-66.5 -101t-100.5 -61.5t-126 -21t-126 21.5t-100 62.5t-66 101t-24 137zM215 304q0 -91 37 -136t99 -45q63 0 100 45t37 136q0 90 -36.5 135t-99.5 45
q-62 0 -99.5 -44.5t-37.5 -135.5zM357 825q18 -5 30 -8t20 -3q22 0 34 13t17 22q35 0 58.5 -22.5t23.5 -57.5q0 -45 -28 -66t-70 -21q-14 0 -28 1.5t-31 6.5l-40 12l-23.5 6.5t-18.5 2.5q-22 0 -33.5 -12.5t-17.5 -22.5q-35 0 -58.5 22.5t-23.5 57.5q0 22 8.5 38.5
t22.5 27.5t31.5 16t35.5 5q13 0 31.5 -3t59.5 -15z" />
    <glyph glyph-name="Odieresis" unicode="&#xd6;" horiz-adv-x="703" 
d="M35 304q0 78 24.5 138t67 100.5t100 61.5t124.5 21t124.5 -21t100.5 -61.5t67.5 -100.5t24.5 -138t-24 -138.5t-66.5 -101t-100.5 -61.5t-126 -21t-126 21.5t-100 62.5t-66 101t-24 137zM215 304q0 -91 37 -136t99 -45q63 0 100 45t37 136q0 90 -36.5 135t-99.5 45
q-62 0 -99.5 -44.5t-37.5 -135.5zM149 755q0 35 25 60.5t62 25.5q42 0 66 -25.5t24 -60.5t-24 -60.5t-66 -25.5q-18 0 -34 7t-28 18.5t-18.5 27t-6.5 33.5zM373 755q0 35 23.5 60.5t65.5 25.5q19 0 35 -7t28 -19t18.5 -27.5t6.5 -32.5q0 -35 -25 -60.5t-63 -25.5
q-42 0 -65.5 25.5t-23.5 60.5z" />
    <glyph glyph-name="multiply" unicode="&#xd7;" horiz-adv-x="504" 
d="M379 505q31 -10 55 -34t24 -53q0 -12 -6 -24.5t-20 -26.5l-79 -82l123 -142q-11 -35 -34 -55.5t-56 -20.5q-11 0 -26.5 6.5t-26.5 20.5l-83 100l-124 -134q-20 3 -37 11.5t-29.5 20t-19.5 25t-7 26.5q0 21 26 48l93 100l-124 127q4 15 12.5 30t20.5 26.5t26 18.5t29 7
q27 0 46 -22l94 -102z" />
    <glyph glyph-name="Oslash" unicode="&#xd8;" horiz-adv-x="703" 
d="M35 304q0 78 24.5 138t67 100.5t100 61.5t124.5 21q61 0 114 -18l42 70q40 0 65 -17.5t25 -40.5q0 -16 -8.5 -34.5t-19.5 -35.5q46 -42 72.5 -103t26.5 -142q0 -78 -24 -138.5t-66.5 -101t-100.5 -61.5t-126 -21q-63 0 -117 18l-41 -69q-42 0 -66 18t-24 43q0 14 8.5 33
t18.5 36q-45 42 -70 102.5t-25 140.5zM351 123q63 0 102.5 45t39.5 136q0 28 -4 51t-12 43l-164 -271q16 -4 38 -4zM210 304q0 -29 4 -52.5t12 -43.5l163 271q-20 5 -37 5q-62 0 -102 -45t-40 -135z" />
    <glyph glyph-name="Ugrave" unicode="&#xd9;" horiz-adv-x="664" 
d="M602 224q0 -54 -18.5 -98.5t-53.5 -76t-85 -48.5t-113 -17t-113 17t-85 48.5t-53.5 76t-18.5 98.5v382q11 2 35 5.5t46 3.5q23 0 40.5 -3.5t29.5 -12.5t18 -25t6 -42v-305q0 -48 26.5 -75t68.5 -27q43 0 69 27t26 75v379q11 2 35 5.5t46 3.5q23 0 40.5 -3.5t29.5 -12.5
t18 -25t6 -42v-308zM181 726q-5 11 -6.5 22t-1.5 20q0 32 19.5 52t53.5 20q18 0 34 -6.5t36 -17.5l136 -70q1 -4 1 -8v-8q0 -35 -17.5 -56t-43.5 -21q-25 0 -57 13z" />
    <glyph glyph-name="Uacute" unicode="&#xda;" horiz-adv-x="664" 
d="M602 224q0 -54 -18.5 -98.5t-53.5 -76t-85 -48.5t-113 -17t-113 17t-85 48.5t-53.5 76t-18.5 98.5v382q11 2 35 5.5t46 3.5q23 0 40.5 -3.5t29.5 -12.5t18 -25t6 -42v-305q0 -48 26.5 -75t68.5 -27q43 0 69 27t26 75v379q11 2 35 5.5t46 3.5q23 0 40.5 -3.5t29.5 -12.5
t18 -25t6 -42v-308zM389 851q49 -4 70 -23.5t21 -45.5q0 -29 -16.5 -46t-51.5 -31l-137 -54q-29 6 -46.5 24t-17.5 40q0 14 7.5 27t23.5 21z" />
    <glyph glyph-name="Ucircumflex" unicode="&#xdb;" horiz-adv-x="664" 
d="M602 224q0 -54 -18.5 -98.5t-53.5 -76t-85 -48.5t-113 -17t-113 17t-85 48.5t-53.5 76t-18.5 98.5v382q11 2 35 5.5t46 3.5q23 0 40.5 -3.5t29.5 -12.5t18 -25t6 -42v-305q0 -48 26.5 -75t68.5 -27q43 0 69 27t26 75v379q11 2 35 5.5t46 3.5q23 0 40.5 -3.5t29.5 -12.5
t18 -25t6 -42v-308zM337 734l-55 -39.5l-46 -32.5q-30 0 -50.5 17.5t-20.5 43.5q0 20 9.5 35t36.5 34l36 26q25 17 46.5 26.5t41.5 9.5q27 0 46 -9t45 -32l81 -71q0 -34 -14.5 -55.5t-45.5 -21.5q-10 0 -18.5 2t-18.5 7t-22 14.5t-28 24.5z" />
    <glyph glyph-name="Udieresis" unicode="&#xdc;" horiz-adv-x="664" 
d="M602 224q0 -54 -18.5 -98.5t-53.5 -76t-85 -48.5t-113 -17t-113 17t-85 48.5t-53.5 76t-18.5 98.5v382q11 2 35 5.5t46 3.5q23 0 40.5 -3.5t29.5 -12.5t18 -25t6 -42v-305q0 -48 26.5 -75t68.5 -27q43 0 69 27t26 75v379q11 2 35 5.5t46 3.5q23 0 40.5 -3.5t29.5 -12.5
t18 -25t6 -42v-308zM129 755q0 35 25 60.5t62 25.5q42 0 66 -25.5t24 -60.5t-24 -60.5t-66 -25.5q-18 0 -34 7t-28 18.5t-18.5 27t-6.5 33.5zM353 755q0 35 23.5 60.5t65.5 25.5q19 0 35 -7t28 -19t18.5 -27.5t6.5 -32.5q0 -35 -25 -60.5t-63 -25.5q-42 0 -65.5 25.5
t-23.5 60.5z" />
    <glyph glyph-name="Yacute" unicode="&#xdd;" horiz-adv-x="574" 
d="M383 4q-11 -3 -34 -6t-45 -3q-46 0 -69 15.5t-23 65.5v135l-54 82l-57 92t-52 92.5t-39 83.5q13 18 35.5 33t55.5 15q39 0 63.5 -16t46.5 -60l83 -167h6q14 31 24.5 56.5l20.5 51l21 53l25 63.5q18 9 40 14t42 5q35 0 59.5 -18.5t24.5 -55.5q0 -12 -5 -29t-23 -51.5
t-52.5 -93.5l-93.5 -154v-203zM355 851q49 -4 70 -23.5t21 -45.5q0 -29 -16.5 -46t-51.5 -31l-137 -54q-29 6 -46.5 24t-17.5 40q0 14 7.5 27t23.5 21z" />
    <glyph glyph-name="Thorn" unicode="&#xde;" horiz-adv-x="597" 
d="M234 386v-158h53q42 0 64.5 19.5t22.5 59.5t-22.5 59.5t-64.5 19.5h-53zM235 523h71q61 0 107.5 -15.5t77 -44t46 -68t15.5 -88.5t-15.5 -88.5t-46 -68t-77 -44t-107.5 -15.5h-71v-90q-11 -3 -34.5 -6t-46.5 -3t-40.5 3.5t-29.5 12.5t-18 25t-6 42v539q11 3 34.5 6
t46.5 3t40.5 -3.5t29.5 -12.5t18 -25t6 -42v-17z" />
    <glyph glyph-name="germandbls" unicode="&#xdf;" horiz-adv-x="624" 
d="M54 436q0 54 19 94.5t53 67.5t79.5 40t98.5 13q55 0 101 -14.5t79.5 -42t52.5 -67t19 -89.5q0 -25 -7.5 -41.5t-27.5 -24.5l-44 -18q-28 -11 -28 -34q0 -11 7.5 -18.5t19.5 -12.5q27 -12 49 -26t37 -32t23.5 -40.5t8.5 -51.5q0 -40 -15.5 -69.5t-42 -48.5t-60.5 -28.5
t-70 -9.5q-60 0 -96.5 19t-36.5 57q0 23 9.5 39t23.5 26q14 -8 31 -13t37 -5t33 7.5t13 21.5t-10 23t-30 20q-52 28 -78.5 60t-26.5 84q0 44 30 74t81 47q-3 33 -24.5 51.5t-55.5 18.5q-36 0 -59 -22t-23 -65v-425q-10 -3 -31.5 -6t-44.5 -3q-22 0 -39.5 3t-29.5 12
t-18.5 24.5t-6.5 40.5v364z" />
    <glyph glyph-name="agrave" unicode="&#xe0;" horiz-adv-x="544" 
d="M260 108q17 0 37.5 3.5t30.5 9.5v80l-72 -6q-28 -2 -46 -12t-18 -30t15.5 -32.5t52.5 -12.5zM252 501q54 0 98.5 -11t76 -33.5t48.5 -57t17 -81.5v-224q0 -26 -14.5 -42.5t-34.5 -28.5q-65 -39 -183 -39q-53 0 -95.5 10t-73 30t-47 51t-16.5 72q0 69 41 106t127 46
l131 14v7q0 29 -25.5 41.5t-73.5 12.5q-38 0 -74 -8t-65 -20q-13 9 -22 27.5t-9 38.5q0 26 12.5 41.5t38.5 26.5q29 11 68.5 16t74.5 5zM133 643q-2 10 -2 20q0 38 19 61t52 23q25 0 42 -10t38 -28l113 -95q-2 -38 -21.5 -61t-44.5 -23q-16 0 -32 6.5t-32 17.5z" />
    <glyph glyph-name="aacute" unicode="&#xe1;" horiz-adv-x="544" 
d="M260 108q17 0 37.5 3.5t30.5 9.5v80l-72 -6q-28 -2 -46 -12t-18 -30t15.5 -32.5t52.5 -12.5zM252 501q54 0 98.5 -11t76 -33.5t48.5 -57t17 -81.5v-224q0 -26 -14.5 -42.5t-34.5 -28.5q-65 -39 -183 -39q-53 0 -95.5 10t-73 30t-47 51t-16.5 72q0 69 41 106t127 46
l131 14v7q0 29 -25.5 41.5t-73.5 12.5q-38 0 -74 -8t-65 -20q-13 9 -22 27.5t-9 38.5q0 26 12.5 41.5t38.5 26.5q29 11 68.5 16t74.5 5zM288 744q52 0 75.5 -20t23.5 -48q0 -26 -14 -43.5t-46 -34.5l-129 -68q-30 3 -51 24t-21 45q0 12 6 24t20 22z" />
    <glyph glyph-name="acircumflex" unicode="&#xe2;" horiz-adv-x="544" 
d="M260 108q17 0 37.5 3.5t30.5 9.5v80l-72 -6q-28 -2 -46 -12t-18 -30t15.5 -32.5t52.5 -12.5zM252 501q54 0 98.5 -11t76 -33.5t48.5 -57t17 -81.5v-224q0 -26 -14.5 -42.5t-34.5 -28.5q-65 -39 -183 -39q-53 0 -95.5 10t-73 30t-47 51t-16.5 72q0 69 41 106t127 46
l131 14v7q0 29 -25.5 41.5t-73.5 12.5q-38 0 -74 -8t-65 -20q-13 9 -22 27.5t-9 38.5q0 26 12.5 41.5t38.5 26.5q29 11 68.5 16t74.5 5zM270 622q-34 -29 -53 -47l-38 -35q-39 0 -62 18.5t-23 47.5q0 20 11 36t37 35l49 35q24 17 43.5 24.5t39.5 7.5q13 0 23.5 -1.5t21.5 -7
t24 -16l33 -27.5l70 -62q1 -5 1.5 -9t0.5 -9q0 -31 -16.5 -50.5t-47.5 -19.5q-10 0 -18 1.5t-16.5 6.5t-19.5 14.5t-26 25.5z" />
    <glyph glyph-name="atilde" unicode="&#xe3;" horiz-adv-x="544" 
d="M260 108q17 0 37.5 3.5t30.5 9.5v80l-72 -6q-28 -2 -46 -12t-18 -30t15.5 -32.5t52.5 -12.5zM252 501q54 0 98.5 -11t76 -33.5t48.5 -57t17 -81.5v-224q0 -26 -14.5 -42.5t-34.5 -28.5q-65 -39 -183 -39q-53 0 -95.5 10t-73 30t-47 51t-16.5 72q0 69 41 106t127 46
l131 14v7q0 29 -25.5 41.5t-73.5 12.5q-38 0 -74 -8t-65 -20q-13 9 -22 27.5t-9 38.5q0 26 12.5 41.5t38.5 26.5q29 11 68.5 16t74.5 5zM274 697q18 -5 30 -8t20 -3q22 0 34 13t17 22q35 0 58.5 -22.5t23.5 -57.5q0 -45 -28 -66t-70 -21q-14 0 -28 1.5t-31 6.5l-40 12
l-23.5 6.5t-18.5 2.5q-22 0 -33.5 -12.5t-17.5 -22.5q-35 0 -58.5 22.5t-23.5 57.5q0 22 8.5 38.5t22.5 27.5t31.5 16t35.5 5q13 0 31.5 -3t59.5 -15z" />
    <glyph glyph-name="adieresis" unicode="&#xe4;" horiz-adv-x="544" 
d="M260 108q17 0 37.5 3.5t30.5 9.5v80l-72 -6q-28 -2 -46 -12t-18 -30t15.5 -32.5t52.5 -12.5zM252 501q54 0 98.5 -11t76 -33.5t48.5 -57t17 -81.5v-224q0 -26 -14.5 -42.5t-34.5 -28.5q-65 -39 -183 -39q-53 0 -95.5 10t-73 30t-47 51t-16.5 72q0 69 41 106t127 46
l131 14v7q0 29 -25.5 41.5t-73.5 12.5q-38 0 -74 -8t-65 -20q-13 9 -22 27.5t-9 38.5q0 26 12.5 41.5t38.5 26.5q29 11 68.5 16t74.5 5zM75 637q0 35 25 60.5t62 25.5q42 0 66 -25.5t24 -60.5t-24 -60.5t-66 -25.5q-18 0 -34 7t-28 18.5t-18.5 27t-6.5 33.5zM299 637
q0 35 23.5 60.5t65.5 25.5q19 0 35 -7t28 -19t18.5 -27.5t6.5 -32.5q0 -35 -25 -60.5t-63 -25.5q-42 0 -65.5 25.5t-23.5 60.5z" />
    <glyph glyph-name="aring" unicode="&#xe5;" horiz-adv-x="544" 
d="M260 108q17 0 37.5 3.5t30.5 9.5v80l-72 -6q-28 -2 -46 -12t-18 -30t15.5 -32.5t52.5 -12.5zM252 501q54 0 98.5 -11t76 -33.5t48.5 -57t17 -81.5v-224q0 -26 -14.5 -42.5t-34.5 -28.5q-65 -39 -183 -39q-53 0 -95.5 10t-73 30t-47 51t-16.5 72q0 69 41 106t127 46
l131 14v7q0 29 -25.5 41.5t-73.5 12.5q-38 0 -74 -8t-65 -20q-13 9 -22 27.5t-9 38.5q0 26 12.5 41.5t38.5 26.5q29 11 68.5 16t74.5 5zM136 641q0 47 35.5 79.5t96.5 32.5q65 0 101 -32.5t36 -79.5t-36 -79t-101 -32q-61 0 -96.5 32t-35.5 79zM237 641q0 -16 9.5 -25
t22.5 -9q15 0 24.5 9t9.5 25t-9.5 25t-24.5 9q-13 0 -22.5 -9t-9.5 -25z" />
    <glyph glyph-name="ae" unicode="&#xe6;" horiz-adv-x="833" 
d="M592 -16q-46 0 -87 12t-73 35q-38 -26 -84 -36.5t-92 -10.5q-51 0 -93 10t-72 30t-46.5 51t-16.5 72q0 69 41 105t127 47l114 14v7q0 29 -23.5 41.5t-63.5 12.5q-36 0 -70.5 -8t-63.5 -20q-13 9 -22 27.5t-9 38.5q0 26 12.5 41.5t38.5 26.5q29 11 66.5 16t71.5 5
q52 0 94.5 -13t71.5 -40q32 27 70.5 40t80.5 13q53 0 96.5 -16t75 -44t49 -67t17.5 -85q0 -34 -19 -52t-53 -23l-247 -37q11 -33 45 -49.5t78 -16.5q41 0 77.5 10.5t59.5 24.5q16 -10 27 -28t11 -38q0 -45 -42 -67q-32 -17 -72 -23t-75 -6zM564 377q-24 0 -41.5 -8
t-28.5 -20.5t-16.5 -28t-6.5 -31.5l171 28q-3 20 -22 40t-56 20zM256 108q14 0 31 4t24 9v80l-55 -6q-28 -3 -46 -12.5t-18 -29.5t14.5 -32.5t49.5 -12.5z" />
    <glyph glyph-name="ccedilla" unicode="&#xe7;" horiz-adv-x="494" 
d="M231 -7q-46 10 -83 32t-63 54t-40 72.5t-14 88.5q0 66 21.5 115.5t58.5 81.5t85.5 48t102.5 16q72 0 111 -26t39 -67q0 -19 -9 -35.5t-21 -28.5q-17 8 -41 15.5t-52 7.5q-25 0 -47.5 -8t-39 -23.5t-26.5 -38.5t-10 -54q0 -62 35.5 -93t86.5 -31q30 0 52 7t39 15
q20 -14 30 -30.5t10 -39.5q0 -31 -23.5 -52t-66.5 -29q8 -14 12 -37t4 -40q0 -51 -32 -84.5t-89 -33.5q-41 0 -67 20.5t-26 58.5q0 17 4 30q32 2 50 15.5t18 36.5q0 10 -2.5 19.5t-6.5 17.5z" />
    <glyph glyph-name="egrave" unicode="&#xe8;" horiz-adv-x="550" 
d="M309 -16q-59 0 -109.5 16.5t-88 49.5t-59 83t-21.5 117q0 66 21.5 113.5t56.5 78t80 45t92 14.5q53 0 96.5 -16t75 -44t49 -67t17.5 -85q0 -34 -19 -52t-53 -23l-247 -37q11 -33 45 -49.5t78 -16.5q41 0 77.5 10.5t59.5 24.5q16 -10 27 -28t11 -38q0 -45 -42 -67
q-32 -17 -72 -23t-75 -6zM281 377q-24 0 -41.5 -8t-28.5 -20.5t-16.5 -28t-6.5 -31.5l171 28q-3 20 -22 40t-56 20zM135 643q-2 10 -2 20q0 38 19 61t52 23q25 0 42 -10t38 -28l113 -95q-2 -38 -21.5 -61t-44.5 -23q-16 0 -32 6.5t-32 17.5z" />
    <glyph glyph-name="eacute" unicode="&#xe9;" horiz-adv-x="550" 
d="M309 -16q-59 0 -109.5 16.5t-88 49.5t-59 83t-21.5 117q0 66 21.5 113.5t56.5 78t80 45t92 14.5q53 0 96.5 -16t75 -44t49 -67t17.5 -85q0 -34 -19 -52t-53 -23l-247 -37q11 -33 45 -49.5t78 -16.5q41 0 77.5 10.5t59.5 24.5q16 -10 27 -28t11 -38q0 -45 -42 -67
q-32 -17 -72 -23t-75 -6zM281 377q-24 0 -41.5 -8t-28.5 -20.5t-16.5 -28t-6.5 -31.5l171 28q-3 20 -22 40t-56 20zM299 744q52 0 75.5 -20t23.5 -48q0 -26 -14 -43.5t-46 -34.5l-129 -68q-30 3 -51 24t-21 45q0 12 6 24t20 22z" />
    <glyph glyph-name="ecircumflex" unicode="&#xea;" horiz-adv-x="550" 
d="M309 -16q-59 0 -109.5 16.5t-88 49.5t-59 83t-21.5 117q0 66 21.5 113.5t56.5 78t80 45t92 14.5q53 0 96.5 -16t75 -44t49 -67t17.5 -85q0 -34 -19 -52t-53 -23l-247 -37q11 -33 45 -49.5t78 -16.5q41 0 77.5 10.5t59.5 24.5q16 -10 27 -28t11 -38q0 -45 -42 -67
q-32 -17 -72 -23t-75 -6zM281 377q-24 0 -41.5 -8t-28.5 -20.5t-16.5 -28t-6.5 -31.5l171 28q-3 20 -22 40t-56 20zM268 622q-34 -29 -53 -47l-38 -35q-39 0 -62 18.5t-23 47.5q0 20 11 36t37 35l49 35q24 17 43.5 24.5t39.5 7.5q13 0 23.5 -1.5t21.5 -7t24 -16l33 -27.5
l70 -62q1 -5 1.5 -9t0.5 -9q0 -31 -16.5 -50.5t-47.5 -19.5q-10 0 -18 1.5t-16.5 6.5t-19.5 14.5t-26 25.5z" />
    <glyph glyph-name="edieresis" unicode="&#xeb;" horiz-adv-x="550" 
d="M309 -16q-59 0 -109.5 16.5t-88 49.5t-59 83t-21.5 117q0 66 21.5 113.5t56.5 78t80 45t92 14.5q53 0 96.5 -16t75 -44t49 -67t17.5 -85q0 -34 -19 -52t-53 -23l-247 -37q11 -33 45 -49.5t78 -16.5q41 0 77.5 10.5t59.5 24.5q16 -10 27 -28t11 -38q0 -45 -42 -67
q-32 -17 -72 -23t-75 -6zM281 377q-24 0 -41.5 -8t-28.5 -20.5t-16.5 -28t-6.5 -31.5l171 28q-3 20 -22 40t-56 20zM72 637q0 35 25 60.5t62 25.5q42 0 66 -25.5t24 -60.5t-24 -60.5t-66 -25.5q-18 0 -34 7t-28 18.5t-18.5 27t-6.5 33.5zM296 637q0 35 23.5 60.5t65.5 25.5
q19 0 35 -7t28 -19t18.5 -27.5t6.5 -32.5q0 -35 -25 -60.5t-63 -25.5q-42 0 -65.5 25.5t-23.5 60.5z" />
    <glyph glyph-name="igrave" unicode="&#xec;" horiz-adv-x="282" 
d="M-22 643q-2 10 -2 20q0 38 19 61t52 23q25 0 42 -10t38 -28l113 -95q-2 -38 -21.5 -61t-44.5 -23q-16 0 -32 6.5t-32 17.5zM226 1q-11 -2 -32.5 -5.5t-43.5 -3.5t-39.5 3t-29.5 12t-18.5 24.5t-6.5 40.5v407q11 2 32.5 5.5t43.5 3.5t39.5 -3t29.5 -12t18.5 -24.5
t6.5 -40.5v-407z" />
    <glyph glyph-name="iacute" unicode="&#xed;" horiz-adv-x="282" 
d="M202 744q52 0 75.5 -20t23.5 -48q0 -26 -14 -43.5t-46 -34.5l-129 -68q-30 3 -51 24t-21 45q0 12 6 24t20 22zM226 1q-11 -2 -32.5 -5.5t-43.5 -3.5t-39.5 3t-29.5 12t-18.5 24.5t-6.5 40.5v407q11 2 32.5 5.5t43.5 3.5t39.5 -3t29.5 -12t18.5 -24.5t6.5 -40.5v-407z" />
    <glyph glyph-name="icircumflex" unicode="&#xee;" horiz-adv-x="282" 
d="M226 1q-11 -2 -32.5 -5.5t-43.5 -3.5t-39.5 3t-29.5 12t-18.5 24.5t-6.5 40.5v407q11 2 32.5 5.5t43.5 3.5t39.5 -3t29.5 -12t18.5 -24.5t6.5 -40.5v-407zM140 622q-34 -29 -53 -47l-38 -35q-39 0 -62 18.5t-23 47.5q0 20 11 36t37 35l49 35q24 17 43.5 24.5t39.5 7.5
q13 0 23.5 -1.5t21.5 -7t24 -16l33 -27.5l70 -62q1 -5 1.5 -9t0.5 -9q0 -31 -16.5 -50.5t-47.5 -19.5q-10 0 -18 1.5t-16.5 6.5t-19.5 14.5t-26 25.5z" />
    <glyph glyph-name="idieresis" unicode="&#xef;" horiz-adv-x="282" 
d="M-61 637q0 35 25 60.5t62 25.5q42 0 66 -25.5t24 -60.5t-24 -60.5t-66 -25.5q-18 0 -34 7t-28 18.5t-18.5 27t-6.5 33.5zM163 637q0 35 23.5 60.5t65.5 25.5q19 0 35 -7t28 -19t18.5 -27.5t6.5 -32.5q0 -35 -25 -60.5t-63 -25.5q-42 0 -65.5 25.5t-23.5 60.5zM226 1
q-11 -2 -32.5 -5.5t-43.5 -3.5t-39.5 3t-29.5 12t-18.5 24.5t-6.5 40.5v407q11 2 32.5 5.5t43.5 3.5t39.5 -3t29.5 -12t18.5 -24.5t6.5 -40.5v-407z" />
    <glyph glyph-name="eth" unicode="&#xf0;" horiz-adv-x="585" 
d="M553 260q0 -60 -15 -110.5t-46.5 -87t-81 -57.5t-117.5 -21q-61 0 -109.5 17t-82.5 48.5t-52 76t-18 100.5q0 58 20 101t53 72t75 43.5t86 14.5q21 0 42.5 -3t35.5 -10q-6 17 -13 32.5t-17 30.5l-137 -39q-11 9 -19.5 26.5t-8.5 37.5q0 37 33 46l50 15q-11 11 -20.5 19
l-20.5 18q11 42 39 61.5t63 19.5q34 0 60.5 -16t49.5 -39l103 32q14 -10 26 -30.5t12 -40.5q0 -23 -9.5 -34.5t-26.5 -17.5l-30 -11q14 -25 27.5 -57t24.5 -69.5t17.5 -80t6.5 -87.5zM298 330q-45 0 -69 -29t-24 -75q0 -51 22 -79.5t67 -28.5q43 0 63.5 29.5t20.5 80.5
q0 17 -1.5 35.5t-5.5 37.5q-29 29 -73 29z" />
    <glyph glyph-name="ntilde" unicode="&#xf1;" horiz-adv-x="583" 
d="M360 308q0 31 -17.5 45.5t-47.5 14.5q-20 0 -39.5 -5t-33.5 -15v-347q-10 -3 -31.5 -6t-44.5 -3q-22 0 -39.5 3t-29.5 12t-18.5 24.5t-6.5 40.5v300q0 27 11.5 44t31.5 31q34 24 85.5 39t114.5 15q113 0 174 -49.5t61 -137.5v-313q-10 -3 -31.5 -6t-44.5 -3
q-22 0 -39.5 3t-29.5 12t-18.5 24.5t-6.5 40.5v236zM296 697q18 -5 30 -8t20 -3q22 0 34 13t17 22q35 0 58.5 -22.5t23.5 -57.5q0 -45 -28 -66t-70 -21q-14 0 -28 1.5t-31 6.5l-40 12l-23.5 6.5t-18.5 2.5q-22 0 -33.5 -12.5t-17.5 -22.5q-35 0 -58.5 22.5t-23.5 57.5
q0 22 8.5 38.5t22.5 27.5t31.5 16t35.5 5q13 0 31.5 -3t59.5 -15z" />
    <glyph glyph-name="ograve" unicode="&#xf2;" horiz-adv-x="586" 
d="M160 643q-2 10 -2 20q0 38 19 61t52 23q25 0 42 -10t38 -28l113 -95q-2 -38 -21.5 -61t-44.5 -23q-16 0 -32 6.5t-32 17.5zM555 243q0 -62 -19 -110.5t-53.5 -81.5t-82.5 -50t-107 -17t-107 18t-82.5 51.5t-53.5 81.5t-19 108q0 59 19 107t53.5 81.5t82.5 51.5t107 18
t107 -18.5t82.5 -52t53.5 -81.5t19 -106zM205 243q0 -61 23.5 -93.5t65.5 -32.5t64.5 33t22.5 93t-23 92.5t-65 32.5t-65 -32.5t-23 -92.5z" />
    <glyph glyph-name="oacute" unicode="&#xf3;" horiz-adv-x="586" 
d="M324 744q52 0 75.5 -20t23.5 -48q0 -26 -14 -43.5t-46 -34.5l-129 -68q-30 3 -51 24t-21 45q0 12 6 24t20 22zM555 243q0 -62 -19 -110.5t-53.5 -81.5t-82.5 -50t-107 -17t-107 18t-82.5 51.5t-53.5 81.5t-19 108q0 59 19 107t53.5 81.5t82.5 51.5t107 18t107 -18.5
t82.5 -52t53.5 -81.5t19 -106zM205 243q0 -61 23.5 -93.5t65.5 -32.5t64.5 33t22.5 93t-23 92.5t-65 32.5t-65 -32.5t-23 -92.5z" />
    <glyph glyph-name="ocircumflex" unicode="&#xf4;" horiz-adv-x="586" 
d="M290 622q-34 -29 -53 -47l-38 -35q-39 0 -62 18.5t-23 47.5q0 20 11 36t37 35l49 35q24 17 43.5 24.5t39.5 7.5q13 0 23.5 -1.5t21.5 -7t24 -16l33 -27.5l70 -62q1 -5 1.5 -9t0.5 -9q0 -31 -16.5 -50.5t-47.5 -19.5q-10 0 -18 1.5t-16.5 6.5t-19.5 14.5t-26 25.5z
M555 243q0 -62 -19 -110.5t-53.5 -81.5t-82.5 -50t-107 -17t-107 18t-82.5 51.5t-53.5 81.5t-19 108q0 59 19 107t53.5 81.5t82.5 51.5t107 18t107 -18.5t82.5 -52t53.5 -81.5t19 -106zM205 243q0 -61 23.5 -93.5t65.5 -32.5t64.5 33t22.5 93t-23 92.5t-65 32.5t-65 -32.5
t-23 -92.5z" />
    <glyph glyph-name="otilde" unicode="&#xf5;" horiz-adv-x="586" 
d="M555 243q0 -62 -19 -110.5t-53.5 -81.5t-82.5 -50t-107 -17t-107 18t-82.5 51.5t-53.5 81.5t-19 108q0 59 19 107t53.5 81.5t82.5 51.5t107 18t107 -18.5t82.5 -52t53.5 -81.5t19 -106zM205 243q0 -61 23.5 -93.5t65.5 -32.5t64.5 33t22.5 93t-23 92.5t-65 32.5
t-65 -32.5t-23 -92.5zM298 697q18 -5 30 -8t20 -3q22 0 34 13t17 22q35 0 58.5 -22.5t23.5 -57.5q0 -45 -28 -66t-70 -21q-14 0 -28 1.5t-31 6.5l-40 12l-23.5 6.5t-18.5 2.5q-22 0 -33.5 -12.5t-17.5 -22.5q-35 0 -58.5 22.5t-23.5 57.5q0 22 8.5 38.5t22.5 27.5t31.5 16
t35.5 5q13 0 31.5 -3t59.5 -15z" />
    <glyph glyph-name="odieresis" unicode="&#xf6;" horiz-adv-x="586" 
d="M92 637q0 35 25 60.5t62 25.5q42 0 66 -25.5t24 -60.5t-24 -60.5t-66 -25.5q-18 0 -34 7t-28 18.5t-18.5 27t-6.5 33.5zM316 637q0 35 23.5 60.5t65.5 25.5q19 0 35 -7t28 -19t18.5 -27.5t6.5 -32.5q0 -35 -25 -60.5t-63 -25.5q-42 0 -65.5 25.5t-23.5 60.5zM555 243
q0 -62 -19 -110.5t-53.5 -81.5t-82.5 -50t-107 -17t-107 18t-82.5 51.5t-53.5 81.5t-19 108q0 59 19 107t53.5 81.5t82.5 51.5t107 18t107 -18.5t82.5 -52t53.5 -81.5t19 -106zM205 243q0 -61 23.5 -93.5t65.5 -32.5t64.5 33t22.5 93t-23 92.5t-65 32.5t-65 -32.5t-23 -92.5
z" />
    <glyph glyph-name="divide" unicode="&#xf7;" horiz-adv-x="525" 
d="M188 458q0 33 21.5 56.5t56.5 23.5q36 0 57.5 -23.5t21.5 -56.5q0 -32 -21.5 -55.5t-57.5 -23.5q-35 0 -56.5 23.5t-21.5 55.5zM188 121q0 32 21.5 55.5t56.5 23.5q36 0 57.5 -23.5t21.5 -55.5q0 -33 -21.5 -56.5t-57.5 -23.5q-35 0 -56.5 23.5t-21.5 56.5zM46 222
q-7 11 -11.5 29t-4.5 36q0 36 16 52.5t43 16.5h390q5 -12 10.5 -29.5t5.5 -36.5q0 -35 -16 -51.5t-42 -16.5h-391z" />
    <glyph glyph-name="oslash" unicode="&#xf8;" horiz-adv-x="586" 
d="M555 243q0 -62 -19 -110.5t-53.5 -81.5t-82.5 -50t-107 -17q-30 0 -57.5 5t-51.5 13l-43 -63q-10 0 -21.5 4t-21.5 11t-16.5 15.5t-6.5 17.5q0 8 8 22l26 38q-38 33 -58 83t-20 113q0 59 19 107t53.5 81.5t82.5 51.5t107 18t110 -20l44 66q9 0 20.5 -3.5t21.5 -10
t17 -15.5t7 -19t-7 -21l-29 -42q37 -34 57.5 -83t20.5 -110zM193 243q0 -36 9 -61l124 183q-17 5 -33 5q-46 0 -73 -33.5t-27 -93.5zM294 115q46 0 72.5 34t26.5 94q0 34 -9 60l-123 -183q8 -3 16 -4t17 -1z" />
    <glyph glyph-name="ugrave" unicode="&#xf9;" horiz-adv-x="582" 
d="M52 479q10 3 31.5 6t44.5 3q22 0 39.5 -3t29.5 -12t18.5 -24.5t6.5 -40.5v-215q0 -41 20 -58.5t58 -17.5q23 0 37.5 4t22.5 8v350q10 3 31.5 6t44.5 3q22 0 39.5 -3t29.5 -12t18.5 -24.5t6.5 -40.5v-304q0 -50 -42 -75q-35 -22 -83.5 -33.5t-105.5 -11.5q-54 0 -99.5 12
t-78.5 37t-51 64.5t-18 95.5v286zM157 643q-2 10 -2 20q0 38 19 61t52 23q25 0 42 -10t38 -28l113 -95q-2 -38 -21.5 -61t-44.5 -23q-16 0 -32 6.5t-32 17.5z" />
    <glyph glyph-name="uacute" unicode="&#xfa;" horiz-adv-x="582" 
d="M52 479q10 3 31.5 6t44.5 3q22 0 39.5 -3t29.5 -12t18.5 -24.5t6.5 -40.5v-215q0 -41 20 -58.5t58 -17.5q23 0 37.5 4t22.5 8v350q10 3 31.5 6t44.5 3q22 0 39.5 -3t29.5 -12t18.5 -24.5t6.5 -40.5v-304q0 -50 -42 -75q-35 -22 -83.5 -33.5t-105.5 -11.5q-54 0 -99.5 12
t-78.5 37t-51 64.5t-18 95.5v286zM323 744q52 0 75.5 -20t23.5 -48q0 -26 -14 -43.5t-46 -34.5l-129 -68q-30 3 -51 24t-21 45q0 12 6 24t20 22z" />
    <glyph glyph-name="ucircumflex" unicode="&#xfb;" horiz-adv-x="582" 
d="M52 479q10 3 31.5 6t44.5 3q22 0 39.5 -3t29.5 -12t18.5 -24.5t6.5 -40.5v-215q0 -41 20 -58.5t58 -17.5q23 0 37.5 4t22.5 8v350q10 3 31.5 6t44.5 3q22 0 39.5 -3t29.5 -12t18.5 -24.5t6.5 -40.5v-304q0 -50 -42 -75q-35 -22 -83.5 -33.5t-105.5 -11.5q-54 0 -99.5 12
t-78.5 37t-51 64.5t-18 95.5v286zM288 622q-34 -29 -53 -47l-38 -35q-39 0 -62 18.5t-23 47.5q0 20 11 36t37 35l49 35q24 17 43.5 24.5t39.5 7.5q13 0 23.5 -1.5t21.5 -7t24 -16l33 -27.5l70 -62q1 -5 1.5 -9t0.5 -9q0 -31 -16.5 -50.5t-47.5 -19.5q-10 0 -18 1.5
t-16.5 6.5t-19.5 14.5t-26 25.5z" />
    <glyph glyph-name="udieresis" unicode="&#xfc;" horiz-adv-x="582" 
d="M52 479q10 3 31.5 6t44.5 3q22 0 39.5 -3t29.5 -12t18.5 -24.5t6.5 -40.5v-215q0 -41 20 -58.5t58 -17.5q23 0 37.5 4t22.5 8v350q10 3 31.5 6t44.5 3q22 0 39.5 -3t29.5 -12t18.5 -24.5t6.5 -40.5v-304q0 -50 -42 -75q-35 -22 -83.5 -33.5t-105.5 -11.5q-54 0 -99.5 12
t-78.5 37t-51 64.5t-18 95.5v286zM88 637q0 35 25 60.5t62 25.5q42 0 66 -25.5t24 -60.5t-24 -60.5t-66 -25.5q-18 0 -34 7t-28 18.5t-18.5 27t-6.5 33.5zM312 637q0 35 23.5 60.5t65.5 25.5q19 0 35 -7t28 -19t18.5 -27.5t6.5 -32.5q0 -35 -25 -60.5t-63 -25.5
q-42 0 -65.5 25.5t-23.5 60.5z" />
    <glyph glyph-name="yacute" unicode="&#xfd;" horiz-adv-x="550" 
d="M128 124l-23.5 56t-26 71t-28 91.5t-30.5 118.5q14 14 37.5 24.5t51.5 10.5q35 0 58 -14.5t34 -54.5l79 -275h4q12 34 23.5 74t22.5 82.5t20.5 85t16.5 83.5q36 19 79 19q35 0 58 -15t23 -52q0 -27 -7 -62.5t-18.5 -75.5t-27 -82.5t-32.5 -83.5t-35 -77.5t-35 -65.5
q-28 -49 -52 -80t-46 -48.5t-44 -24t-46 -6.5q-42 0 -68 25t-31 65q32 25 64 55.5t58 62.5q-17 5 -36.5 23.5t-42.5 69.5zM314 744q52 0 75.5 -20t23.5 -48q0 -26 -14 -43.5t-46 -34.5l-129 -68q-30 3 -51 24t-21 45q0 12 6 24t20 22z" />
    <glyph glyph-name="thorn" unicode="&#xfe;" horiz-adv-x="590" 
d="M222 133q12 -6 26 -10t30 -4q103 0 103 124t-103 124q-16 0 -30 -4t-26 -10v-220zM223 488q37 13 80 13q57 0 103.5 -16.5t79.5 -49t51 -80.5t18 -112t-18 -112t-51 -80.5t-79.5 -49t-103.5 -16.5q-43 0 -80 13v-166q-10 -3 -32 -6.5t-45 -3.5q-22 0 -39.5 3t-29.5 12
t-18 24.5t-6 40.5v749q10 3 32 6.5t45 3.5q22 0 39.5 -3t29.5 -12t18 -24.5t6 -40.5v-93z" />
    <glyph glyph-name="ydieresis" unicode="&#xff;" horiz-adv-x="550" 
d="M128 124l-23.5 56t-26 71t-28 91.5t-30.5 118.5q14 14 37.5 24.5t51.5 10.5q35 0 58 -14.5t34 -54.5l79 -275h4q12 34 23.5 74t22.5 82.5t20.5 85t16.5 83.5q36 19 79 19q35 0 58 -15t23 -52q0 -27 -7 -62.5t-18.5 -75.5t-27 -82.5t-32.5 -83.5t-35 -77.5t-35 -65.5
q-28 -49 -52 -80t-46 -48.5t-44 -24t-46 -6.5q-42 0 -68 25t-31 65q32 25 64 55.5t58 62.5q-17 5 -36.5 23.5t-42.5 69.5zM71 637q0 35 25 60.5t62 25.5q42 0 66 -25.5t24 -60.5t-24 -60.5t-66 -25.5q-18 0 -34 7t-28 18.5t-18.5 27t-6.5 33.5zM295 637q0 35 23.5 60.5
t65.5 25.5q19 0 35 -7t28 -19t18.5 -27.5t6.5 -32.5q0 -35 -25 -60.5t-63 -25.5q-42 0 -65.5 25.5t-23.5 60.5z" />
    <glyph glyph-name="Amacron" unicode="&#x100;" horiz-adv-x="627" 
d="M194 588q17 10 51.5 19t69.5 9q50 0 88.5 -14.5t49.5 -45.5q18 -52 39 -121l42 -142.5l41 -145l35 -126.5q-12 -14 -36 -22.5t-57 -8.5q-24 0 -40.5 4t-27 12t-17 21t-11.5 30l-18 69h-181l-16 -62l-16 -62q-14 -5 -29.5 -8.5t-37.5 -3.5q-51 0 -75.5 17.5t-24.5 48.5
q0 14 4 28l9 33q7 27 19.5 67l27.5 86.5l32 95.5l32 92.5l27.5 77.5zM314 459l-31.5 -93.5t-31.5 -104.5h124l-28.5 105.5l-26.5 92.5h-6zM159 693q-5 11 -10.5 27.5t-5.5 34.5q0 37 15 51.5t40 14.5h265q8 -11 12 -27.5t4 -34.5q0 -37 -14.5 -51.5t-39.5 -14.5h-266z" />
    <glyph glyph-name="amacron" unicode="&#x101;" horiz-adv-x="544" 
d="M260 108q17 0 37.5 3.5t30.5 9.5v80l-72 -6q-28 -2 -46 -12t-18 -30t15.5 -32.5t52.5 -12.5zM252 501q54 0 98.5 -11t76 -33.5t48.5 -57t17 -81.5v-224q0 -26 -14.5 -42.5t-34.5 -28.5q-65 -39 -183 -39q-53 0 -95.5 10t-73 30t-47 51t-16.5 72q0 69 41 106t127 46
l131 14v7q0 29 -25.5 41.5t-73.5 12.5q-38 0 -74 -8t-65 -20q-13 9 -22 27.5t-9 38.5q0 26 12.5 41.5t38.5 26.5q29 11 68.5 16t74.5 5zM119 564q-5 11 -10.5 27.5t-5.5 34.5q0 37 15 51.5t40 14.5h265q8 -11 12 -27.5t4 -34.5q0 -37 -14.5 -51.5t-39.5 -14.5h-266z" />
    <glyph glyph-name="Abreve" unicode="&#x102;" horiz-adv-x="627" 
d="M316 661q-84 0 -129 30.5t-45 75.5q0 26 19.5 49t60.5 23h9t9 -1q5 -22 25 -37t51 -15t50.5 15t25.5 37q5 1 9 1h9q41 0 60.5 -23t19.5 -49q0 -45 -45 -75.5t-129 -30.5zM194 588q17 10 51.5 19t69.5 9q50 0 88.5 -14.5t49.5 -45.5q18 -52 39 -121l42 -142.5l41 -145
l35 -126.5q-12 -14 -36 -22.5t-57 -8.5q-24 0 -40.5 4t-27 12t-17 21t-11.5 30l-18 69h-181l-16 -62l-16 -62q-14 -5 -29.5 -8.5t-37.5 -3.5q-51 0 -75.5 17.5t-24.5 48.5q0 14 4 28l9 33q7 27 19.5 67l27.5 86.5l32 95.5l32 92.5l27.5 77.5zM314 459l-31.5 -93.5
t-31.5 -104.5h124l-28.5 105.5l-26.5 92.5h-6z" />
    <glyph glyph-name="abreve" unicode="&#x103;" horiz-adv-x="544" 
d="M260 108q17 0 37.5 3.5t30.5 9.5v80l-72 -6q-28 -2 -46 -12t-18 -30t15.5 -32.5t52.5 -12.5zM252 501q54 0 98.5 -11t76 -33.5t48.5 -57t17 -81.5v-224q0 -26 -14.5 -42.5t-34.5 -28.5q-65 -39 -183 -39q-53 0 -95.5 10t-73 30t-47 51t-16.5 72q0 69 41 106t127 46
l131 14v7q0 29 -25.5 41.5t-73.5 12.5q-38 0 -74 -8t-65 -20q-13 9 -22 27.5t-9 38.5q0 26 12.5 41.5t38.5 26.5q29 11 68.5 16t74.5 5zM271 553q-84 0 -129 30.5t-45 75.5q0 26 19.5 49t60.5 23h9t9 -1q5 -22 25 -37t51 -15t50.5 15t25.5 37q5 1 9 1h9q41 0 60.5 -23
t19.5 -49q0 -45 -45 -75.5t-129 -30.5z" />
    <glyph glyph-name="Aogonek" unicode="&#x104;" horiz-adv-x="627" 
d="M194 588q17 10 51.5 19t69.5 9q50 0 88.5 -14.5t49.5 -45.5q18 -52 39 -121l42 -142.5l41 -145l35 -126.5q-13 -14 -37 -22q-8 -8 -13 -17t-5 -25q0 -43 59 -43q3 -9 5 -19t2 -23q0 -29 -20 -51.5t-72 -22.5q-27 0 -50.5 7.5t-41 22.5t-27.5 36t-10 48q0 33 13 56.5
t36 37.5q-11 8 -17 21t-11 30l-18 69h-181l-16 -62l-16 -62q-14 -5 -29.5 -8.5t-37.5 -3.5q-51 0 -75.5 17.5t-24.5 48.5q0 14 4 28l9 33q7 27 19.5 67l27.5 86.5l32 95.5l32 92.5l27.5 77.5zM314 459l-31.5 -93.5t-31.5 -104.5h124l-28.5 105.5l-26.5 92.5h-6z" />
    <glyph glyph-name="aogonek" unicode="&#x105;" horiz-adv-x="544" 
d="M421 11q-10 -9 -16.5 -22t-6.5 -29q0 -20 15 -33t44 -13q3 -9 5 -19t2 -23q0 -29 -20 -51.5t-72 -22.5q-27 0 -50.5 7.5t-41 22.5t-27.5 36t-10 48q0 43 24 72h-7q-53 0 -95.5 10t-73 30t-47 51t-16.5 72q0 69 41 106t127 46l131 14v7q0 29 -25.5 41.5t-73.5 12.5
q-38 0 -74 -8t-65 -20q-13 9 -22 27.5t-9 38.5q0 26 12.5 41.5t38.5 26.5q29 11 68.5 16t74.5 5q54 0 98.5 -11t76 -33.5t48.5 -57t17 -81.5v-224q0 -26 -14.5 -43t-34.5 -28zM260 108q17 0 37.5 3.5t30.5 9.5v80l-72 -6q-28 -2 -46 -12t-18 -30t15.5 -32.5t52.5 -12.5z" />
    <glyph glyph-name="Cacute" unicode="&#x106;" horiz-adv-x="571" 
d="M374 484q-77 0 -118 -47t-41 -133q0 -87 45.5 -134t122.5 -47q41 0 69.5 11t54.5 25q17 -14 26.5 -33.5t9.5 -45.5q0 -41 -45.5 -69.5t-138.5 -28.5q-67 0 -126 19t-103 58.5t-69.5 100t-25.5 144.5q0 78 24.5 137.5t67 100.5t99.5 62t122 21q92 0 142.5 -30t50.5 -77
q0 -26 -13 -45t-30 -30q-26 17 -55.5 29t-68.5 12zM395 851q49 -4 70 -23.5t21 -45.5q0 -29 -16.5 -46t-51.5 -31l-137 -54q-29 6 -46.5 24t-17.5 40q0 14 7.5 27t23.5 21z" />
    <glyph glyph-name="cacute" unicode="&#x107;" horiz-adv-x="494" 
d="M326 367q-25 0 -47.5 -8t-39 -23.5t-26.5 -38.5t-10 -54q0 -62 35.5 -93t86.5 -31q30 0 52 7t39 15q20 -14 30 -30.5t10 -39.5q0 -41 -39 -63.5t-108 -22.5q-63 0 -114 18.5t-87.5 52t-56.5 80.5t-20 104q0 66 21.5 115.5t58.5 81.5t85.5 48t102.5 16q72 0 111 -26
t39 -67q0 -19 -9 -35.5t-21 -28.5q-17 8 -41 15.5t-52 7.5zM335 744q52 0 75.5 -20t23.5 -48q0 -26 -14 -43.5t-46 -34.5l-129 -68q-30 3 -51 24t-21 45q0 12 6 24t20 22z" />
    <glyph glyph-name="Ccircumflex" unicode="&#x108;" horiz-adv-x="571" 
d="M374 484q-77 0 -118 -47t-41 -133q0 -87 45.5 -134t122.5 -47q41 0 69.5 11t54.5 25q17 -14 26.5 -33.5t9.5 -45.5q0 -41 -45.5 -69.5t-138.5 -28.5q-67 0 -126 19t-103 58.5t-69.5 100t-25.5 144.5q0 78 24.5 137.5t67 100.5t99.5 62t122 21q92 0 142.5 -30t50.5 -77
q0 -26 -13 -45t-30 -30q-26 17 -55.5 29t-68.5 12zM335 734l-55 -39.5l-46 -32.5q-30 0 -50.5 17.5t-20.5 43.5q0 20 9.5 35t36.5 34l36 26q25 17 46.5 26.5t41.5 9.5q27 0 46 -9t45 -32l81 -71q0 -34 -14.5 -55.5t-45.5 -21.5q-10 0 -18.5 2t-18.5 7t-22 14.5t-28 24.5z
" />
    <glyph glyph-name="ccircumflex" unicode="&#x109;" horiz-adv-x="494" 
d="M326 367q-25 0 -47.5 -8t-39 -23.5t-26.5 -38.5t-10 -54q0 -62 35.5 -93t86.5 -31q30 0 52 7t39 15q20 -14 30 -30.5t10 -39.5q0 -41 -39 -63.5t-108 -22.5q-63 0 -114 18.5t-87.5 52t-56.5 80.5t-20 104q0 66 21.5 115.5t58.5 81.5t85.5 48t102.5 16q72 0 111 -26
t39 -67q0 -19 -9 -35.5t-21 -28.5q-17 8 -41 15.5t-52 7.5zM274 622q-34 -29 -53 -47l-38 -35q-39 0 -62 18.5t-23 47.5q0 20 11 36t37 35l49 35q24 17 43.5 24.5t39.5 7.5q13 0 23.5 -1.5t21.5 -7t24 -16l33 -27.5l70 -62q1 -5 1.5 -9t0.5 -9q0 -31 -16.5 -50.5
t-47.5 -19.5q-10 0 -18 1.5t-16.5 6.5t-19.5 14.5t-26 25.5z" />
    <glyph glyph-name="Cdotaccent" unicode="&#x10a;" horiz-adv-x="571" 
d="M374 484q-77 0 -118 -47t-41 -133q0 -87 45.5 -134t122.5 -47q41 0 69.5 11t54.5 25q17 -14 26.5 -33.5t9.5 -45.5q0 -41 -45.5 -69.5t-138.5 -28.5q-67 0 -126 19t-103 58.5t-69.5 100t-25.5 144.5q0 78 24.5 137.5t67 100.5t99.5 62t122 21q92 0 142.5 -30t50.5 -77
q0 -26 -13 -45t-30 -30q-26 17 -55.5 29t-68.5 12zM249 754q0 37 24.5 62t64.5 25q42 0 66.5 -25t24.5 -62t-24.5 -62t-66.5 -25q-40 0 -64.5 25t-24.5 62z" />
    <glyph glyph-name="cdotaccent" unicode="&#x10b;" horiz-adv-x="494" 
d="M326 367q-25 0 -47.5 -8t-39 -23.5t-26.5 -38.5t-10 -54q0 -62 35.5 -93t86.5 -31q30 0 52 7t39 15q20 -14 30 -30.5t10 -39.5q0 -41 -39 -63.5t-108 -22.5q-63 0 -114 18.5t-87.5 52t-56.5 80.5t-20 104q0 66 21.5 115.5t58.5 81.5t85.5 48t102.5 16q72 0 111 -26
t39 -67q0 -19 -9 -35.5t-21 -28.5q-17 8 -41 15.5t-52 7.5zM188 626q0 37 24.5 62t64.5 25q42 0 66.5 -25t24.5 -62t-24.5 -62t-66.5 -25q-40 0 -64.5 25t-24.5 62z" />
    <glyph glyph-name="Ccaron" unicode="&#x10c;" horiz-adv-x="571" 
d="M374 484q-77 0 -118 -47t-41 -133q0 -87 45.5 -134t122.5 -47q41 0 69.5 11t54.5 25q17 -14 26.5 -33.5t9.5 -45.5q0 -41 -45.5 -69.5t-138.5 -28.5q-67 0 -126 19t-103 58.5t-69.5 100t-25.5 144.5q0 78 24.5 137.5t67 100.5t99.5 62t122 21q92 0 142.5 -30t50.5 -77
q0 -26 -13 -45t-30 -30q-26 17 -55.5 29t-68.5 12zM333 778l95 76q33 0 53.5 -17.5t20.5 -43.5q0 -20 -9.5 -34t-36.5 -35l-55 -42q-12 -9 -28 -14.5t-36 -5.5q-27 0 -48.5 9t-47.5 32l-81 71q0 34 14.5 55.5t45.5 21.5q20 0 37.5 -9t49.5 -39z" />
    <glyph glyph-name="ccaron" unicode="&#x10d;" horiz-adv-x="494" 
d="M326 367q-25 0 -47.5 -8t-39 -23.5t-26.5 -38.5t-10 -54q0 -62 35.5 -93t86.5 -31q30 0 52 7t39 15q20 -14 30 -30.5t10 -39.5q0 -41 -39 -63.5t-108 -22.5q-63 0 -114 18.5t-87.5 52t-56.5 80.5t-20 104q0 66 21.5 115.5t58.5 81.5t85.5 48t102.5 16q72 0 111 -26
t39 -67q0 -19 -9 -35.5t-21 -28.5q-17 8 -41 15.5t-52 7.5zM273 656q33 29 52 48t38 36q39 0 62 -18.5t23 -47.5q0 -20 -11 -35t-37 -36l-45 -37q-18 -14 -37.5 -22.5t-41.5 -8.5q-14 0 -25 2t-23 7.5t-26 15.5t-32 26l-74 64q-1 5 -1.5 9t-0.5 9q0 31 16.5 50.5t47.5 19.5
q23 0 39 -10.5t42 -36.5z" />
    <glyph glyph-name="Dcaron" unicode="&#x10e;" horiz-adv-x="659" 
d="M232 130q11 -2 27 -3.5t30 -1.5q34 0 62.5 10t49 31t32 54.5t11.5 80.5q0 90 -42 135.5t-112 45.5q-14 0 -28.5 -1t-29.5 -3v-348zM288 -16q-17 0 -39 1t-45.5 4t-47 7.5t-43.5 12.5q-55 21 -55 73v467q0 21 11.5 32.5t31.5 18.5q43 14 91 18.5t86 4.5q78 0 141.5 -19
t109 -58.5t70.5 -99.5t25 -142q0 -80 -24 -139.5t-68.5 -100t-106.5 -60.5t-137 -20zM331 778l95 76q33 0 53.5 -17.5t20.5 -43.5q0 -20 -9.5 -34t-36.5 -35l-55 -42q-12 -9 -28 -14.5t-36 -5.5q-27 0 -48.5 9t-47.5 32l-81 71q0 34 14.5 55.5t45.5 21.5q20 0 37.5 -9
t49.5 -39z" />
    <glyph glyph-name="dcaron" unicode="&#x10f;" horiz-adv-x="810" 
d="M738 422q-11 -17 -26 -25t-38 -8q-19 0 -35 4t-31 11l10 122t7 113q14 8 36.5 15t43.5 7q16 0 31.5 -3t27.5 -10.5t19 -20t7 -30.5q0 -20 -4 -44t-11.5 -48t-17 -46t-19.5 -37zM31 243q0 66 20 114.5t55.5 80.5t83 47.5t102.5 15.5q20 0 39 -3.5t31 -8.5v162q10 3 32 6.5
t45 3.5q22 0 39.5 -3t29.5 -12t18 -24.5t6 -40.5v-474q0 -47 -44 -75q-29 -19 -75 -33.5t-106 -14.5q-65 0 -116.5 18t-87 52t-54 81.5t-18.5 107.5zM315 368q-54 0 -83 -31t-29 -94q0 -62 27 -93.5t78 -31.5q18 0 32.5 5.5t22.5 12.5v220q-20 12 -48 12z" />
    <glyph glyph-name="Dcroat" unicode="&#x110;" horiz-adv-x="701" 
d="M330 -16q-17 0 -39 1t-45.5 4t-47 7.5t-43.5 12.5q-55 21 -55 73v154h-67q-6 11 -12 28.5t-6 36.5q0 38 16.5 54t42.5 16h26v178q0 21 11.5 32.5t31.5 18.5q43 14 91 18.5t86 4.5q78 0 141.5 -19t109 -58.5t70.5 -99.5t25 -142q0 -80 -24 -139.5t-68.5 -100t-106.5 -60.5
t-137 -20zM274 130q11 -2 27 -3.5t30 -1.5q34 0 62.5 10t49 31t32 54.5t11.5 80.5q0 90 -42 135.5t-112 45.5q-14 0 -28.5 -1t-29.5 -3v-107h88q8 -11 13 -28.5t5 -36.5q0 -38 -16 -54t-43 -16h-47v-106z" />
    <glyph glyph-name="dcroat" unicode="&#x111;" horiz-adv-x="592" 
d="M291 530q-5 8 -9 20t-4 26q0 25 11 36t31 11h42v68q10 3 32 6.5t45 3.5q43 0 67.5 -14.5t25.5 -63.5h49q4 -7 8.5 -19t4.5 -26q0 -25 -11 -36.5t-31 -11.5h-20v-423q0 -47 -44 -75q-29 -19 -75 -33.5t-106 -14.5q-65 0 -116.5 17.5t-87 50.5t-54 80t-18.5 106
q0 64 20 112t55.5 79t83 46.5t102.5 15.5q20 0 39 -3.5t31 -8.5v51h-71zM315 358q-54 0 -83 -29.5t-29 -90.5q0 -60 27 -90t78 -30q18 0 32.5 5.5t22.5 12.5v210q-20 12 -48 12z" />
    <glyph glyph-name="Emacron" unicode="&#x112;" horiz-adv-x="541" 
d="M58 513q0 43 25 68t68 25h330q7 -11 12.5 -29t5.5 -38q0 -38 -16.5 -54t-43.5 -16h-211v-93h225q7 -11 12.5 -28.5t5.5 -37.5q0 -38 -16 -54t-43 -16h-184v-105h257q7 -11 12.5 -29t5.5 -38q0 -38 -16.5 -54.5t-43.5 -16.5h-292q-43 0 -68 25t-25 68v423zM148 694
q-5 11 -10.5 27.5t-5.5 34.5q0 37 15 51.5t40 14.5h265q8 -11 12 -27.5t4 -34.5q0 -37 -14.5 -51.5t-39.5 -14.5h-266z" />
    <glyph glyph-name="emacron" unicode="&#x113;" horiz-adv-x="550" 
d="M309 -16q-59 0 -109.5 16.5t-88 49.5t-59 83t-21.5 117q0 66 21.5 113.5t56.5 78t80 45t92 14.5q53 0 96.5 -16t75 -44t49 -67t17.5 -85q0 -34 -19 -52t-53 -23l-247 -37q11 -33 45 -49.5t78 -16.5q41 0 77.5 10.5t59.5 24.5q16 -10 27 -28t11 -38q0 -45 -42 -67
q-32 -17 -72 -23t-75 -6zM281 377q-24 0 -41.5 -8t-28.5 -20.5t-16.5 -28t-6.5 -31.5l171 28q-3 20 -22 40t-56 20zM125 564q-5 11 -10.5 27.5t-5.5 34.5q0 37 15 51.5t40 14.5h265q8 -11 12 -27.5t4 -34.5q0 -37 -14.5 -51.5t-39.5 -14.5h-266z" />
    <glyph glyph-name="Ebreve" unicode="&#x114;" horiz-adv-x="541" 
d="M58 513q0 43 25 68t68 25h330q7 -11 12.5 -29t5.5 -38q0 -38 -16.5 -54t-43.5 -16h-211v-93h225q7 -11 12.5 -28.5t5.5 -37.5q0 -38 -16 -54t-43 -16h-184v-105h257q7 -11 12.5 -29t5.5 -38q0 -38 -16.5 -54.5t-43.5 -16.5h-292q-43 0 -68 25t-25 68v423zM268 683
q-84 0 -129 30.5t-45 75.5q0 26 19.5 49t60.5 23h9t9 -1q5 -22 25 -37t51 -15t50.5 15t25.5 37q5 1 9 1h9q41 0 60.5 -23t19.5 -49q0 -45 -45 -75.5t-129 -30.5z" />
    <glyph glyph-name="ebreve" unicode="&#x115;" horiz-adv-x="550" 
d="M309 -16q-59 0 -109.5 16.5t-88 49.5t-59 83t-21.5 117q0 66 21.5 113.5t56.5 78t80 45t92 14.5q53 0 96.5 -16t75 -44t49 -67t17.5 -85q0 -34 -19 -52t-53 -23l-247 -37q11 -33 45 -49.5t78 -16.5q41 0 77.5 10.5t59.5 24.5q16 -10 27 -28t11 -38q0 -45 -42 -67
q-32 -17 -72 -23t-75 -6zM281 377q-24 0 -41.5 -8t-28.5 -20.5t-16.5 -28t-6.5 -31.5l171 28q-3 20 -22 40t-56 20zM290 553q-84 0 -129 30.5t-45 75.5q0 26 19.5 49t60.5 23h9t9 -1q5 -22 25 -37t51 -15t50.5 15t25.5 37q5 1 9 1h9q41 0 60.5 -23t19.5 -49q0 -45 -45 -75.5
t-129 -30.5z" />
    <glyph glyph-name="Edotaccent" unicode="&#x116;" horiz-adv-x="541" 
d="M58 513q0 43 25 68t68 25h330q7 -11 12.5 -29t5.5 -38q0 -38 -16.5 -54t-43.5 -16h-211v-93h225q7 -11 12.5 -28.5t5.5 -37.5q0 -38 -16 -54t-43 -16h-184v-105h257q7 -11 12.5 -29t5.5 -38q0 -38 -16.5 -54.5t-43.5 -16.5h-292q-43 0 -68 25t-25 68v423zM175 754
q0 37 24.5 62t64.5 25q42 0 66.5 -25t24.5 -62t-24.5 -62t-66.5 -25q-40 0 -64.5 25t-24.5 62z" />
    <glyph glyph-name="edotaccent" unicode="&#x117;" horiz-adv-x="550" 
d="M309 -16q-59 0 -109.5 16.5t-88 49.5t-59 83t-21.5 117q0 66 21.5 113.5t56.5 78t80 45t92 14.5q53 0 96.5 -16t75 -44t49 -67t17.5 -85q0 -34 -19 -52t-53 -23l-247 -37q11 -33 45 -49.5t78 -16.5q41 0 77.5 10.5t59.5 24.5q16 -10 27 -28t11 -38q0 -45 -42 -67
q-32 -17 -72 -23t-75 -6zM281 377q-24 0 -41.5 -8t-28.5 -20.5t-16.5 -28t-6.5 -31.5l171 28q-3 20 -22 40t-56 20zM186 626q0 37 24.5 62t64.5 25q42 0 66.5 -25t24.5 -62t-24.5 -62t-66.5 -25q-40 0 -64.5 25t-24.5 62z" />
    <glyph glyph-name="Eogonek" unicode="&#x118;" horiz-adv-x="541" 
d="M151 -3q-43 0 -68 25t-25 68v423q0 43 25 68t68 25h330q7 -11 12.5 -29t5.5 -38q0 -38 -16.5 -54t-43.5 -16h-211v-93h225q7 -11 12.5 -28.5t5.5 -37.5q0 -38 -16 -54t-43 -16h-184v-105h257q7 -11 12.5 -29t5.5 -38q0 -38 -15.5 -54t-41.5 -17h-15q-7 -8 -11.5 -16.5
t-4.5 -23.5q0 -43 59 -43q3 -9 5 -19t2 -23q0 -29 -20 -51.5t-72 -22.5q-27 0 -50.5 7.5t-41 22.5t-27.5 36t-10 48q0 33 11.5 53.5t25.5 31.5h-146z" />
    <glyph glyph-name="eogonek" unicode="&#x119;" horiz-adv-x="550" 
d="M281 377q-24 0 -41.5 -8t-28.5 -20.5t-16.5 -28t-6.5 -31.5l171 28q-3 20 -22 40t-56 20zM270 -14q-52 5 -95.5 24t-75.5 52t-50 80t-18 108q0 66 21.5 113.5t56.5 78t80 45t92 14.5q53 0 96.5 -16t75 -44t49 -67t17.5 -85q0 -34 -19 -52t-53 -23l-247 -37
q11 -33 45 -49.5t78 -16.5q41 0 77.5 10.5t59.5 24.5q16 -10 27 -28t11 -38q0 -45 -42 -67q-9 -5 -19 -8.5t-20 -5.5q-8 -8 -13 -17t-5 -25q0 -43 59 -43q3 -9 5 -19t2 -23q0 -29 -20 -51.5t-72 -22.5q-27 0 -50.5 7.5t-41 22.5t-27.5 36t-10 48q0 45 26 74z" />
    <glyph glyph-name="Ecaron" unicode="&#x11a;" horiz-adv-x="541" 
d="M58 513q0 43 25 68t68 25h330q7 -11 12.5 -29t5.5 -38q0 -38 -16.5 -54t-43.5 -16h-211v-93h225q7 -11 12.5 -28.5t5.5 -37.5q0 -38 -16 -54t-43 -16h-184v-105h257q7 -11 12.5 -29t5.5 -38q0 -38 -16.5 -54.5t-43.5 -16.5h-292q-43 0 -68 25t-25 68v423zM269 778l95 76
q33 0 53.5 -17.5t20.5 -43.5q0 -20 -9.5 -34t-36.5 -35l-55 -42q-12 -9 -28 -14.5t-36 -5.5q-27 0 -48.5 9t-47.5 32l-81 71q0 34 14.5 55.5t45.5 21.5q20 0 37.5 -9t49.5 -39z" />
    <glyph glyph-name="ecaron" unicode="&#x11b;" horiz-adv-x="550" 
d="M309 -16q-59 0 -109.5 16.5t-88 49.5t-59 83t-21.5 117q0 66 21.5 113.5t56.5 78t80 45t92 14.5q53 0 96.5 -16t75 -44t49 -67t17.5 -85q0 -34 -19 -52t-53 -23l-247 -37q11 -33 45 -49.5t78 -16.5q41 0 77.5 10.5t59.5 24.5q16 -10 27 -28t11 -38q0 -45 -42 -67
q-32 -17 -72 -23t-75 -6zM281 377q-24 0 -41.5 -8t-28.5 -20.5t-16.5 -28t-6.5 -31.5l171 28q-3 20 -22 40t-56 20zM270 656q33 29 52 48t38 36q39 0 62 -18.5t23 -47.5q0 -20 -11 -35t-37 -36l-45 -37q-18 -14 -37.5 -22.5t-41.5 -8.5q-14 0 -25 2t-23 7.5t-26 15.5t-32 26
l-74 64q-1 5 -1.5 9t-0.5 9q0 31 16.5 50.5t47.5 19.5q23 0 39 -10.5t42 -36.5z" />
    <glyph glyph-name="Gcircumflex" unicode="&#x11c;" horiz-adv-x="664" 
d="M614 99q0 -31 -11 -46t-35 -29q-14 -8 -35 -15.5t-46 -13t-52.5 -8.5t-54.5 -3q-72 0 -135 19.5t-109.5 59t-73.5 98.5t-27 137q0 82 29.5 143t78 101.5t111 60.5t128.5 20q95 0 150.5 -30.5t55.5 -79.5q0 -26 -13 -45t-30 -30q-25 15 -62.5 29.5t-84.5 14.5
q-84 0 -133.5 -48t-49.5 -133q0 -46 13.5 -79.5t36.5 -55t53 -32t64 -10.5q22 0 39 4t26 9v94h-107q-6 11 -11.5 29t-5.5 38q0 36 16.5 52t42.5 16h169q30 0 46.5 -16.5t16.5 -46.5v-204zM357 753q-34 -29 -53 -47l-38 -35q-39 0 -62 18.5t-23 47.5q0 20 11 36t37 35l49 35
q24 17 43.5 24.5t39.5 7.5q13 0 23.5 -1.5t21.5 -7t24 -16l33 -27.5l70 -62q1 -5 1.5 -9t0.5 -9q0 -31 -16.5 -50.5t-47.5 -19.5q-10 0 -18 1.5t-16.5 6.5t-19.5 14.5t-26 25.5z" />
    <glyph glyph-name="gcircumflex" unicode="&#x11d;" horiz-adv-x="567" 
d="M289 501q57 0 103.5 -14.5t78.5 -37.5q20 -14 31.5 -31t11.5 -44v-350q0 -53 -20 -91.5t-54.5 -64t-81 -37.5t-99.5 -12q-91 0 -143 24.5t-52 79.5q0 23 9.5 40.5t21.5 26.5q29 -16 65.5 -27t75.5 -11q54 0 86 18t32 58v16q-41 -18 -100 -18q-45 0 -85.5 13.5t-71 42
t-49 73.5t-18.5 107q0 61 19.5 106t54 74.5t82 44t103.5 14.5zM351 356q-7 4 -20.5 8t-33.5 4q-49 0 -73.5 -27.5t-24.5 -78.5q0 -58 24.5 -83.5t62.5 -25.5q41 0 65 19v184zM290 622q-34 -29 -53 -47l-38 -35q-39 0 -62 18.5t-23 47.5q0 20 11 36t37 35l49 35
q24 17 43.5 24.5t39.5 7.5q13 0 23.5 -1.5t21.5 -7t24 -16l33 -27.5l70 -62q1 -5 1.5 -9t0.5 -9q0 -31 -16.5 -50.5t-47.5 -19.5q-10 0 -18 1.5t-16.5 6.5t-19.5 14.5t-26 25.5z" />
    <glyph glyph-name="Gbreve" unicode="&#x11e;" horiz-adv-x="664" 
d="M614 99q0 -31 -11 -46t-35 -29q-14 -8 -35 -15.5t-46 -13t-52.5 -8.5t-54.5 -3q-72 0 -135 19.5t-109.5 59t-73.5 98.5t-27 137q0 82 29.5 143t78 101.5t111 60.5t128.5 20q95 0 150.5 -30.5t55.5 -79.5q0 -26 -13 -45t-30 -30q-25 15 -62.5 29.5t-84.5 14.5
q-84 0 -133.5 -48t-49.5 -133q0 -46 13.5 -79.5t36.5 -55t53 -32t64 -10.5q22 0 39 4t26 9v94h-107q-6 11 -11.5 29t-5.5 38q0 36 16.5 52t42.5 16h169q30 0 46.5 -16.5t16.5 -46.5v-204zM351 681q-84 0 -129 30.5t-45 75.5q0 26 19.5 49t60.5 23h9t9 -1q5 -22 25 -37
t51 -15t50.5 15t25.5 37q5 1 9 1h9q41 0 60.5 -23t19.5 -49q0 -45 -45 -75.5t-129 -30.5z" />
    <glyph glyph-name="gbreve" unicode="&#x11f;" horiz-adv-x="567" 
d="M289 501q57 0 103.5 -14.5t78.5 -37.5q20 -14 31.5 -31t11.5 -44v-350q0 -53 -20 -91.5t-54.5 -64t-81 -37.5t-99.5 -12q-91 0 -143 24.5t-52 79.5q0 23 9.5 40.5t21.5 26.5q29 -16 65.5 -27t75.5 -11q54 0 86 18t32 58v16q-41 -18 -100 -18q-45 0 -85.5 13.5t-71 42
t-49 73.5t-18.5 107q0 61 19.5 106t54 74.5t82 44t103.5 14.5zM351 356q-7 4 -20.5 8t-33.5 4q-49 0 -73.5 -27.5t-24.5 -78.5q0 -58 24.5 -83.5t62.5 -25.5q41 0 65 19v184zM282 553q-84 0 -129 30.5t-45 75.5q0 26 19.5 49t60.5 23h9t9 -1q5 -22 25 -37t51 -15t50.5 15
t25.5 37q5 1 9 1h9q41 0 60.5 -23t19.5 -49q0 -45 -45 -75.5t-129 -30.5z" />
    <glyph glyph-name="Gdotaccent" unicode="&#x120;" horiz-adv-x="664" 
d="M614 99q0 -31 -11 -46t-35 -29q-14 -8 -35 -15.5t-46 -13t-52.5 -8.5t-54.5 -3q-72 0 -135 19.5t-109.5 59t-73.5 98.5t-27 137q0 82 29.5 143t78 101.5t111 60.5t128.5 20q95 0 150.5 -30.5t55.5 -79.5q0 -26 -13 -45t-30 -30q-25 15 -62.5 29.5t-84.5 14.5
q-84 0 -133.5 -48t-49.5 -133q0 -46 13.5 -79.5t36.5 -55t53 -32t64 -10.5q22 0 39 4t26 9v94h-107q-6 11 -11.5 29t-5.5 38q0 36 16.5 52t42.5 16h169q30 0 46.5 -16.5t16.5 -46.5v-204zM279 757q0 37 24.5 62t64.5 25q42 0 66.5 -25t24.5 -62t-24.5 -62t-66.5 -25
q-40 0 -64.5 25t-24.5 62z" />
    <glyph glyph-name="gdotaccent" unicode="&#x121;" horiz-adv-x="567" 
d="M289 501q57 0 103.5 -14.5t78.5 -37.5q20 -14 31.5 -31t11.5 -44v-350q0 -53 -20 -91.5t-54.5 -64t-81 -37.5t-99.5 -12q-91 0 -143 24.5t-52 79.5q0 23 9.5 40.5t21.5 26.5q29 -16 65.5 -27t75.5 -11q54 0 86 18t32 58v16q-41 -18 -100 -18q-45 0 -85.5 13.5t-71 42
t-49 73.5t-18.5 107q0 61 19.5 106t54 74.5t82 44t103.5 14.5zM351 356q-7 4 -20.5 8t-33.5 4q-49 0 -73.5 -27.5t-24.5 -78.5q0 -58 24.5 -83.5t62.5 -25.5q41 0 65 19v184zM192 626q0 37 24.5 62t64.5 25q42 0 66.5 -25t24.5 -62t-24.5 -62t-66.5 -25q-40 0 -64.5 25
t-24.5 62z" />
    <glyph glyph-name="Gcommaaccent" unicode="&#x122;" horiz-adv-x="664" 
d="M614 99q0 -31 -11 -46t-35 -29q-14 -8 -35 -15.5t-46 -13t-52.5 -8.5t-54.5 -3q-72 0 -135 19.5t-109.5 59t-73.5 98.5t-27 137q0 82 29.5 143t78 101.5t111 60.5t128.5 20q95 0 150.5 -30.5t55.5 -79.5q0 -26 -13 -45t-30 -30q-25 15 -62.5 29.5t-84.5 14.5
q-84 0 -133.5 -48t-49.5 -133q0 -46 13.5 -79.5t36.5 -55t53 -32t64 -10.5q22 0 39 4t26 9v94h-107q-6 11 -11.5 29t-5.5 38q0 36 16.5 52t42.5 16h169q30 0 46.5 -16.5t16.5 -46.5v-204zM384 -223q-17 -18 -36.5 -25.5t-42.5 -7.5q-38 0 -64 23q21 42 31.5 81.5t15.5 78.5
q16 8 37.5 14.5t43.5 6.5q32 0 52 -12t20 -40q0 -12 -5.5 -28.5t-13.5 -33t-18 -32t-20 -25.5z" />
    <glyph glyph-name="gcommaaccent" unicode="&#x123;" horiz-adv-x="567" 
d="M250 717q28 29 71 29q21 0 38 -6t33 -17q-21 -43 -32.5 -82.5t-15.5 -77.5q-14 -8 -34 -15t-43 -7q-31 0 -53 10.5t-22 36.5q0 14 5 31.5t13 35.5t18.5 34t21.5 28zM289 501q57 0 103.5 -14.5t78.5 -37.5q20 -14 31.5 -31t11.5 -44v-350q0 -53 -20 -91.5t-54.5 -64
t-81 -37.5t-99.5 -12q-91 0 -143 24.5t-52 79.5q0 23 9.5 40.5t21.5 26.5q29 -16 65.5 -27t75.5 -11q54 0 86 18t32 58v16q-41 -18 -100 -18q-45 0 -85.5 13.5t-71 42t-49 73.5t-18.5 107q0 61 19.5 106t54 74.5t82 44t103.5 14.5zM351 356q-7 4 -20.5 8t-33.5 4
q-49 0 -73.5 -27.5t-24.5 -78.5q0 -58 24.5 -83.5t62.5 -25.5q41 0 65 19v184z" />
    <glyph glyph-name="Hcircumflex" unicode="&#x124;" horiz-adv-x="643" 
d="M616 4q-11 -3 -34.5 -6t-46.5 -3t-40.5 3.5t-29.5 12.5t-18 25t-6 42v156h-192v-230q-11 -3 -34.5 -6t-46.5 -3t-40.5 3.5t-29.5 12.5t-18 25t-6 42v528q11 2 35 5.5t46 3.5q23 0 40.5 -3.5t29.5 -12.5t18 -25t6 -42v-160h192v234q11 2 35 5.5t46 3.5q23 0 40.5 -3.5
t29.5 -12.5t18 -25t6 -42v-528zM341 734l-55 -39.5l-46 -32.5q-30 0 -50.5 17.5t-20.5 43.5q0 20 9.5 35t36.5 34l36 26q25 17 46.5 26.5t41.5 9.5q27 0 46 -9t45 -32l81 -71q0 -34 -14.5 -55.5t-45.5 -21.5q-10 0 -18.5 2t-18.5 7t-22 14.5t-28 24.5z" />
    <glyph glyph-name="hcircumflex" unicode="&#x125;" horiz-adv-x="585" 
d="M532 1q-10 -3 -31.5 -6t-44.5 -3q-22 0 -39.5 3t-29.5 12t-18.5 24.5t-6.5 40.5v222q0 41 -20.5 57.5t-50.5 16.5q-20 0 -38 -5t-29 -12v-350q-10 -3 -31.5 -6t-44.5 -3q-22 0 -39.5 3t-29.5 12t-18.5 24.5t-6.5 40.5v580q11 2 32.5 5.5t43.5 3.5t39.5 -3t29.5 -12
t18.5 -24.5t6.5 -40.5v-98q13 5 39.5 11.5t58.5 6.5q99 0 154.5 -49.5t55.5 -147.5v-303zM135 744l-55 -39.5l-46 -32.5q-30 0 -50.5 17.5t-20.5 43.5q0 20 9.5 35t36.5 34l36 26q25 17 46.5 26.5t41.5 9.5q27 0 46 -9t45 -32l81 -71q0 -34 -14.5 -55.5t-45.5 -21.5
q-10 0 -18.5 2t-18.5 7t-22 14.5t-28 24.5z" />
    <glyph glyph-name="Hbar" unicode="&#x126;" horiz-adv-x="701" 
d="M622 4q-11 -3 -34.5 -6t-46.5 -3t-40.5 3.5t-29.5 12.5t-18 25t-6 42v156h-192v-230q-11 -3 -34.5 -6t-46.5 -3t-40.5 3.5t-29.5 12.5t-18 25t-6 42v354h-47q-5 8 -9 20t-4 26q0 25 11 36t31 11h18v81q11 2 35 5.5t46 3.5q23 0 40.5 -3.5t29.5 -12.5t18 -25t6 -42v-7h192
v81q11 2 35 5.5t46 3.5q23 0 40.5 -3.5t29.5 -12.5t18 -25t6 -42v-7h46q4 -7 8.5 -19t4.5 -26q0 -25 -11 -36.5t-31 -11.5h-17v-428zM447 372v60h-192v-60h192z" />
    <glyph glyph-name="hbar" unicode="&#x127;" horiz-adv-x="591" 
d="M538 1q-10 -3 -31.5 -6t-44.5 -3q-22 0 -39.5 3t-29.5 12t-18.5 24.5t-6.5 40.5v222q0 41 -20.5 57.5t-50.5 16.5q-20 0 -38 -5t-29 -12v-350q-10 -3 -31.5 -6t-44.5 -3q-22 0 -39.5 3t-29.5 12t-18.5 24.5t-6.5 40.5v458h-47q-5 8 -9 20t-4 26q0 25 11 36t31 11h18v70
q10 3 32 6.5t45 3.5q22 0 39.5 -3t29.5 -12t18 -24.5t6 -40.5h73q4 -7 8.5 -19t4.5 -26q0 -25 -11 -36.5t-31 -11.5h-44v-47q13 5 39.5 11.5t58.5 6.5q99 0 154.5 -49.5t55.5 -147.5v-303z" />
    <glyph glyph-name="Itilde" unicode="&#x128;" horiz-adv-x="305" 
d="M145 828q18 -5 30 -8t20 -3q22 0 34 13t17 22q35 0 58.5 -22.5t23.5 -57.5q0 -45 -28 -66t-70 -21q-14 0 -28 1.5t-31 6.5l-40 12l-23.5 6.5t-18.5 2.5q-22 0 -33.5 -12.5t-17.5 -22.5q-35 0 -58.5 22.5t-23.5 57.5q0 22 8.5 38.5t22.5 27.5t31.5 16t35.5 5q13 0 31.5 -3
t59.5 -15zM240 4q-11 -3 -34.5 -6t-46.5 -3t-40.5 3.5t-29.5 12.5t-18 25t-6 42v528q11 2 35 5.5t46 3.5q23 0 40.5 -3.5t29.5 -12.5t18 -25t6 -42v-528z" />
    <glyph glyph-name="itilde" unicode="&#x129;" horiz-adv-x="282" 
d="M226 1q-11 -2 -32.5 -5.5t-43.5 -3.5t-39.5 3t-29.5 12t-18.5 24.5t-6.5 40.5v407q11 2 32.5 5.5t43.5 3.5t39.5 -3t29.5 -12t18.5 -24.5t6.5 -40.5v-407zM137 697q18 -5 30 -8t20 -3q22 0 34 13t17 22q35 0 58.5 -22.5t23.5 -57.5q0 -45 -28 -66t-70 -21q-14 0 -28 1.5
t-31 6.5l-40 12l-23.5 6.5t-18.5 2.5q-22 0 -33.5 -12.5t-17.5 -22.5q-35 0 -58.5 22.5t-23.5 57.5q0 22 8.5 38.5t22.5 27.5t31.5 16t35.5 5q13 0 31.5 -3t59.5 -15z" />
    <glyph glyph-name="Imacron" unicode="&#x12a;" horiz-adv-x="305" 
d="M-10 692q-5 11 -10.5 27.5t-5.5 34.5q0 37 15 51.5t40 14.5h265q8 -11 12 -27.5t4 -34.5q0 -37 -14.5 -51.5t-39.5 -14.5h-266zM240 4q-11 -3 -34.5 -6t-46.5 -3t-40.5 3.5t-29.5 12.5t-18 25t-6 42v528q11 2 35 5.5t46 3.5q23 0 40.5 -3.5t29.5 -12.5t18 -25t6 -42v-528
z" />
    <glyph glyph-name="imacron" unicode="&#x12b;" horiz-adv-x="282" 
d="M227 1q-11 -2 -32.5 -5.5t-43.5 -3.5t-39.5 3t-29.5 12t-18.5 24.5t-6.5 40.5v407q11 2 32.5 5.5t43.5 3.5t39.5 -3t29.5 -12t18.5 -24.5t6.5 -40.5v-407zM-11 564q-5 11 -10.5 27.5t-5.5 34.5q0 37 15 51.5t40 14.5h265q8 -11 12 -27.5t4 -34.5q0 -37 -14.5 -51.5
t-39.5 -14.5h-266z" />
    <glyph glyph-name="Iogonek" unicode="&#x12e;" horiz-adv-x="305" 
d="M240 4q-10 -11 -16 -21.5t-6 -25.5q0 -43 59 -43q3 -9 5 -19t2 -23q0 -29 -20 -51.5t-72 -22.5q-27 0 -50.5 7.5t-41 22.5t-27.5 36t-10 48q0 33 13 55.5t30 33.5q-20 8 -30.5 25t-10.5 52v528q11 2 35 5.5t46 3.5q23 0 40.5 -3.5t29.5 -12.5t18 -25t6 -42v-528z" />
    <glyph glyph-name="iogonek" unicode="&#x12f;" horiz-adv-x="282" 
d="M48 621q0 38 25.5 64t67.5 26t67.5 -26t25.5 -64t-25.5 -64t-67.5 -26t-67.5 26t-25.5 64zM91 1q-17 8 -26 24.5t-9 46.5v407q11 2 32.5 5.5t43.5 3.5t39.5 -3t29.5 -12t18.5 -24.5t6.5 -40.5v-403q-10 -11 -16 -21.5t-6 -25.5q0 -43 59 -43q3 -9 5 -19t2 -23
q0 -29 -20 -51.5t-72 -22.5q-27 0 -50.5 7.5t-41 22.5t-27.5 36t-10 48q0 33 12.5 55t29.5 33z" />
    <glyph glyph-name="Idotaccent" unicode="&#x130;" horiz-adv-x="305" 
d="M57 755q0 37 24.5 62t64.5 25q42 0 66.5 -25t24.5 -62t-24.5 -62t-66.5 -25q-40 0 -64.5 25t-24.5 62zM240 4q-11 -3 -34.5 -6t-46.5 -3t-40.5 3.5t-29.5 12.5t-18 25t-6 42v528q11 2 35 5.5t46 3.5q23 0 40.5 -3.5t29.5 -12.5t18 -25t6 -42v-528z" />
    <glyph glyph-name="dotlessi" unicode="&#x131;" horiz-adv-x="282" 
d="M226 1q-11 -2 -32.5 -5.5t-43.5 -3.5t-39.5 3t-29.5 12t-18.5 24.5t-6.5 40.5v407q11 2 32.5 5.5t43.5 3.5t39.5 -3t29.5 -12t18.5 -24.5t6.5 -40.5v-407z" />
    <glyph glyph-name="Jcircumflex" unicode="&#x134;" horiz-adv-x="408" 
d="M175 606q11 2 35 5.5t46 3.5q23 0 40.5 -3.5t29.5 -12.5t18 -25t6 -42v-370q0 -89 -51 -133.5t-150 -44.5q-52 0 -84 16q-23 11 -33.5 30t-10.5 43q0 20 5.5 35t13.5 24q19 -4 32.5 -5.5t29.5 -1.5q39 0 56 19.5t17 57.5v404zM251 753q-34 -29 -53 -47l-38 -35
q-39 0 -62 18.5t-23 47.5q0 20 11 36t37 35l49 35q24 17 43.5 24.5t39.5 7.5q13 0 23.5 -1.5t21.5 -7t24 -16l33 -27.5l70 -62q1 -5 1.5 -9t0.5 -9q0 -31 -16.5 -50.5t-47.5 -19.5q-10 0 -18 1.5t-16.5 6.5t-19.5 14.5t-26 25.5z" />
    <glyph glyph-name="jcircumflex" unicode="&#x135;" horiz-adv-x="287" 
d="M19 -68q22 14 32 38.5t10 54.5v454q11 2 32.5 5.5t43.5 3.5t39.5 -3t29.5 -12t18.5 -24.5t6.5 -40.5v-399q0 -42 -10 -76t-28.5 -58.5t-45 -38t-59.5 -13.5q-44 0 -69 26.5t-26 66.5zM132 622q-34 -29 -53 -47l-38 -35q-39 0 -62 18.5t-23 47.5q0 20 11 36t37 35l49 35
q24 17 43.5 24.5t39.5 7.5q13 0 23.5 -1.5t21.5 -7t24 -16l33 -27.5l70 -62q1 -5 1.5 -9t0.5 -9q0 -31 -16.5 -50.5t-47.5 -19.5q-10 0 -18 1.5t-16.5 6.5t-19.5 14.5t-26 25.5z" />
    <glyph glyph-name="Kcommaaccent" unicode="&#x136;" horiz-adv-x="608" 
d="M234 225v-221q-11 -3 -35 -6t-47 -3t-40.5 3.5t-29.5 12.5t-18 25t-6 42v528q11 2 35 5.5t46 3.5q23 0 40.5 -3.5t29.5 -12.5t18 -25t6 -42v-159l208 239q68 0 97.5 -25.5t29.5 -60.5q0 -26 -13 -49t-42 -52l-125 -125l52 -57l53 -57.5l50.5 -54.5l44.5 -47q0 -22 -8 -39
t-21.5 -29t-30.5 -18t-36 -6q-41 0 -67 20.5t-50 48.5zM343 -223q-17 -18 -36.5 -25.5t-42.5 -7.5q-38 0 -64 23q21 42 31.5 81.5t15.5 78.5q16 8 37.5 14.5t43.5 6.5q32 0 52 -12t20 -40q0 -12 -5.5 -28.5t-13.5 -33t-18 -32t-20 -25.5z" />
    <glyph glyph-name="kcommaaccent" unicode="&#x137;" horiz-adv-x="557" 
d="M527 88q-5 -47 -27.5 -72t-65.5 -25q-32 0 -57 15.5t-54 52.5l-99 124v-182q-11 -2 -32.5 -5.5t-43.5 -3.5t-39.5 3t-29.5 12t-18.5 24.5t-6.5 40.5v579q11 3 32.5 6.5t43.5 3.5t39.5 -3t29.5 -12t18.5 -24.5t6.5 -40.5v-264l172 176q52 0 83.5 -23t31.5 -58
q0 -15 -5 -27.5t-15.5 -25.5t-27 -27.5l-38.5 -33.5l-58 -50zM322 -223q-17 -18 -36.5 -25.5t-42.5 -7.5q-38 0 -64 23q21 42 31.5 81.5t15.5 78.5q16 8 37.5 14.5t43.5 6.5q32 0 52 -12t20 -40q0 -12 -5.5 -28.5t-13.5 -33t-18 -32t-20 -25.5z" />
    <glyph glyph-name="kgreenlandic" unicode="&#x138;" horiz-adv-x="557" 
d="M527 88q-5 -47 -27.5 -72t-65.5 -25q-32 0 -56.5 16t-54.5 52l-99 119v-177q-11 -2 -32.5 -5.5t-43.5 -3.5t-39.5 3t-29.5 12t-18.5 24.5t-6.5 40.5v406q11 3 32.5 6.5t43.5 3.5t39.5 -3t29.5 -12t18.5 -24.5t6.5 -40.5v-96l172 181q52 0 83.5 -23t31.5 -58
q0 -15 -5.5 -27.5t-16 -25t-27 -27.5l-37.5 -35l-58 -54z" />
    <glyph glyph-name="Lacute" unicode="&#x139;" horiz-adv-x="513" 
d="M158 -3q-43 0 -68 25t-25 68v517q11 2 35 5.5t46 3.5q23 0 40.5 -3.5t29.5 -12.5t18 -25t6 -42v-395h229q7 -11 13 -29.5t6 -38.5q0 -40 -17 -56.5t-45 -16.5h-268zM244 851q49 -4 70 -23.5t21 -45.5q0 -29 -16.5 -46t-51.5 -31l-137 -54q-29 6 -46.5 24t-17.5 40
q0 14 7.5 27t23.5 21z" />
    <glyph glyph-name="lacute" unicode="&#x13a;" horiz-adv-x="280" 
d="M225 1q-11 -2 -32.5 -5.5t-43.5 -3.5t-39.5 3t-29.5 12t-18.5 24.5t-6.5 40.5v580q11 2 32.5 5.5t43.5 3.5t39.5 -3t29.5 -12t18.5 -24.5t6.5 -40.5v-580zM193 891q49 -4 70 -23.5t21 -45.5q0 -29 -16.5 -46t-51.5 -31l-137 -54q-29 6 -46.5 24t-17.5 40q0 14 7.5 27
t23.5 21z" />
    <glyph glyph-name="Lcommaaccent" unicode="&#x13b;" horiz-adv-x="513" 
d="M158 -3q-43 0 -68 25t-25 68v517q11 2 35 5.5t46 3.5q23 0 40.5 -3.5t29.5 -12.5t18 -25t6 -42v-395h229q7 -11 13 -29.5t6 -38.5q0 -40 -17 -56.5t-45 -16.5h-268zM297 -223q-17 -18 -36.5 -25.5t-42.5 -7.5q-38 0 -64 23q21 42 31.5 81.5t15.5 78.5q16 8 37.5 14.5
t43.5 6.5q32 0 52 -12t20 -40q0 -12 -5.5 -28.5t-13.5 -33t-18 -32t-20 -25.5z" />
    <glyph glyph-name="lcommaaccent" unicode="&#x13c;" horiz-adv-x="280" 
d="M225 1q-11 -2 -32.5 -5.5t-43.5 -3.5t-39.5 3t-29.5 12t-18.5 24.5t-6.5 40.5v580q11 2 32.5 5.5t43.5 3.5t39.5 -3t29.5 -12t18.5 -24.5t6.5 -40.5v-580zM168 -223q-17 -18 -36.5 -25.5t-42.5 -7.5q-38 0 -64 23q21 42 31.5 81.5t15.5 78.5q16 8 37.5 14.5t43.5 6.5
q32 0 52 -12t20 -40q0 -12 -5.5 -28.5t-13.5 -33t-18 -32t-20 -25.5z" />
    <glyph glyph-name="Lcaron" unicode="&#x13d;" horiz-adv-x="513" 
d="M158 -3q-43 0 -68 25t-25 68v517q11 2 35 5.5t46 3.5q23 0 40.5 -3.5t29.5 -12.5t18 -25t6 -42v-395h229q7 -11 13 -29.5t6 -38.5q0 -40 -17 -56.5t-45 -16.5h-268zM153 778l95 76q33 0 53.5 -17.5t20.5 -43.5q0 -20 -9.5 -34t-36.5 -35l-55 -42q-12 -9 -28 -14.5
t-36 -5.5q-27 0 -48.5 9t-47.5 32l-81 71q0 34 14.5 55.5t45.5 21.5q20 0 37.5 -9t49.5 -39z" />
    <glyph glyph-name="lcaron" unicode="&#x13e;" horiz-adv-x="504" 
d="M432 422q-11 -17 -26 -25t-38 -8q-19 0 -35 4t-31 11l10 122t7 113q14 8 36.5 15t43.5 7q16 0 31.5 -3t27.5 -10.5t19 -20t7 -30.5q0 -20 -4 -44t-11.5 -48t-17 -46t-19.5 -37zM225 1q-11 -2 -32.5 -5.5t-43.5 -3.5t-39.5 3t-29.5 12t-18.5 24.5t-6.5 40.5v580
q11 2 32.5 5.5t43.5 3.5t39.5 -3t29.5 -12t18.5 -24.5t6.5 -40.5v-580z" />
    <glyph glyph-name="Ldot" unicode="&#x13f;" horiz-adv-x="527" 
d="M158 -3q-43 0 -68 25t-25 68v517q11 2 35 5.5t46 3.5q23 0 40.5 -3.5t29.5 -12.5t18 -25t6 -42v-395h229q7 -11 13 -29.5t6 -38.5q0 -40 -17 -56.5t-45 -16.5h-268zM308 341q0 42 26 70t71 28t71 -28t26 -70t-26 -70t-71 -28t-71 28t-26 70z" />
    <glyph glyph-name="ldot" unicode="&#x140;" horiz-adv-x="514" 
d="M225 1q-11 -2 -32.5 -5.5t-43.5 -3.5t-39.5 3t-29.5 12t-18.5 24.5t-6.5 40.5v580q11 2 32.5 5.5t43.5 3.5t39.5 -3t29.5 -12t18.5 -24.5t6.5 -40.5v-580zM293 341q0 42 26 70t71 28t71 -28t26 -70t-26 -70t-71 -28t-71 28t-26 70z" />
    <glyph glyph-name="Lslash" unicode="&#x141;" horiz-adv-x="544" 
d="M199 -3q-43 0 -68 25t-25 68v137l-49 -21q-14 11 -30.5 34t-16.5 51q0 35 35 49l61 26v241q11 2 35 5.5t46 3.5q23 0 40.5 -3.5t29.5 -12.5t18 -25t6 -42v-92l91 39q7 -6 15 -15t15.5 -20t12.5 -24.5t5 -26.5q0 -17 -9.5 -29t-26.5 -19l-103 -44v-164h229q7 -11 13 -29.5
t6 -38.5q0 -40 -17 -56.5t-45 -16.5h-268z" />
    <glyph glyph-name="lslash" unicode="&#x142;" horiz-adv-x="390" 
d="M281 1q-11 -2 -32.5 -5.5t-43.5 -3.5t-39.5 3t-29.5 12t-18.5 24.5t-6.5 40.5v166l-54 -22q-14 11 -30.5 34t-16.5 51q0 35 35 49l66 27v275q11 2 32.5 5.5t43.5 3.5t39.5 -3t29.5 -12t18.5 -24.5t6.5 -40.5v-133l51 22q7 -6 15 -15t15.5 -20t12.5 -24.5t5 -26.5
q0 -18 -10 -29.5t-26 -18.5l-63 -27v-308z" />
    <glyph glyph-name="Nacute" unicode="&#x143;" horiz-adv-x="665" 
d="M607 21q-14 -14 -40.5 -21.5t-63.5 -7.5t-70 11t-54 53l-99 202q-15 31 -27 58.5t-26 63.5l-6 -1q4 -54 4.5 -110t0.5 -110v-155q-11 -3 -33.5 -6t-44.5 -3t-39 3t-28 12t-17 24.5t-6 40.5v500q14 20 43 30t62 10q37 0 70.5 -11.5t53.5 -52.5l100 -202q15 -31 27 -58.5
t26 -63.5l5 1q-4 54 -5 108t-1 108v162q11 3 33.5 6t44.5 3q44 0 67 -15.5t23 -64.5v-514zM395 851q49 -4 70 -23.5t21 -45.5q0 -29 -16.5 -46t-51.5 -31l-137 -54q-29 6 -46.5 24t-17.5 40q0 14 7.5 27t23.5 21z" />
    <glyph glyph-name="nacute" unicode="&#x144;" horiz-adv-x="583" 
d="M360 308q0 31 -17.5 45.5t-47.5 14.5q-20 0 -39.5 -5t-33.5 -15v-347q-10 -3 -31.5 -6t-44.5 -3q-22 0 -39.5 3t-29.5 12t-18.5 24.5t-6.5 40.5v300q0 27 11.5 44t31.5 31q34 24 85.5 39t114.5 15q113 0 174 -49.5t61 -137.5v-313q-10 -3 -31.5 -6t-44.5 -3
q-22 0 -39.5 3t-29.5 12t-18.5 24.5t-6.5 40.5v236zM322 744q52 0 75.5 -20t23.5 -48q0 -26 -14 -43.5t-46 -34.5l-129 -68q-30 3 -51 24t-21 45q0 12 6 24t20 22z" />
    <glyph glyph-name="Ncommaaccent" unicode="&#x145;" horiz-adv-x="665" 
d="M607 21q-14 -14 -40.5 -21.5t-63.5 -7.5t-70 11t-54 53l-99 202q-15 31 -27 58.5t-26 63.5l-6 -1q4 -54 4.5 -110t0.5 -110v-155q-11 -3 -33.5 -6t-44.5 -3t-39 3t-28 12t-17 24.5t-6 40.5v500q14 20 43 30t62 10q37 0 70.5 -11.5t53.5 -52.5l100 -202q15 -31 27 -58.5
t26 -63.5l5 1q-4 54 -5 108t-1 108v162q11 3 33.5 6t44.5 3q44 0 67 -15.5t23 -64.5v-514zM363 -223q-17 -18 -36.5 -25.5t-42.5 -7.5q-38 0 -64 23q21 42 31.5 81.5t15.5 78.5q16 8 37.5 14.5t43.5 6.5q32 0 52 -12t20 -40q0 -12 -5.5 -28.5t-13.5 -33t-18 -32t-20 -25.5z
" />
    <glyph glyph-name="ncommaaccent" unicode="&#x146;" horiz-adv-x="583" 
d="M360 308q0 31 -17.5 45.5t-47.5 14.5q-20 0 -39.5 -5t-33.5 -15v-347q-10 -3 -31.5 -6t-44.5 -3q-22 0 -39.5 3t-29.5 12t-18.5 24.5t-6.5 40.5v300q0 27 11.5 44t31.5 31q34 24 85.5 39t114.5 15q113 0 174 -49.5t61 -137.5v-313q-10 -3 -31.5 -6t-44.5 -3
q-22 0 -39.5 3t-29.5 12t-18.5 24.5t-6.5 40.5v236zM318 -223q-17 -18 -36.5 -25.5t-42.5 -7.5q-38 0 -64 23q21 42 31.5 81.5t15.5 78.5q16 8 37.5 14.5t43.5 6.5q32 0 52 -12t20 -40q0 -12 -5.5 -28.5t-13.5 -33t-18 -32t-20 -25.5z" />
    <glyph glyph-name="Ncaron" unicode="&#x147;" horiz-adv-x="665" 
d="M607 21q-14 -14 -40.5 -21.5t-63.5 -7.5t-70 11t-54 53l-99 202q-15 31 -27 58.5t-26 63.5l-6 -1q4 -54 4.5 -110t0.5 -110v-155q-11 -3 -33.5 -6t-44.5 -3t-39 3t-28 12t-17 24.5t-6 40.5v500q14 20 43 30t62 10q37 0 70.5 -11.5t53.5 -52.5l100 -202q15 -31 27 -58.5
t26 -63.5l5 1q-4 54 -5 108t-1 108v162q11 3 33.5 6t44.5 3q44 0 67 -15.5t23 -64.5v-514zM337 778l95 76q33 0 53.5 -17.5t20.5 -43.5q0 -20 -9.5 -34t-36.5 -35l-55 -42q-12 -9 -28 -14.5t-36 -5.5q-27 0 -48.5 9t-47.5 32l-81 71q0 34 14.5 55.5t45.5 21.5q20 0 37.5 -9
t49.5 -39z" />
    <glyph glyph-name="ncaron" unicode="&#x148;" horiz-adv-x="583" 
d="M360 308q0 31 -17.5 45.5t-47.5 14.5q-20 0 -39.5 -5t-33.5 -15v-347q-10 -3 -31.5 -6t-44.5 -3q-22 0 -39.5 3t-29.5 12t-18.5 24.5t-6.5 40.5v300q0 27 11.5 44t31.5 31q34 24 85.5 39t114.5 15q113 0 174 -49.5t61 -137.5v-313q-10 -3 -31.5 -6t-44.5 -3
q-22 0 -39.5 3t-29.5 12t-18.5 24.5t-6.5 40.5v236zM288 656q33 29 52 48t38 36q39 0 62 -18.5t23 -47.5q0 -20 -11 -35t-37 -36l-45 -37q-18 -14 -37.5 -22.5t-41.5 -8.5q-14 0 -25 2t-23 7.5t-26 15.5t-32 26l-74 64q-1 5 -1.5 9t-0.5 9q0 31 16.5 50.5t47.5 19.5
q23 0 39 -10.5t42 -36.5z" />
    <glyph glyph-name="napostrophe" unicode="&#x149;" horiz-adv-x="743" 
d="M520 308q0 31 -17.5 45.5t-47.5 14.5q-20 0 -39.5 -5t-33.5 -15v-347q-10 -3 -31.5 -6t-44.5 -3q-22 0 -39.5 3t-29.5 12t-18.5 24.5t-6.5 40.5v300q0 27 11.5 44t31.5 31q34 24 85.5 39t114.5 15q113 0 174 -49.5t61 -137.5v-313q-10 -3 -31.5 -6t-44.5 -3
q-22 0 -39.5 3t-29.5 12t-18.5 24.5t-6.5 40.5v236zM152 422q-11 -17 -26 -25t-38 -8q-19 0 -35 4t-31 11l10 122t7 113q14 8 36.5 15t43.5 7q16 0 31.5 -3t27.5 -10.5t19 -20t7 -30.5q0 -20 -4 -44t-11.5 -48t-17 -46t-19.5 -37z" />
    <glyph glyph-name="Omacron" unicode="&#x14c;" horiz-adv-x="703" 
d="M35 304q0 78 24.5 138t67 100.5t100 61.5t124.5 21t124.5 -21t100.5 -61.5t67.5 -100.5t24.5 -138t-24 -138.5t-66.5 -101t-100.5 -61.5t-126 -21t-126 21.5t-100 62.5t-66 101t-24 137zM215 304q0 -91 37 -136t99 -45q63 0 100 45t37 136q0 90 -36.5 135t-99.5 45
q-62 0 -99.5 -44.5t-37.5 -135.5zM193 693q-5 11 -10.5 27.5t-5.5 34.5q0 37 15 51.5t40 14.5h265q8 -11 12 -27.5t4 -34.5q0 -37 -14.5 -51.5t-39.5 -14.5h-266z" />
    <glyph glyph-name="omacron" unicode="&#x14d;" horiz-adv-x="586" 
d="M133 564q-5 11 -10.5 27.5t-5.5 34.5q0 37 15 51.5t40 14.5h265q8 -11 12 -27.5t4 -34.5q0 -37 -14.5 -51.5t-39.5 -14.5h-266zM555 243q0 -62 -19 -110.5t-53.5 -81.5t-82.5 -50t-107 -17t-107 18t-82.5 51.5t-53.5 81.5t-19 108q0 59 19 107t53.5 81.5t82.5 51.5
t107 18t107 -18.5t82.5 -52t53.5 -81.5t19 -106zM205 243q0 -61 23.5 -93.5t65.5 -32.5t64.5 33t22.5 93t-23 92.5t-65 32.5t-65 -32.5t-23 -92.5z" />
    <glyph glyph-name="Ohungarumlaut" unicode="&#x150;" horiz-adv-x="703" 
d="M35 304q0 78 24.5 138t67 100.5t100 61.5t124.5 21t124.5 -21t100.5 -61.5t67.5 -100.5t24.5 -138t-24 -138.5t-66.5 -101t-100.5 -61.5t-126 -21t-126 21.5t-100 62.5t-66 101t-24 137zM215 304q0 -91 37 -136t99 -45q63 0 100 45t37 136q0 90 -36.5 135t-99.5 45
q-62 0 -99.5 -44.5t-37.5 -135.5zM231 843q18 3 38 3q38 0 63.5 -17.5t25.5 -46.5q0 -32 -36 -62l-77 -67q-14 0 -31 4t-31.5 12.5t-24.5 20t-10 26.5t9 27zM457 843q18 3 38 3q38 0 63.5 -17.5t25.5 -46.5q0 -32 -36 -62l-77 -67q-14 0 -31 4t-31.5 12.5t-24.5 20t-10 26.5
t9 27z" />
    <glyph glyph-name="ohungarumlaut" unicode="&#x151;" horiz-adv-x="586" 
d="M423 743q12 4 25 5.5t22 1.5q35 0 56.5 -15t21.5 -47q0 -20 -10 -38.5t-26 -34.5l-86 -86q-14 0 -31 4t-31.5 12.5t-24.5 20t-10 26.5t9 27zM195 743q12 4 25 5.5t22 1.5q35 0 56.5 -15t21.5 -47q0 -20 -10 -38.5t-26 -34.5l-86 -86q-14 0 -31 4t-31.5 12.5t-24.5 20
t-10 26.5t9 27zM555 243q0 -62 -19 -110.5t-53.5 -81.5t-82.5 -50t-107 -17t-107 18t-82.5 51.5t-53.5 81.5t-19 108q0 59 19 107t53.5 81.5t82.5 51.5t107 18t107 -18.5t82.5 -52t53.5 -81.5t19 -106zM205 243q0 -61 23.5 -93.5t65.5 -32.5t64.5 33t22.5 93t-23 92.5
t-65 32.5t-65 -32.5t-23 -92.5z" />
    <glyph glyph-name="OE" unicode="&#x152;" horiz-adv-x="952" 
d="M37 304q0 78 24 138t66.5 100.5t100 61.5t123.5 21q42 0 81 -11t71 -34q24 26 69 26h320q7 -11 12.5 -29t5.5 -38q0 -38 -16.5 -54t-43.5 -16h-211v-93h225q7 -11 12.5 -28.5t5.5 -37.5q0 -38 -16 -54t-43 -16h-184v-105h257q7 -11 12.5 -29t5.5 -38q0 -38 -16.5 -54.5
t-43.5 -16.5h-282q-45 0 -70 27q-32 -20 -70.5 -31t-80.5 -11q-68 0 -125.5 21.5t-99.5 62.5t-65.5 101t-23.5 137zM217 304q0 -91 37 -136t99 -45q39 0 69 14.5t47 43.5v245q-35 58 -115 58q-62 0 -99.5 -44.5t-37.5 -135.5z" />
    <glyph glyph-name="oe" unicode="&#x153;" horiz-adv-x="896" 
d="M655 -16q-57 0 -106 18t-84 54q-66 -72 -182 -72q-56 0 -102.5 18t-79.5 51.5t-51.5 81.5t-18.5 108q0 59 18.5 107t51.5 81.5t79.5 51.5t102.5 18q54 0 99 -18t77 -51q33 35 77 52t91 17q53 0 96.5 -16t75 -44t49 -67t17.5 -85q0 -34 -19 -52t-53 -23l-247 -37
q11 -33 45 -49.5t78 -16.5q41 0 77.5 10.5t59.5 24.5q16 -10 27 -28t11 -38q0 -45 -42 -67q-32 -17 -72 -23t-75 -6zM205 243q0 -61 23.5 -93.5t65.5 -32.5t64.5 33t22.5 93t-23 92.5t-65 32.5t-65 -32.5t-23 -92.5zM627 377q-24 0 -41.5 -8t-28.5 -20.5t-16.5 -28
t-6.5 -31.5l171 28q-3 20 -22 40t-56 20z" />
    <glyph glyph-name="Racute" unicode="&#x154;" horiz-adv-x="602" 
d="M232 196v-192q-11 -3 -34.5 -6t-46.5 -3t-40.5 3.5t-29 12.5t-17.5 25t-6 42v471q0 21 11.5 32.5t31.5 18.5q34 12 79 17.5t96 5.5q138 0 208 -58t70 -157q0 -62 -32 -106t-76 -68q36 -49 71 -92t55 -78q-10 -35 -36.5 -53.5t-59.5 -18.5q-22 0 -38 5t-28 14t-22 22
t-19 28l-84 135h-53zM295 329q38 0 60 19.5t22 57.5t-24.5 57.5t-77.5 19.5q-15 0 -24 -1t-20 -3v-150h64zM355 851q49 -4 70 -23.5t21 -45.5q0 -29 -16.5 -46t-51.5 -31l-137 -54q-29 6 -46.5 24t-17.5 40q0 14 7.5 27t23.5 21z" />
    <glyph glyph-name="racute" unicode="&#x155;" horiz-adv-x="411" 
d="M222 1q-10 -3 -31.5 -6t-44.5 -3q-22 0 -39.5 3t-29.5 12t-18.5 24.5t-6.5 40.5v300q0 23 8.5 39.5t24.5 29.5t39.5 23.5t50.5 18.5t56 12.5t58 4.5q48 0 76 -18.5t28 -60.5q0 -14 -4 -27.5t-10 -24.5q-21 0 -43 -2t-43 -6t-39.5 -8.5t-31.5 -10.5v-341zM265 744
q52 0 75.5 -20t23.5 -48q0 -26 -14 -43.5t-46 -34.5l-129 -68q-30 3 -51 24t-21 45q0 12 6 24t20 22z" />
    <glyph glyph-name="Rcommaaccent" unicode="&#x156;" horiz-adv-x="602" 
d="M232 196v-192q-11 -3 -34.5 -6t-46.5 -3t-40.5 3.5t-29 12.5t-17.5 25t-6 42v471q0 21 11.5 32.5t31.5 18.5q34 12 79 17.5t96 5.5q138 0 208 -58t70 -157q0 -62 -32 -106t-76 -68q36 -49 71 -92t55 -78q-10 -35 -36.5 -53.5t-59.5 -18.5q-22 0 -38 5t-28 14t-22 22
t-19 28l-84 135h-53zM295 329q38 0 60 19.5t22 57.5t-24.5 57.5t-77.5 19.5q-15 0 -24 -1t-20 -3v-150h64zM333 -223q-17 -18 -36.5 -25.5t-42.5 -7.5q-38 0 -64 23q21 42 31.5 81.5t15.5 78.5q16 8 37.5 14.5t43.5 6.5q32 0 52 -12t20 -40q0 -12 -5.5 -28.5t-13.5 -33
t-18 -32t-20 -25.5z" />
    <glyph glyph-name="rcommaaccent" unicode="&#x157;" horiz-adv-x="435" 
d="M246 1q-10 -3 -31.5 -6t-44.5 -3q-22 0 -39.5 3t-29.5 12t-18.5 24.5t-6.5 40.5v300q0 23 8.5 39.5t24.5 29.5t39.5 23.5t50.5 18.5t56 12.5t58 4.5q48 0 76 -18.5t28 -60.5q0 -14 -4 -27.5t-10 -24.5q-21 0 -43 -2t-43 -6t-39.5 -8.5t-31.5 -10.5v-341zM195 -223
q-17 -18 -36.5 -25.5t-42.5 -7.5q-38 0 -64 23q21 42 31.5 81.5t15.5 78.5q16 8 37.5 14.5t43.5 6.5q32 0 52 -12t20 -40q0 -12 -5.5 -28.5t-13.5 -33t-18 -32t-20 -25.5z" />
    <glyph glyph-name="Rcaron" unicode="&#x158;" horiz-adv-x="602" 
d="M232 196v-192q-11 -3 -34.5 -6t-46.5 -3t-40.5 3.5t-29 12.5t-17.5 25t-6 42v471q0 21 11.5 32.5t31.5 18.5q34 12 79 17.5t96 5.5q138 0 208 -58t70 -157q0 -62 -32 -106t-76 -68q36 -49 71 -92t55 -78q-10 -35 -36.5 -53.5t-59.5 -18.5q-22 0 -38 5t-28 14t-22 22
t-19 28l-84 135h-53zM295 329q38 0 60 19.5t22 57.5t-24.5 57.5t-77.5 19.5q-15 0 -24 -1t-20 -3v-150h64zM304 778l95 76q33 0 53.5 -17.5t20.5 -43.5q0 -20 -9.5 -34t-36.5 -35l-55 -42q-12 -9 -28 -14.5t-36 -5.5q-27 0 -48.5 9t-47.5 32l-81 71q0 34 14.5 55.5
t45.5 21.5q20 0 37.5 -9t49.5 -39z" />
    <glyph glyph-name="rcaron" unicode="&#x159;" horiz-adv-x="428" 
d="M222 1q-10 -3 -31.5 -6t-44.5 -3q-22 0 -39.5 3t-29.5 12t-18.5 24.5t-6.5 40.5v300q0 23 8.5 39.5t24.5 29.5t39.5 23.5t50.5 18.5t56 12.5t58 4.5q48 0 76 -18.5t28 -60.5q0 -14 -4 -27.5t-10 -24.5q-21 0 -43 -2t-43 -6t-39.5 -8.5t-31.5 -10.5v-341zM235 656
q33 29 52 48t38 36q39 0 62 -18.5t23 -47.5q0 -20 -11 -35t-37 -36l-45 -37q-18 -14 -37.5 -22.5t-41.5 -8.5q-14 0 -25 2t-23 7.5t-26 15.5t-32 26l-74 64q-1 5 -1.5 9t-0.5 9q0 31 16.5 50.5t47.5 19.5q23 0 39 -10.5t42 -36.5z" />
    <glyph glyph-name="Sacute" unicode="&#x15a;" horiz-adv-x="551" 
d="M237 241q-44 15 -80 30.5t-62 37.5t-40.5 52.5t-14.5 74.5q0 85 65.5 136t183.5 51q43 0 80 -6t63.5 -18.5t41.5 -32t15 -45.5t-12 -44.5t-29 -31.5q-22 14 -59 24.5t-81 10.5q-45 0 -66 -12.5t-21 -31.5q0 -15 13 -24.5t39 -17.5l53 -17q94 -30 144.5 -76.5t50.5 -126.5
q0 -85 -67 -137.5t-197 -52.5q-46 0 -85.5 7.5t-69 22t-46 36t-16.5 49.5q0 29 17 49.5t37 31.5q28 -22 68.5 -38t88.5 -16q49 0 69 15t20 35t-16 30.5t-45 20.5zM336 851q49 -4 70 -23.5t21 -45.5q0 -29 -16.5 -46t-51.5 -31l-137 -54q-29 6 -46.5 24t-17.5 40q0 14 7.5 27
t23.5 21z" />
    <glyph glyph-name="sacute" unicode="&#x15b;" horiz-adv-x="492" 
d="M462 145q0 -76 -57 -119t-168 -43q-42 0 -78 6t-61.5 18.5t-40 31.5t-14.5 45q0 24 10 40.5t24 27.5q29 -16 66.5 -28.5t86.5 -12.5q31 0 47.5 9t16.5 24q0 14 -12 22t-40 13l-30 6q-87 17 -129.5 53.5t-42.5 104.5q0 37 16 67t45 50t69.5 31t89.5 11q37 0 69.5 -5.5
t56.5 -16.5t38 -28.5t14 -41.5q0 -23 -8.5 -39.5t-21.5 -27.5q-8 5 -24 10.5t-35 10t-38.5 7.5t-35.5 3q-33 0 -51 -7.5t-18 -23.5q0 -11 10 -18t38 -13l31 -7q96 -22 136.5 -60.5t40.5 -99.5zM309 744q52 0 75.5 -20t23.5 -48q0 -26 -14 -43.5t-46 -34.5l-129 -68
q-30 3 -51 24t-21 45q0 12 6 24t20 22z" />
    <glyph glyph-name="Scircumflex" unicode="&#x15c;" horiz-adv-x="551" 
d="M237 241q-44 15 -80 30.5t-62 37.5t-40.5 52.5t-14.5 74.5q0 85 65.5 136t183.5 51q43 0 80 -6t63.5 -18.5t41.5 -32t15 -45.5t-12 -44.5t-29 -31.5q-22 14 -59 24.5t-81 10.5q-45 0 -66 -12.5t-21 -31.5q0 -15 13 -24.5t39 -17.5l53 -17q94 -30 144.5 -76.5t50.5 -126.5
q0 -85 -67 -137.5t-197 -52.5q-46 0 -85.5 7.5t-69 22t-46 36t-16.5 49.5q0 29 17 49.5t37 31.5q28 -22 68.5 -38t88.5 -16q49 0 69 15t20 35t-16 30.5t-45 20.5zM279 734l-55 -39.5l-46 -32.5q-30 0 -50.5 17.5t-20.5 43.5q0 20 9.5 35t36.5 34l36 26q25 17 46.5 26.5
t41.5 9.5q27 0 46 -9t45 -32l81 -71q0 -34 -14.5 -55.5t-45.5 -21.5q-10 0 -18.5 2t-18.5 7t-22 14.5t-28 24.5z" />
    <glyph glyph-name="scircumflex" unicode="&#x15d;" horiz-adv-x="492" 
d="M462 145q0 -76 -57 -119t-168 -43q-42 0 -78 6t-61.5 18.5t-40 31.5t-14.5 45q0 24 10 40.5t24 27.5q29 -16 66.5 -28.5t86.5 -12.5q31 0 47.5 9t16.5 24q0 14 -12 22t-40 13l-30 6q-87 17 -129.5 53.5t-42.5 104.5q0 37 16 67t45 50t69.5 31t89.5 11q37 0 69.5 -5.5
t56.5 -16.5t38 -28.5t14 -41.5q0 -23 -8.5 -39.5t-21.5 -27.5q-8 5 -24 10.5t-35 10t-38.5 7.5t-35.5 3q-33 0 -51 -7.5t-18 -23.5q0 -11 10 -18t38 -13l31 -7q96 -22 136.5 -60.5t40.5 -99.5zM241 622q-34 -29 -53 -47l-38 -35q-39 0 -62 18.5t-23 47.5q0 20 11 36t37 35
l49 35q24 17 43.5 24.5t39.5 7.5q13 0 23.5 -1.5t21.5 -7t24 -16l33 -27.5l70 -62q1 -5 1.5 -9t0.5 -9q0 -31 -16.5 -50.5t-47.5 -19.5q-10 0 -18 1.5t-16.5 6.5t-19.5 14.5t-26 25.5z" />
    <glyph glyph-name="Scedilla" unicode="&#x15e;" horiz-adv-x="551" 
d="M344 -8q7 -11 14.5 -31.5t7.5 -47.5q0 -52 -32 -86t-91 -34q-42 0 -67.5 21.5t-25.5 59.5q0 11 1.5 17.5t3.5 12.5q65 3 65 49q0 6 -1.5 15.5t-5.5 17.5q-38 3 -69.5 11.5t-54.5 23t-36 34t-13 44.5q0 29 17 49.5t37 31.5q28 -22 68.5 -38t88.5 -16q49 0 69 15t20 35
t-16 30.5t-45 20.5l-42 14q-44 15 -80 30.5t-62 37.5t-40.5 52.5t-14.5 74.5q0 85 65.5 136t183.5 51q43 0 80 -6t63.5 -18.5t41.5 -32t15 -45.5t-12 -44.5t-29 -31.5q-22 14 -59 24.5t-81 10.5q-45 0 -66 -12.5t-21 -31.5q0 -15 13 -24.5t39 -17.5l53 -17
q94 -30 144.5 -76.5t50.5 -126.5q0 -69 -44.5 -117t-132.5 -65z" />
    <glyph glyph-name="scedilla" unicode="&#x15f;" horiz-adv-x="492" 
d="M330 -7q4 -7 7 -17t5.5 -21t4 -22t1.5 -20q0 -51 -32 -84.5t-89 -33.5q-41 0 -67 20.5t-26 58.5q0 17 4 30q32 2 50 15.5t18 36.5q0 8 -2 16t-4 13q-72 5 -114.5 29.5t-42.5 69.5q0 24 10 40.5t24 27.5q29 -16 66.5 -28.5t86.5 -12.5q31 0 47.5 9t16.5 24q0 14 -12 22
t-40 13l-30 6q-87 17 -129.5 53.5t-42.5 104.5q0 37 16 67t45 50t69.5 31t89.5 11q37 0 69.5 -5.5t56.5 -16.5t38 -28.5t14 -41.5q0 -23 -8.5 -39.5t-21.5 -27.5q-8 5 -24 10.5t-35 10t-38.5 7.5t-35.5 3q-33 0 -51 -7.5t-18 -23.5q0 -11 10 -18t38 -13l31 -7
q96 -22 136.5 -60.5t40.5 -99.5q0 -62 -36 -100t-96 -52z" />
    <glyph glyph-name="Scaron" unicode="&#x160;" horiz-adv-x="551" 
d="M237 241q-44 15 -80 30.5t-62 37.5t-40.5 52.5t-14.5 74.5q0 85 65.5 136t183.5 51q43 0 80 -6t63.5 -18.5t41.5 -32t15 -45.5t-12 -44.5t-29 -31.5q-22 14 -59 24.5t-81 10.5q-45 0 -66 -12.5t-21 -31.5q0 -15 13 -24.5t39 -17.5l53 -17q94 -30 144.5 -76.5t50.5 -126.5
q0 -85 -67 -137.5t-197 -52.5q-46 0 -85.5 7.5t-69 22t-46 36t-16.5 49.5q0 29 17 49.5t37 31.5q28 -22 68.5 -38t88.5 -16q49 0 69 15t20 35t-16 30.5t-45 20.5zM273 778l95 76q33 0 53.5 -17.5t20.5 -43.5q0 -20 -9.5 -34t-36.5 -35l-55 -42q-12 -9 -28 -14.5t-36 -5.5
q-27 0 -48.5 9t-47.5 32l-81 71q0 34 14.5 55.5t45.5 21.5q20 0 37.5 -9t49.5 -39z" />
    <glyph glyph-name="scaron" unicode="&#x161;" horiz-adv-x="492" 
d="M462 145q0 -76 -57 -119t-168 -43q-42 0 -78 6t-61.5 18.5t-40 31.5t-14.5 45q0 24 10 40.5t24 27.5q29 -16 66.5 -28.5t86.5 -12.5q31 0 47.5 9t16.5 24q0 14 -12 22t-40 13l-30 6q-87 17 -129.5 53.5t-42.5 104.5q0 37 16 67t45 50t69.5 31t89.5 11q37 0 69.5 -5.5
t56.5 -16.5t38 -28.5t14 -41.5q0 -23 -8.5 -39.5t-21.5 -27.5q-8 5 -24 10.5t-35 10t-38.5 7.5t-35.5 3q-33 0 -51 -7.5t-18 -23.5q0 -11 10 -18t38 -13l31 -7q96 -22 136.5 -60.5t40.5 -99.5zM240 656q33 29 52 48t38 36q39 0 62 -18.5t23 -47.5q0 -20 -11 -35t-37 -36
l-45 -37q-18 -14 -37.5 -22.5t-41.5 -8.5q-14 0 -25 2t-23 7.5t-26 15.5t-32 26l-74 64q-1 5 -1.5 9t-0.5 9q0 31 16.5 50.5t47.5 19.5q23 0 39 -10.5t42 -36.5z" />
    <glyph glyph-name="Tcommaaccent" unicode="&#x162;" horiz-adv-x="556" 
d="M37 466q-7 11 -13 30t-6 40q0 39 17.5 56t45.5 17h436q7 -11 13 -30t6 -40q0 -39 -17.5 -56t-45.5 -17h-111v-462q-11 -3 -34.5 -6t-46.5 -3t-40.5 3.5t-29.5 12.5t-18 25t-6 42v388h-150zM311 -223q-17 -18 -36.5 -25.5t-42.5 -7.5q-38 0 -64 23q21 42 31.5 81.5
t15.5 78.5q16 8 37.5 14.5t43.5 6.5q32 0 52 -12t20 -40q0 -12 -5.5 -28.5t-13.5 -33t-18 -32t-20 -25.5z" />
    <glyph glyph-name="tcommaaccent" unicode="&#x163;" horiz-adv-x="400" 
d="M222 167q0 -26 16.5 -37t46.5 -11q15 0 31 2.5t28 6.5q9 -11 15.5 -24.5t6.5 -32.5q0 -38 -28.5 -62t-100.5 -24q-88 0 -135.5 40t-47.5 130v428q11 3 31.5 6.5t43.5 3.5q44 0 68.5 -15.5t24.5 -65.5v-64h131q6 -11 11.5 -27.5t5.5 -36.5q0 -35 -15.5 -50.5t-41.5 -15.5
h-91v-151zM234 -223q-17 -18 -36.5 -25.5t-42.5 -7.5q-38 0 -64 23q21 42 31.5 81.5t15.5 78.5q16 8 37.5 14.5t43.5 6.5q32 0 52 -12t20 -40q0 -12 -5.5 -28.5t-13.5 -33t-18 -32t-20 -25.5z" />
    <glyph glyph-name="Tcaron" unicode="&#x164;" horiz-adv-x="556" 
d="M37 466q-7 11 -13 30t-6 40q0 39 17.5 56t45.5 17h436q7 -11 13 -30t6 -40q0 -39 -17.5 -56t-45.5 -17h-111v-462q-11 -3 -34.5 -6t-46.5 -3t-40.5 3.5t-29.5 12.5t-18 25t-6 42v388h-150zM284 778l95 76q33 0 53.5 -17.5t20.5 -43.5q0 -20 -9.5 -34t-36.5 -35l-55 -42
q-12 -9 -28 -14.5t-36 -5.5q-27 0 -48.5 9t-47.5 32l-81 71q0 34 14.5 55.5t45.5 21.5q20 0 37.5 -9t49.5 -39z" />
    <glyph glyph-name="tcaron" unicode="&#x165;" horiz-adv-x="628" 
d="M556 422q-11 -17 -26 -25t-38 -8q-19 0 -35 4t-31 11l10 122t7 113q14 8 36.5 15t43.5 7q16 0 31.5 -3t27.5 -10.5t19 -20t7 -30.5q0 -20 -4 -44t-11.5 -48t-17 -46t-19.5 -37zM222 167q0 -26 16.5 -37t46.5 -11q15 0 31 2.5t28 6.5q9 -11 15.5 -24.5t6.5 -32.5
q0 -38 -28.5 -62t-100.5 -24q-88 0 -135.5 40t-47.5 130v428q11 3 31.5 6.5t43.5 3.5q44 0 68.5 -15.5t24.5 -65.5v-64h131q6 -11 11.5 -27.5t5.5 -36.5q0 -35 -15.5 -50.5t-41.5 -15.5h-91v-151z" />
    <glyph glyph-name="Utilde" unicode="&#x168;" horiz-adv-x="664" 
d="M602 224q0 -54 -18.5 -98.5t-53.5 -76t-85 -48.5t-113 -17t-113 17t-85 48.5t-53.5 76t-18.5 98.5v382q11 2 35 5.5t46 3.5q23 0 40.5 -3.5t29.5 -12.5t18 -25t6 -42v-305q0 -48 26.5 -75t68.5 -27q43 0 69 27t26 75v379q11 2 35 5.5t46 3.5q23 0 40.5 -3.5t29.5 -12.5
t18 -25t6 -42v-308zM331 828q18 -5 30 -8t20 -3q22 0 34 13t17 22q35 0 58.5 -22.5t23.5 -57.5q0 -45 -28 -66t-70 -21q-14 0 -28 1.5t-31 6.5l-40 12l-23.5 6.5t-18.5 2.5q-22 0 -33.5 -12.5t-17.5 -22.5q-35 0 -58.5 22.5t-23.5 57.5q0 22 8.5 38.5t22.5 27.5t31.5 16
t35.5 5q13 0 31.5 -3t59.5 -15z" />
    <glyph glyph-name="utilde" unicode="&#x169;" horiz-adv-x="582" 
d="M52 479q10 3 31.5 6t44.5 3q22 0 39.5 -3t29.5 -12t18.5 -24.5t6.5 -40.5v-215q0 -41 20 -58.5t58 -17.5q23 0 37.5 4t22.5 8v350q10 3 31.5 6t44.5 3q22 0 39.5 -3t29.5 -12t18.5 -24.5t6.5 -40.5v-304q0 -50 -42 -75q-35 -22 -83.5 -33.5t-105.5 -11.5q-54 0 -99.5 12
t-78.5 37t-51 64.5t-18 95.5v286zM290 697q18 -5 30 -8t20 -3q22 0 34 13t17 22q35 0 58.5 -22.5t23.5 -57.5q0 -45 -28 -66t-70 -21q-14 0 -28 1.5t-31 6.5l-40 12l-23.5 6.5t-18.5 2.5q-22 0 -33.5 -12.5t-17.5 -22.5q-35 0 -58.5 22.5t-23.5 57.5q0 22 8.5 38.5
t22.5 27.5t31.5 16t35.5 5q13 0 31.5 -3t59.5 -15z" />
    <glyph glyph-name="Umacron" unicode="&#x16a;" horiz-adv-x="664" 
d="M602 224q0 -54 -18.5 -98.5t-53.5 -76t-85 -48.5t-113 -17t-113 17t-85 48.5t-53.5 76t-18.5 98.5v382q11 2 35 5.5t46 3.5q23 0 40.5 -3.5t29.5 -12.5t18 -25t6 -42v-305q0 -48 26.5 -75t68.5 -27q43 0 69 27t26 75v379q11 2 35 5.5t46 3.5q23 0 40.5 -3.5t29.5 -12.5
t18 -25t6 -42v-308zM167 693q-5 11 -10.5 27.5t-5.5 34.5q0 37 15 51.5t40 14.5h265q8 -11 12 -27.5t4 -34.5q0 -37 -14.5 -51.5t-39.5 -14.5h-266z" />
    <glyph glyph-name="umacron" unicode="&#x16b;" horiz-adv-x="582" 
d="M52 479q10 3 31.5 6t44.5 3q22 0 39.5 -3t29.5 -12t18.5 -24.5t6.5 -40.5v-215q0 -41 20 -58.5t58 -17.5q23 0 37.5 4t22.5 8v350q10 3 31.5 6t44.5 3q22 0 39.5 -3t29.5 -12t18.5 -24.5t6.5 -40.5v-304q0 -50 -42 -75q-35 -22 -83.5 -33.5t-105.5 -11.5q-54 0 -99.5 12
t-78.5 37t-51 64.5t-18 95.5v286zM144 564q-5 11 -10.5 27.5t-5.5 34.5q0 37 15 51.5t40 14.5h265q8 -11 12 -27.5t4 -34.5q0 -37 -14.5 -51.5t-39.5 -14.5h-266z" />
    <glyph glyph-name="Ubreve" unicode="&#x16c;" horiz-adv-x="664" 
d="M602 224q0 -54 -18.5 -98.5t-53.5 -76t-85 -48.5t-113 -17t-113 17t-85 48.5t-53.5 76t-18.5 98.5v382q11 2 35 5.5t46 3.5q23 0 40.5 -3.5t29.5 -12.5t18 -25t6 -42v-305q0 -48 26.5 -75t68.5 -27q43 0 69 27t26 75v379q11 2 35 5.5t46 3.5q23 0 40.5 -3.5t29.5 -12.5
t18 -25t6 -42v-308zM334 684q-84 0 -129 30.5t-45 75.5q0 26 19.5 49t60.5 23h9t9 -1q5 -22 25 -37t51 -15t50.5 15t25.5 37q5 1 9 1h9q41 0 60.5 -23t19.5 -49q0 -45 -45 -75.5t-129 -30.5z" />
    <glyph glyph-name="ubreve" unicode="&#x16d;" horiz-adv-x="582" 
d="M52 479q10 3 31.5 6t44.5 3q22 0 39.5 -3t29.5 -12t18.5 -24.5t6.5 -40.5v-215q0 -41 20 -58.5t58 -17.5q23 0 37.5 4t22.5 8v350q10 3 31.5 6t44.5 3q22 0 39.5 -3t29.5 -12t18.5 -24.5t6.5 -40.5v-304q0 -50 -42 -75q-35 -22 -83.5 -33.5t-105.5 -11.5q-54 0 -99.5 12
t-78.5 37t-51 64.5t-18 95.5v286zM293 553q-84 0 -129 30.5t-45 75.5q0 26 19.5 49t60.5 23h9t9 -1q5 -22 25 -37t51 -15t50.5 15t25.5 37q5 1 9 1h9q41 0 60.5 -23t19.5 -49q0 -45 -45 -75.5t-129 -30.5z" />
    <glyph glyph-name="Uring" unicode="&#x16e;" horiz-adv-x="664" 
d="M602 224q0 -54 -18.5 -98.5t-53.5 -76t-85 -48.5t-113 -17t-113 17t-85 48.5t-53.5 76t-18.5 98.5v382q11 2 35 5.5t46 3.5q23 0 40.5 -3.5t29.5 -12.5t18 -25t6 -42v-305q0 -48 26.5 -75t68.5 -27q43 0 69 27t26 75v379q11 2 35 5.5t46 3.5q23 0 40.5 -3.5t29.5 -12.5
t18 -25t6 -42v-308zM204 754q0 47 36 78t96 31q63 0 100 -31t37 -78t-37 -77.5t-100 -30.5q-60 0 -96 30.5t-36 77.5zM305 754q0 -14 9.5 -22.5t22.5 -8.5q15 0 24.5 8.5t9.5 22.5t-9.5 22.5t-24.5 8.5q-13 0 -22.5 -8.5t-9.5 -22.5z" />
    <glyph glyph-name="uring" unicode="&#x16f;" horiz-adv-x="582" 
d="M52 479q10 3 31.5 6t44.5 3q22 0 39.5 -3t29.5 -12t18.5 -24.5t6.5 -40.5v-215q0 -41 20 -58.5t58 -17.5q23 0 37.5 4t22.5 8v350q10 3 31.5 6t44.5 3q22 0 39.5 -3t29.5 -12t18.5 -24.5t6.5 -40.5v-304q0 -50 -42 -75q-35 -22 -83.5 -33.5t-105.5 -11.5q-54 0 -99.5 12
t-78.5 37t-51 64.5t-18 95.5v286zM152 641q0 47 35.5 79.5t96.5 32.5q65 0 101 -32.5t36 -79.5t-36 -79t-101 -32q-61 0 -96.5 32t-35.5 79zM253 641q0 -16 9.5 -25t22.5 -9q15 0 24.5 9t9.5 25t-9.5 25t-24.5 9q-13 0 -22.5 -9t-9.5 -25z" />
    <glyph glyph-name="Uhungarumlaut" unicode="&#x170;" horiz-adv-x="664" 
d="M602 224q0 -54 -18.5 -98.5t-53.5 -76t-85 -48.5t-113 -17t-113 17t-85 48.5t-53.5 76t-18.5 98.5v382q11 2 35 5.5t46 3.5q23 0 40.5 -3.5t29.5 -12.5t18 -25t6 -42v-305q0 -48 26.5 -75t68.5 -27q43 0 69 27t26 75v379q11 2 35 5.5t46 3.5q23 0 40.5 -3.5t29.5 -12.5
t18 -25t6 -42v-308zM214 843q18 3 38 3q38 0 63.5 -17.5t25.5 -46.5q0 -32 -36 -62l-77 -67q-14 0 -31 4t-31.5 12.5t-24.5 20t-10 26.5t9 27zM440 843q18 3 38 3q38 0 63.5 -17.5t25.5 -46.5q0 -32 -36 -62l-77 -67q-14 0 -31 4t-31.5 12.5t-24.5 20t-10 26.5t9 27z" />
    <glyph glyph-name="uhungarumlaut" unicode="&#x171;" horiz-adv-x="595" 
d="M52 479q10 3 31.5 6t44.5 3q22 0 39.5 -3t29.5 -12t18.5 -24.5t6.5 -40.5v-215q0 -41 20 -58.5t58 -17.5q23 0 37.5 4t22.5 8v350q10 3 31.5 6t44.5 3q22 0 39.5 -3t29.5 -12t18.5 -24.5t6.5 -40.5v-304q0 -50 -42 -75q-35 -22 -83.5 -33.5t-105.5 -11.5q-54 0 -99.5 12
t-78.5 37t-51 64.5t-18 95.5v286zM418 743q12 4 25 5.5t22 1.5q35 0 56.5 -15t21.5 -47q0 -20 -10 -38.5t-26 -34.5l-86 -86q-14 0 -31 4t-31.5 12.5t-24.5 20t-10 26.5t9 27zM190 743q12 4 25 5.5t22 1.5q35 0 56.5 -15t21.5 -47q0 -20 -10 -38.5t-26 -34.5l-86 -86
q-14 0 -31 4t-31.5 12.5t-24.5 20t-10 26.5t9 27z" />
    <glyph glyph-name="Uogonek" unicode="&#x172;" horiz-adv-x="664" 
d="M256 -9q-92 19 -143 80t-51 153v382q11 2 35 5.5t46 3.5q23 0 40.5 -3.5t29.5 -12.5t18 -25t6 -42v-305q0 -48 26.5 -75t68.5 -27q43 0 69 27t26 75v379q11 2 35 5.5t46 3.5q23 0 40.5 -3.5t29.5 -12.5t18 -25t6 -42v-308q0 -96 -56 -159t-157 -76q-9 -12 -9 -32
q0 -43 59 -43q3 -9 5 -19t2 -23q0 -29 -20 -51.5t-72 -22.5q-27 0 -50.5 7.5t-41 22.5t-27.5 36t-10 48q0 29 9.5 48t21.5 31z" />
    <glyph glyph-name="uogonek" unicode="&#x173;" horiz-adv-x="582" 
d="M466 17q-10 -11 -17.5 -24.5t-7.5 -31.5q0 -20 15 -33.5t44 -13.5q3 -9 5 -19t2 -23q0 -29 -20 -51.5t-72 -22.5q-27 0 -50.5 7.5t-41 22.5t-27.5 36t-10 48q0 26 7.5 43t17.5 29h-12q-54 0 -99.5 12t-78.5 37t-51 64.5t-18 95.5v286q10 3 31.5 6t44.5 3q22 0 39.5 -3
t29.5 -12t18.5 -24.5t6.5 -40.5v-215q0 -41 20 -58.5t58 -17.5q23 0 37.5 4t22.5 8v350q10 3 31.5 6t44.5 3q22 0 39.5 -3t29.5 -12t18.5 -24.5t6.5 -40.5v-304q0 -31 -15.5 -51t-48.5 -36z" />
    <glyph glyph-name="Wcircumflex" unicode="&#x174;" horiz-adv-x="885" 
d="M349 458q11 5 34.5 11.5t47.5 6.5q42 0 70 -12.5t34 -36.5l20.5 -76.5l18.5 -68l17.5 -64.5t16.5 -67h5q9 61 16 116.5t13 109l12 106l12 106.5q37 21 79 21q37 0 64 -16t27 -54q0 -22 -4.5 -62.5t-12 -90.5t-17.5 -105t-21 -105t-22.5 -90.5t-21.5 -62.5
q-15 -14 -49 -23t-70 -9q-47 0 -79.5 12.5t-39.5 35.5q-13 40 -28 95l-32 121q-14 -65 -29 -127t-27 -105q-15 -14 -45 -23t-66 -9q-45 0 -81.5 12.5t-47.5 35.5q-9 18 -19.5 53.5t-21.5 81t-22.5 98.5t-21 106t-17.5 103.5t-12 92.5q14 13 39 24t54 11q38 0 62.5 -16.5
t30.5 -55.5l26.5 -170l17 -111.5t9.5 -67.5t6 -38h5l17 74l16.5 68.5l17.5 74t19 90.5zM440 753q-34 -29 -53 -47l-38 -35q-39 0 -62 18.5t-23 47.5q0 20 11 36t37 35l49 35q24 17 43.5 24.5t39.5 7.5q13 0 23.5 -1.5t21.5 -7t24 -16l33 -27.5l70 -62q1 -5 1.5 -9t0.5 -9
q0 -31 -16.5 -50.5t-47.5 -19.5q-10 0 -18 1.5t-16.5 6.5t-19.5 14.5t-26 25.5z" />
    <glyph glyph-name="wcircumflex" unicode="&#x175;" horiz-adv-x="800" 
d="M328 15q-14 -12 -38 -19.5t-57 -7.5q-41 0 -71 11.5t-40 32.5q-11 24 -25.5 76t-28.5 114t-26.5 126t-19.5 113q14 14 37.5 24.5t51.5 10.5q35 0 57.5 -15.5t27.5 -53.5l17 -125.5l11.5 -81l7 -48t4.5 -26.5h4q3 16 10.5 46.5l17.5 69.5l21 84.5l22 90.5q20 11 39.5 17
t48.5 6q35 0 60 -11t32 -34l23 -85.5l20 -77l16 -63t10 -43.5h5q11 77 21.5 160t19.5 169q18 11 38 16t40 5q35 0 58 -15t23 -52q0 -16 -5 -48t-13 -72t-18.5 -84l-21 -85t-20 -74t-16.5 -51q-14 -12 -43 -19.5t-62 -7.5q-84 0 -99 42l-15 45.5l-19 60.5t-19 68.5t-15 68.5
q-7 -35 -17 -72.5t-20.5 -73l-19.5 -65t-14 -47.5zM397 622q-34 -29 -53 -47l-38 -35q-39 0 -62 18.5t-23 47.5q0 20 11 36t37 35l49 35q24 17 43.5 24.5t39.5 7.5q13 0 23.5 -1.5t21.5 -7t24 -16l33 -27.5l70 -62q1 -5 1.5 -9t0.5 -9q0 -31 -16.5 -50.5t-47.5 -19.5
q-10 0 -18 1.5t-16.5 6.5t-19.5 14.5t-26 25.5z" />
    <glyph glyph-name="Ycircumflex" unicode="&#x176;" horiz-adv-x="574" 
d="M383 4q-11 -3 -34 -6t-45 -3q-46 0 -69 15.5t-23 65.5v135l-54 82l-57 92t-52 92.5t-39 83.5q13 18 35.5 33t55.5 15q39 0 63.5 -16t46.5 -60l83 -167h6q14 31 24.5 56.5l20.5 51l21 53l25 63.5q18 9 40 14t42 5q35 0 59.5 -18.5t24.5 -55.5q0 -12 -5 -29t-23 -51.5
t-52.5 -93.5l-93.5 -154v-203zM289 753q-34 -29 -53 -47l-38 -35q-39 0 -62 18.5t-23 47.5q0 20 11 36t37 35l49 35q24 17 43.5 24.5t39.5 7.5q13 0 23.5 -1.5t21.5 -7t24 -16l33 -27.5l70 -62q1 -5 1.5 -9t0.5 -9q0 -31 -16.5 -50.5t-47.5 -19.5q-10 0 -18 1.5t-16.5 6.5
t-19.5 14.5t-26 25.5z" />
    <glyph glyph-name="ycircumflex" unicode="&#x177;" horiz-adv-x="550" 
d="M128 124l-23.5 56t-26 71t-28 91.5t-30.5 118.5q14 14 37.5 24.5t51.5 10.5q35 0 58 -14.5t34 -54.5l79 -275h4q12 34 23.5 74t22.5 82.5t20.5 85t16.5 83.5q36 19 79 19q35 0 58 -15t23 -52q0 -27 -7 -62.5t-18.5 -75.5t-27 -82.5t-32.5 -83.5t-35 -77.5t-35 -65.5
q-28 -49 -52 -80t-46 -48.5t-44 -24t-46 -6.5q-42 0 -68 25t-31 65q32 25 64 55.5t58 62.5q-17 5 -36.5 23.5t-42.5 69.5zM268 622q-34 -29 -53 -47l-38 -35q-39 0 -62 18.5t-23 47.5q0 20 11 36t37 35l49 35q24 17 43.5 24.5t39.5 7.5q13 0 23.5 -1.5t21.5 -7t24 -16
l33 -27.5l70 -62q1 -5 1.5 -9t0.5 -9q0 -31 -16.5 -50.5t-47.5 -19.5q-10 0 -18 1.5t-16.5 6.5t-19.5 14.5t-26 25.5z" />
    <glyph glyph-name="Ydieresis" unicode="&#x178;" horiz-adv-x="574" 
d="M383 4q-11 -3 -34 -6t-45 -3q-46 0 -69 15.5t-23 65.5v135l-54 82l-57 92t-52 92.5t-39 83.5q13 18 35.5 33t55.5 15q39 0 63.5 -16t46.5 -60l83 -167h6q14 31 24.5 56.5l20.5 51l21 53l25 63.5q18 9 40 14t42 5q35 0 59.5 -18.5t24.5 -55.5q0 -12 -5 -29t-23 -51.5
t-52.5 -93.5l-93.5 -154v-203zM90 755q0 35 25 60.5t62 25.5q42 0 66 -25.5t24 -60.5t-24 -60.5t-66 -25.5q-18 0 -34 7t-28 18.5t-18.5 27t-6.5 33.5zM314 755q0 35 23.5 60.5t65.5 25.5q19 0 35 -7t28 -19t18.5 -27.5t6.5 -32.5q0 -35 -25 -60.5t-63 -25.5
q-42 0 -65.5 25.5t-23.5 60.5z" />
    <glyph glyph-name="Zacute" unicode="&#x179;" horiz-adv-x="560" 
d="M308 466h-246q-7 11 -13 30t-6 40q0 39 17.5 56t45.5 17h373q44 -36 44 -96q0 -25 -11.5 -49.5t-29.5 -46.5l-227 -274h256q7 -11 13 -30t6 -40q0 -39 -17.5 -56t-45.5 -17h-394q-17 14 -28 38t-11 55q0 25 13 51t31 48zM339 851q49 -4 70 -23.5t21 -45.5
q0 -29 -16.5 -46t-51.5 -31l-137 -54q-29 6 -46.5 24t-17.5 40q0 14 7.5 27t23.5 21z" />
    <glyph glyph-name="zacute" unicode="&#x17a;" horiz-adv-x="481" 
d="M69 0q-16 14 -25.5 33t-9.5 43q0 20 9.5 39.5t23.5 36.5l172 202h-184q-6 11 -11.5 28t-5.5 37q0 35 15.5 50.5t41.5 15.5h315q16 -14 25.5 -33t9.5 -43q0 -20 -9.5 -39.5t-23.5 -36.5l-168 -202h196q6 -11 11.5 -28t5.5 -37q0 -35 -15.5 -50.5t-41.5 -15.5h-331z
M285 744q52 0 75.5 -20t23.5 -48q0 -26 -14 -43.5t-46 -34.5l-129 -68q-30 3 -51 24t-21 45q0 12 6 24t20 22z" />
    <glyph glyph-name="Zdotaccent" unicode="&#x17b;" horiz-adv-x="560" 
d="M308 466h-246q-7 11 -13 30t-6 40q0 39 17.5 56t45.5 17h373q44 -36 44 -96q0 -25 -11.5 -49.5t-29.5 -46.5l-227 -274h256q7 -11 13 -30t6 -40q0 -39 -17.5 -56t-45.5 -17h-394q-17 14 -28 38t-11 55q0 25 13 51t31 48zM194 754q0 37 24.5 62t64.5 25q42 0 66.5 -25
t24.5 -62t-24.5 -62t-66.5 -25q-40 0 -64.5 25t-24.5 62z" />
    <glyph glyph-name="zdotaccent" unicode="&#x17c;" horiz-adv-x="481" 
d="M69 -1q-16 14 -25.5 33t-9.5 43q0 20 9.5 39.5t23.5 36.5l172 202h-184q-6 11 -11.5 28t-5.5 37q0 35 15.5 50.5t41.5 15.5h315q16 -14 25.5 -33t9.5 -43q0 -20 -9.5 -39.5t-23.5 -36.5l-168 -202h196q6 -11 11.5 -28t5.5 -37q0 -35 -15.5 -50.5t-41.5 -15.5h-331z
M156 626q0 37 24.5 62t64.5 25q42 0 66.5 -25t24.5 -62t-24.5 -62t-66.5 -25q-40 0 -64.5 25t-24.5 62z" />
    <glyph glyph-name="Zcaron" unicode="&#x17d;" horiz-adv-x="560" 
d="M308 466h-246q-7 11 -13 30t-6 40q0 39 17.5 56t45.5 17h373q44 -36 44 -96q0 -25 -11.5 -49.5t-29.5 -46.5l-227 -274h256q7 -11 13 -30t6 -40q0 -39 -17.5 -56t-45.5 -17h-394q-17 14 -28 38t-11 55q0 25 13 51t31 48zM289 778l95 76q33 0 53.5 -17.5t20.5 -43.5
q0 -20 -9.5 -34t-36.5 -35l-55 -42q-12 -9 -28 -14.5t-36 -5.5q-27 0 -48.5 9t-47.5 32l-81 71q0 34 14.5 55.5t45.5 21.5q20 0 37.5 -9t49.5 -39z" />
    <glyph glyph-name="zcaron" unicode="&#x17e;" horiz-adv-x="481" 
d="M69 0q-16 14 -25.5 33t-9.5 43q0 20 9.5 39.5t23.5 36.5l172 202h-184q-6 11 -11.5 28t-5.5 37q0 35 15.5 50.5t41.5 15.5h315q16 -14 25.5 -33t9.5 -43q0 -20 -9.5 -39.5t-23.5 -36.5l-168 -202h196q6 -11 11.5 -28t5.5 -37q0 -35 -15.5 -50.5t-41.5 -15.5h-331z
M243 656q33 29 52 48t38 36q39 0 62 -18.5t23 -47.5q0 -20 -11 -35t-37 -36l-45 -37q-18 -14 -37.5 -22.5t-41.5 -8.5q-14 0 -25 2t-23 7.5t-26 15.5t-32 26l-74 64q-1 5 -1.5 9t-0.5 9q0 31 16.5 50.5t47.5 19.5q23 0 39 -10.5t42 -36.5z" />
    <glyph glyph-name="uni018F" unicode="&#x18f;" horiz-adv-x="676" 
d="M38 254q0 39 24.5 60t64.5 27l324 49q-20 46 -62 70.5t-104 24.5q-27 0 -52.5 -5t-48 -13t-41 -18t-31.5 -20q-23 16 -34.5 34t-11.5 44q0 28 18 50.5t49.5 37.5t75 23t94.5 8q66 0 126.5 -21.5t106.5 -64.5t73.5 -106t27.5 -146q0 -77 -22.5 -134.5t-62.5 -95t-95.5 -56
t-120.5 -18.5q-59 0 -113 18t-95 52.5t-65.5 84.5t-24.5 115zM333 123q37 0 63 10.5t42 29t23.5 44t7.5 56.5l-256 -40q5 -42 36 -71t84 -29z" />
    <glyph glyph-name="florin" unicode="&#x192;" horiz-adv-x="536" 
d="M304 78q-11 -101 -61 -147t-130 -46q-128 0 -128 85q0 20 8 36.5t18 24.5q12 -5 27.5 -8.5t33.5 -3.5q29 0 43.5 14.5t18.5 50.5l40 402q10 100 70 146.5t152 46.5q72 0 106 -18.5t34 -65.5q0 -20 -8 -37t-18 -25q-19 5 -38 8.5t-46 3.5q-38 0 -59 -15t-26 -50l-6 -47
h149q6 -11 11.5 -27.5t5.5 -36.5q0 -35 -15.5 -50.5t-41.5 -15.5h-117z" />
    <glyph glyph-name="Ohorn" unicode="&#x1a0;" horiz-adv-x="767" 
d="M35 304q0 78 24.5 138t67 100.5t100 61.5t124.5 21q83 0 151 -31.5t110 -93.5q14 27 20.5 60.5t9.5 84.5q14 8 28.5 12t35.5 4q32 0 56.5 -15.5t24.5 -52.5q0 -30 -8.5 -60.5t-25 -57t-40.5 -47.5t-55 -32q5 -21 7.5 -44t2.5 -48q0 -78 -24 -138.5t-66.5 -101
t-100.5 -61.5t-126 -21t-126 21.5t-100 62.5t-66 101t-24 137zM215 304q0 -91 37 -136t99 -45q63 0 100 45t37 136q0 90 -36.5 135t-99.5 45q-62 0 -99.5 -44.5t-37.5 -135.5z" />
    <glyph glyph-name="ohorn" unicode="&#x1a1;" horiz-adv-x="652" 
d="M555 243q0 -62 -19 -110.5t-53.5 -81.5t-82.5 -50t-107 -17t-107 18t-82.5 51.5t-53.5 81.5t-19 108q0 59 19 107t53.5 81.5t82.5 51.5t107 18q60 0 109 -19.5t84 -54.5q14 28 21 62t10 86q14 8 28.5 12t35.5 4q32 0 56.5 -15.5t24.5 -52.5q0 -29 -8 -58t-23 -55
t-37.5 -47t-51.5 -33q6 -20 9.5 -42t3.5 -45zM205 243q0 -61 23.5 -93.5t65.5 -32.5t64.5 33t22.5 93t-23 92.5t-65 32.5t-65 -32.5t-23 -92.5z" />
    <glyph glyph-name="Uhorn" unicode="&#x1af;" horiz-adv-x="779" 
d="M598 224q0 -54 -18.5 -98.5t-53.5 -76t-85 -48.5t-113 -17t-113 17t-85 48.5t-53.5 76t-18.5 98.5v382q11 2 35 5.5t46 3.5q23 0 40.5 -3.5t29.5 -12.5t18 -25t6 -42v-305q0 -48 26.5 -75t68.5 -27q43 0 69 27t26 75v379q11 2 35 5.5t46 3.5q23 0 40.5 -3.5t29.5 -12.5
t18 -25t6 -42v-38q25 23 39 58t17 93q14 8 28.5 12t35.5 4q32 0 56.5 -15.5t24.5 -52.5q0 -47 -17.5 -85.5t-46 -68.5t-64.5 -49.5t-73 -27.5v-138z" />
    <glyph glyph-name="uhorn" unicode="&#x1b0;" horiz-adv-x="712" 
d="M52 479q10 3 31.5 6t44.5 3q22 0 39.5 -3t29.5 -12t18.5 -24.5t6.5 -40.5v-215q0 -41 20 -58.5t58 -17.5q23 0 37.5 4t22.5 8v350q10 3 31.5 6t44.5 3q38 0 62 -11t30 -46q22 23 34 56.5t15 87.5q14 8 28.5 12t35.5 4q32 0 56.5 -15.5t24.5 -52.5q0 -45 -16.5 -83
t-43.5 -67.5t-61.5 -49.5t-70.5 -29v-190q0 -50 -42 -75q-35 -22 -83.5 -33.5t-105.5 -11.5q-54 0 -99.5 12t-78.5 37t-51 64.5t-18 95.5v286z" />
    <glyph glyph-name="uni01CD" unicode="&#x1cd;" horiz-adv-x="627" 
d="M194 588q17 10 51.5 19t69.5 9q50 0 88.5 -14.5t49.5 -45.5q18 -52 39 -121l42 -142.5l41 -145l35 -126.5q-12 -14 -36 -22.5t-57 -8.5q-24 0 -40.5 4t-27 12t-17 21t-11.5 30l-18 69h-181l-16 -62l-16 -62q-14 -5 -29.5 -8.5t-37.5 -3.5q-51 0 -75.5 17.5t-24.5 48.5
q0 14 4 28l9 33q7 27 19.5 67l27.5 86.5l32 95.5l32 92.5l27.5 77.5zM314 459l-31.5 -93.5t-31.5 -104.5h124l-28.5 105.5l-26.5 92.5h-6zM310 778l95 76q33 0 53.5 -17.5t20.5 -43.5q0 -20 -9.5 -34t-36.5 -35l-55 -42q-12 -9 -28 -14.5t-36 -5.5q-27 0 -48.5 9t-47.5 32
l-81 71q0 34 14.5 55.5t45.5 21.5q20 0 37.5 -9t49.5 -39z" />
    <glyph glyph-name="uni01CE" unicode="&#x1ce;" horiz-adv-x="544" 
d="M260 108q17 0 37.5 3.5t30.5 9.5v80l-72 -6q-28 -2 -46 -12t-18 -30t15.5 -32.5t52.5 -12.5zM252 501q54 0 98.5 -11t76 -33.5t48.5 -57t17 -81.5v-224q0 -26 -14.5 -42.5t-34.5 -28.5q-65 -39 -183 -39q-53 0 -95.5 10t-73 30t-47 51t-16.5 72q0 69 41 106t127 46
l131 14v7q0 29 -25.5 41.5t-73.5 12.5q-38 0 -74 -8t-65 -20q-13 9 -22 27.5t-9 38.5q0 26 12.5 41.5t38.5 26.5q29 11 68.5 16t74.5 5zM273 656q33 29 52 48t38 36q39 0 62 -18.5t23 -47.5q0 -20 -11 -35t-37 -36l-45 -37q-18 -14 -37.5 -22.5t-41.5 -8.5q-14 0 -25 2
t-23 7.5t-26 15.5t-32 26l-74 64q-1 5 -1.5 9t-0.5 9q0 31 16.5 50.5t47.5 19.5q23 0 39 -10.5t42 -36.5z" />
    <glyph glyph-name="uni01CF" unicode="&#x1cf;" horiz-adv-x="305" 
d="M240 4q-11 -3 -34.5 -6t-46.5 -3t-40.5 3.5t-29.5 12.5t-18 25t-6 42v528q11 2 35 5.5t46 3.5q23 0 40.5 -3.5t29.5 -12.5t18 -25t6 -42v-528zM145 778l95 76q33 0 53.5 -17.5t20.5 -43.5q0 -20 -9.5 -34t-36.5 -35l-55 -42q-12 -9 -28 -14.5t-36 -5.5q-27 0 -48.5 9
t-47.5 32l-81 71q0 34 14.5 55.5t45.5 21.5q20 0 37.5 -9t49.5 -39z" />
    <glyph glyph-name="uni01D0" unicode="&#x1d0;" horiz-adv-x="282" 
d="M226 1q-11 -2 -32.5 -5.5t-43.5 -3.5t-39.5 3t-29.5 12t-18.5 24.5t-6.5 40.5v407q11 2 32.5 5.5t43.5 3.5t39.5 -3t29.5 -12t18.5 -24.5t6.5 -40.5v-407zM142 656q33 29 52 48t38 36q39 0 62 -18.5t23 -47.5q0 -20 -11 -35t-37 -36l-45 -37q-18 -14 -37.5 -22.5
t-41.5 -8.5q-14 0 -25 2t-23 7.5t-26 15.5t-32 26l-74 64q-1 5 -1.5 9t-0.5 9q0 31 16.5 50.5t47.5 19.5q23 0 39 -10.5t42 -36.5z" />
    <glyph glyph-name="uni01D1" unicode="&#x1d1;" horiz-adv-x="703" 
d="M35 304q0 78 24.5 138t67 100.5t100 61.5t124.5 21t124.5 -21t100.5 -61.5t67.5 -100.5t24.5 -138t-24 -138.5t-66.5 -101t-100.5 -61.5t-126 -21t-126 21.5t-100 62.5t-66 101t-24 137zM215 304q0 -91 37 -136t99 -45q63 0 100 45t37 136q0 90 -36.5 135t-99.5 45
q-62 0 -99.5 -44.5t-37.5 -135.5zM349 778l95 76q33 0 53.5 -17.5t20.5 -43.5q0 -20 -9.5 -34t-36.5 -35l-55 -42q-12 -9 -28 -14.5t-36 -5.5q-27 0 -48.5 9t-47.5 32l-81 71q0 34 14.5 55.5t45.5 21.5q20 0 37.5 -9t49.5 -39z" />
    <glyph glyph-name="uni01D2" unicode="&#x1d2;" horiz-adv-x="586" 
d="M555 243q0 -62 -19 -110.5t-53.5 -81.5t-82.5 -50t-107 -17t-107 18t-82.5 51.5t-53.5 81.5t-19 108q0 59 19 107t53.5 81.5t82.5 51.5t107 18t107 -18.5t82.5 -52t53.5 -81.5t19 -106zM205 243q0 -61 23.5 -93.5t65.5 -32.5t64.5 33t22.5 93t-23 92.5t-65 32.5
t-65 -32.5t-23 -92.5zM293 656q33 29 52 48t38 36q39 0 62 -18.5t23 -47.5q0 -20 -11 -35t-37 -36l-45 -37q-18 -14 -37.5 -22.5t-41.5 -8.5q-14 0 -25 2t-23 7.5t-26 15.5t-32 26l-74 64q-1 5 -1.5 9t-0.5 9q0 31 16.5 50.5t47.5 19.5q23 0 39 -10.5t42 -36.5z" />
    <glyph glyph-name="uni01D3" unicode="&#x1d3;" horiz-adv-x="664" 
d="M602 224q0 -54 -18.5 -98.5t-53.5 -76t-85 -48.5t-113 -17t-113 17t-85 48.5t-53.5 76t-18.5 98.5v382q11 2 35 5.5t46 3.5q23 0 40.5 -3.5t29.5 -12.5t18 -25t6 -42v-305q0 -48 26.5 -75t68.5 -27q43 0 69 27t26 75v379q11 2 35 5.5t46 3.5q23 0 40.5 -3.5t29.5 -12.5
t18 -25t6 -42v-308zM318 778l95 76q33 0 53.5 -17.5t20.5 -43.5q0 -20 -9.5 -34t-36.5 -35l-55 -42q-12 -9 -28 -14.5t-36 -5.5q-27 0 -48.5 9t-47.5 32l-81 71q0 34 14.5 55.5t45.5 21.5q20 0 37.5 -9t49.5 -39z" />
    <glyph glyph-name="uni01D4" unicode="&#x1d4;" horiz-adv-x="582" 
d="M52 479q10 3 31.5 6t44.5 3q22 0 39.5 -3t29.5 -12t18.5 -24.5t6.5 -40.5v-215q0 -41 20 -58.5t58 -17.5q23 0 37.5 4t22.5 8v350q10 3 31.5 6t44.5 3q22 0 39.5 -3t29.5 -12t18.5 -24.5t6.5 -40.5v-304q0 -50 -42 -75q-35 -22 -83.5 -33.5t-105.5 -11.5q-54 0 -99.5 12
t-78.5 37t-51 64.5t-18 95.5v286zM291 656q33 29 52 48t38 36q39 0 62 -18.5t23 -47.5q0 -20 -11 -35t-37 -36l-45 -37q-18 -14 -37.5 -22.5t-41.5 -8.5q-14 0 -25 2t-23 7.5t-26 15.5t-32 26l-74 64q-1 5 -1.5 9t-0.5 9q0 31 16.5 50.5t47.5 19.5q23 0 39 -10.5t42 -36.5z
" />
    <glyph glyph-name="uni01D5" unicode="&#x1d5;" horiz-adv-x="664" 
d="M602 224q0 -54 -18.5 -98.5t-53.5 -76t-85 -48.5t-113 -17t-113 17t-85 48.5t-53.5 76t-18.5 98.5v382q11 2 35 5.5t46 3.5q23 0 40.5 -3.5t29.5 -12.5t18 -25t6 -42v-305q0 -48 26.5 -75t68.5 -27q43 0 69 27t26 75v379q11 2 35 5.5t46 3.5q23 0 40.5 -3.5t29.5 -12.5
t18 -25t6 -42v-308zM175 892q-5 11 -10.5 27.5t-5.5 34.5q0 37 15 51.5t40 14.5h265q8 -11 12 -27.5t4 -34.5q0 -37 -14.5 -51.5t-39.5 -14.5h-266zM125 755q0 35 25 60.5t62 25.5q42 0 66 -25.5t24 -60.5t-24 -60.5t-66 -25.5q-18 0 -34 7t-28 18.5t-18.5 27t-6.5 33.5z
M349 755q0 35 23.5 60.5t65.5 25.5q19 0 35 -7t28 -19t18.5 -27.5t6.5 -32.5q0 -35 -25 -60.5t-63 -25.5q-42 0 -65.5 25.5t-23.5 60.5z" />
    <glyph glyph-name="uni01D6" unicode="&#x1d6;" horiz-adv-x="582" 
d="M52 479q10 3 31.5 6t44.5 3q22 0 39.5 -3t29.5 -12t18.5 -24.5t6.5 -40.5v-215q0 -41 20 -58.5t58 -17.5q23 0 37.5 4t22.5 8v350q10 3 31.5 6t44.5 3q22 0 39.5 -3t29.5 -12t18.5 -24.5t6.5 -40.5v-304q0 -50 -42 -75q-35 -22 -83.5 -33.5t-105.5 -11.5q-54 0 -99.5 12
t-78.5 37t-51 64.5t-18 95.5v286zM93 637q0 35 25 60.5t62 25.5q42 0 66 -25.5t24 -60.5t-24 -60.5t-66 -25.5q-18 0 -34 7t-28 18.5t-18.5 27t-6.5 33.5zM317 637q0 35 23.5 60.5t65.5 25.5q19 0 35 -7t28 -19t18.5 -27.5t6.5 -32.5q0 -35 -25 -60.5t-63 -25.5
q-42 0 -65.5 25.5t-23.5 60.5zM142 774q-5 11 -10.5 27.5t-5.5 34.5q0 37 15 51.5t40 14.5h265q8 -11 12 -27.5t4 -34.5q0 -37 -14.5 -51.5t-39.5 -14.5h-266z" />
    <glyph glyph-name="uni01D7" unicode="&#x1d7;" horiz-adv-x="718" 
d="M62 729q0 33 24 57.5t59 24.5q40 0 63.5 -24.5t23.5 -57.5q0 -34 -23.5 -58t-63.5 -24q-35 0 -59 24t-24 58zM486 729q0 33 22.5 57.5t62.5 24.5q37 0 61 -24.5t24 -57.5q0 -34 -24 -58t-61 -24q-40 0 -62.5 24t-22.5 58zM359 852q24 6 43 6q37 0 55 -19.5t18 -47.5
q0 -17 -9 -34.5t-31 -35.5l-89 -72q-5 -1 -15 -1q-15 0 -28.5 4.5t-24 13t-16.5 19.5t-6 23q0 20 16 39zM633 224q0 -54 -18.5 -98.5t-53.5 -76t-85 -48.5t-113 -17t-113 17t-85 48.5t-53.5 76t-18.5 98.5v382q11 2 35 5.5t46 3.5q23 0 40.5 -3.5t29.5 -12.5t18 -25t6 -42
v-305q0 -48 26.5 -75t68.5 -27q43 0 69 27t26 75v379q11 2 35 5.5t46 3.5q23 0 40.5 -3.5t29.5 -12.5t18 -25t6 -42v-308z" />
    <glyph glyph-name="uni01D8" unicode="&#x1d8;" horiz-adv-x="582" 
d="M346 928q52 0 75.5 -18.5t23.5 -46.5q0 -26 -14 -43t-46 -35l-96 -54q-30 3 -51 24t-21 45q0 26 26 46zM52 479q10 3 31.5 6t44.5 3q22 0 39.5 -3t29.5 -12t18.5 -24.5t6.5 -40.5v-215q0 -41 20 -58.5t58 -17.5q23 0 37.5 4t22.5 8v350q10 3 31.5 6t44.5 3q22 0 39.5 -3
t29.5 -12t18.5 -24.5t6.5 -40.5v-304q0 -50 -42 -75q-35 -22 -83.5 -33.5t-105.5 -11.5q-54 0 -99.5 12t-78.5 37t-51 64.5t-18 95.5v286zM88 637q0 35 25 60.5t62 25.5q42 0 66 -25.5t24 -60.5t-24 -60.5t-66 -25.5q-18 0 -34 7t-28 18.5t-18.5 27t-6.5 33.5zM312 637
q0 35 23.5 60.5t65.5 25.5q19 0 35 -7t28 -19t18.5 -27.5t6.5 -32.5q0 -35 -25 -60.5t-63 -25.5q-42 0 -65.5 25.5t-23.5 60.5z" />
    <glyph glyph-name="uni01D9" unicode="&#x1d9;" horiz-adv-x="664" 
d="M102 749q0 33 24 57.5t59 24.5q40 0 63.5 -24.5t23.5 -57.5q0 -34 -23.5 -58t-63.5 -24q-35 0 -59 24t-24 58zM391 749q0 33 22.5 57.5t62.5 24.5q37 0 61 -24.5t24 -57.5q0 -34 -24 -58t-61 -24q-40 0 -62.5 24t-22.5 58zM602 224q0 -54 -18.5 -98.5t-53.5 -76
t-85 -48.5t-113 -17t-113 17t-85 48.5t-53.5 76t-18.5 98.5v382q11 2 35 5.5t46 3.5q23 0 40.5 -3.5t29.5 -12.5t18 -25t6 -42v-305q0 -48 26.5 -75t68.5 -27q43 0 69 27t26 75v379q11 2 35 5.5t46 3.5q23 0 40.5 -3.5t29.5 -12.5t18 -25t6 -42v-308zM327 939l95 76
q33 0 53.5 -17.5t20.5 -43.5q0 -20 -9.5 -34t-36.5 -35l-55 -42q-12 -9 -28 -14.5t-36 -5.5q-27 0 -48.5 9t-47.5 32l-81 71q0 34 14.5 55.5t45.5 21.5q20 0 37.5 -9t49.5 -39z" />
    <glyph glyph-name="uni01DA" unicode="&#x1da;" horiz-adv-x="582" 
d="M52 479q10 3 31.5 6t44.5 3q22 0 39.5 -3t29.5 -12t18.5 -24.5t6.5 -40.5v-215q0 -41 20 -58.5t58 -17.5q23 0 37.5 4t22.5 8v350q10 3 31.5 6t44.5 3q22 0 39.5 -3t29.5 -12t18.5 -24.5t6.5 -40.5v-304q0 -50 -42 -75q-35 -22 -83.5 -33.5t-105.5 -11.5q-54 0 -99.5 12
t-78.5 37t-51 64.5t-18 95.5v286zM88 637q0 35 25 60.5t62 25.5q42 0 66 -25.5t24 -60.5t-24 -60.5t-66 -25.5q-18 0 -34 7t-28 18.5t-18.5 27t-6.5 33.5zM312 637q0 35 23.5 60.5t65.5 25.5q19 0 35 -7t28 -19t18.5 -27.5t6.5 -32.5q0 -35 -25 -60.5t-63 -25.5
q-42 0 -65.5 25.5t-23.5 60.5zM283 859l95 76q33 0 53.5 -17.5t20.5 -43.5q0 -20 -9.5 -34t-36.5 -35l-55 -42q-12 -9 -28 -14.5t-36 -5.5q-27 0 -48.5 9t-47.5 32l-81 71q0 34 14.5 55.5t45.5 21.5q20 0 37.5 -9t49.5 -39z" />
    <glyph glyph-name="uni01DB" unicode="&#x1db;" horiz-adv-x="718" 
d="M244 774q0 20 6.5 36t16.5 27t23 17t25 6q32 0 51.5 -16.5t37.5 -42.5l61 -89q-9 -35 -27.5 -51t-41.5 -16q-19 0 -37.5 10.5t-34.5 28.5zM62 729q0 33 24 57.5t59 24.5q40 0 63.5 -24.5t23.5 -57.5q0 -34 -23.5 -58t-63.5 -24q-35 0 -59 24t-24 58zM486 729
q0 33 22.5 57.5t62.5 24.5q37 0 61 -24.5t24 -57.5q0 -34 -24 -58t-61 -24q-40 0 -62.5 24t-22.5 58zM633 224q0 -54 -18.5 -98.5t-53.5 -76t-85 -48.5t-113 -17t-113 17t-85 48.5t-53.5 76t-18.5 98.5v382q11 2 35 5.5t46 3.5q23 0 40.5 -3.5t29.5 -12.5t18 -25t6 -42v-305
q0 -48 26.5 -75t68.5 -27q43 0 69 27t26 75v379q11 2 35 5.5t46 3.5q23 0 40.5 -3.5t29.5 -12.5t18 -25t6 -42v-308z" />
    <glyph glyph-name="uni01DC" unicode="&#x1dc;" horiz-adv-x="582" 
d="M123 822q-2 10 -2 20q0 38 19 61t52 23q25 0 42.5 -9.5t37.5 -28.5l84 -76q-2 -38 -21.5 -61t-44.5 -23q-16 0 -32 6.5t-32 17.5zM52 479q10 3 31.5 6t44.5 3q22 0 39.5 -3t29.5 -12t18.5 -24.5t6.5 -40.5v-215q0 -41 20 -58.5t58 -17.5q23 0 37.5 4t22.5 8v350
q10 3 31.5 6t44.5 3q22 0 39.5 -3t29.5 -12t18.5 -24.5t6.5 -40.5v-304q0 -50 -42 -75q-35 -22 -83.5 -33.5t-105.5 -11.5q-54 0 -99.5 12t-78.5 37t-51 64.5t-18 95.5v286zM88 637q0 35 25 60.5t62 25.5q42 0 66 -25.5t24 -60.5t-24 -60.5t-66 -25.5q-18 0 -34 7t-28 18.5
t-18.5 27t-6.5 33.5zM312 637q0 35 23.5 60.5t65.5 25.5q19 0 35 -7t28 -19t18.5 -27.5t6.5 -32.5q0 -35 -25 -60.5t-63 -25.5q-42 0 -65.5 25.5t-23.5 60.5z" />
    <glyph glyph-name="Gcaron" unicode="&#x1e6;" horiz-adv-x="664" 
d="M614 99q0 -31 -11 -46t-35 -29q-14 -8 -35 -15.5t-46 -13t-52.5 -8.5t-54.5 -3q-72 0 -135 19.5t-109.5 59t-73.5 98.5t-27 137q0 82 29.5 143t78 101.5t111 60.5t128.5 20q95 0 150.5 -30.5t55.5 -79.5q0 -26 -13 -45t-30 -30q-25 15 -62.5 29.5t-84.5 14.5
q-84 0 -133.5 -48t-49.5 -133q0 -46 13.5 -79.5t36.5 -55t53 -32t64 -10.5q22 0 39 4t26 9v94h-107q-6 11 -11.5 29t-5.5 38q0 36 16.5 52t42.5 16h169q30 0 46.5 -16.5t16.5 -46.5v-204zM342 778l95 76q33 0 53.5 -17.5t20.5 -43.5q0 -20 -9.5 -34t-36.5 -35l-55 -42
q-12 -9 -28 -14.5t-36 -5.5q-27 0 -48.5 9t-47.5 32l-81 71q0 34 14.5 55.5t45.5 21.5q20 0 37.5 -9t49.5 -39z" />
    <glyph glyph-name="gcaron" unicode="&#x1e7;" horiz-adv-x="567" 
d="M289 501q57 0 103.5 -14.5t78.5 -37.5q20 -14 31.5 -31t11.5 -44v-350q0 -53 -20 -91.5t-54.5 -64t-81 -37.5t-99.5 -12q-91 0 -143 24.5t-52 79.5q0 23 9.5 40.5t21.5 26.5q29 -16 65.5 -27t75.5 -11q54 0 86 18t32 58v16q-41 -18 -100 -18q-45 0 -85.5 13.5t-71 42
t-49 73.5t-18.5 107q0 61 19.5 106t54 74.5t82 44t103.5 14.5zM351 356q-7 4 -20.5 8t-33.5 4q-49 0 -73.5 -27.5t-24.5 -78.5q0 -58 24.5 -83.5t62.5 -25.5q41 0 65 19v184zM283 656q33 29 52 48t38 36q39 0 62 -18.5t23 -47.5q0 -20 -11 -35t-37 -36l-45 -37
q-18 -14 -37.5 -22.5t-41.5 -8.5q-14 0 -25 2t-23 7.5t-26 15.5t-32 26l-74 64q-1 5 -1.5 9t-0.5 9q0 31 16.5 50.5t47.5 19.5q23 0 39 -10.5t42 -36.5z" />
    <glyph glyph-name="Scommaaccent" unicode="&#x218;" horiz-adv-x="551" 
d="M237 241q-44 15 -80 30.5t-62 37.5t-40.5 52.5t-14.5 74.5q0 85 65.5 136t183.5 51q43 0 80 -6t63.5 -18.5t41.5 -32t15 -45.5t-12 -44.5t-29 -31.5q-22 14 -59 24.5t-81 10.5q-45 0 -66 -12.5t-21 -31.5q0 -15 13 -24.5t39 -17.5l53 -17q94 -30 144.5 -76.5t50.5 -126.5
q0 -85 -67 -137.5t-197 -52.5q-46 0 -85.5 7.5t-69 22t-46 36t-16.5 49.5q0 29 17 49.5t37 31.5q28 -22 68.5 -38t88.5 -16q49 0 69 15t20 35t-16 30.5t-45 20.5zM321 -223q-17 -18 -36.5 -25.5t-42.5 -7.5q-38 0 -64 23q21 42 31.5 81.5t15.5 78.5q16 8 37.5 14.5t43.5 6.5
q32 0 52 -12t20 -40q0 -12 -5.5 -28.5t-13.5 -33t-18 -32t-20 -25.5z" />
    <glyph glyph-name="scommaaccent" unicode="&#x219;" horiz-adv-x="492" 
d="M462 145q0 -76 -57 -119t-168 -43q-42 0 -78 6t-61.5 18.5t-40 31.5t-14.5 45q0 24 10 40.5t24 27.5q29 -16 66.5 -28.5t86.5 -12.5q31 0 47.5 9t16.5 24q0 14 -12 22t-40 13l-30 6q-87 17 -129.5 53.5t-42.5 104.5q0 37 16 67t45 50t69.5 31t89.5 11q37 0 69.5 -5.5
t56.5 -16.5t38 -28.5t14 -41.5q0 -23 -8.5 -39.5t-21.5 -27.5q-8 5 -24 10.5t-35 10t-38.5 7.5t-35.5 3q-33 0 -51 -7.5t-18 -23.5q0 -11 10 -18t38 -13l31 -7q96 -22 136.5 -60.5t40.5 -99.5zM293 -223q-17 -18 -36.5 -25.5t-42.5 -7.5q-38 0 -64 23q21 42 31.5 81.5
t15.5 78.5q16 8 37.5 14.5t43.5 6.5q32 0 52 -12t20 -40q0 -12 -5.5 -28.5t-13.5 -33t-18 -32t-20 -25.5z" />
    <glyph glyph-name="uni021A" unicode="&#x21a;" horiz-adv-x="556" 
d="M37 466q-7 11 -13 30t-6 40q0 39 17.5 56t45.5 17h436q7 -11 13 -30t6 -40q0 -39 -17.5 -56t-45.5 -17h-111v-462q-11 -3 -34.5 -6t-46.5 -3t-40.5 3.5t-29.5 12.5t-18 25t-6 42v388h-150zM299 -223q-17 -18 -36.5 -25.5t-42.5 -7.5q-38 0 -64 23q21 42 31.5 81.5
t15.5 78.5q16 8 37.5 14.5t43.5 6.5q32 0 52 -12t20 -40q0 -12 -5.5 -28.5t-13.5 -33t-18 -32t-20 -25.5z" />
    <glyph glyph-name="uni021B" unicode="&#x21b;" horiz-adv-x="394" 
d="M222 167q0 -26 16.5 -37t46.5 -11q15 0 31 2.5t28 6.5q9 -11 15.5 -24.5t6.5 -32.5q0 -38 -28.5 -62t-100.5 -24q-88 0 -135.5 40t-47.5 130v428q11 3 31.5 6.5t43.5 3.5q44 0 68.5 -15.5t24.5 -65.5v-64h131q6 -11 11.5 -27.5t5.5 -36.5q0 -35 -15.5 -50.5t-41.5 -15.5
h-91v-151zM243 -223q-17 -18 -36.5 -25.5t-42.5 -7.5q-38 0 -64 23q21 42 31.5 81.5t15.5 78.5q16 8 37.5 14.5t43.5 6.5q32 0 52 -12t20 -40q0 -12 -5.5 -28.5t-13.5 -33t-18 -32t-20 -25.5z" />
    <glyph glyph-name="uni0237" unicode="&#x237;" horiz-adv-x="287" 
d="M19 -68q22 14 32 38.5t10 54.5v454q11 2 32.5 5.5t43.5 3.5t39.5 -3t29.5 -12t18.5 -24.5t6.5 -40.5v-399q0 -42 -10 -76t-28.5 -58.5t-45 -38t-59.5 -13.5q-44 0 -69 26.5t-26 66.5z" />
    <glyph glyph-name="uni0251" unicode="&#x251;" horiz-adv-x="587" 
d="M272 -16q-50 0 -93.5 15.5t-76.5 47.5t-52 80t-19 113q0 63 20 111.5t56.5 82t87 50.5t111.5 17q56 0 107 -15t77 -33q20 -14 31.5 -32t11.5 -45v-201q0 -39 11 -68.5t22 -51.5q-5 -31 -32 -51t-61 -20q-33 0 -51 10.5t-28 28.5q-21 -20 -55.5 -29.5t-66.5 -9.5zM364 358
q-9 4 -23 7t-30 3q-51 0 -79.5 -31.5t-28.5 -94.5q0 -66 24 -95t73 -29q27 0 42.5 10.5t21.5 18.5v211z" />
    <glyph glyph-name="uni0259" unicode="&#x259;" horiz-adv-x="549" 
d="M240 501q59 0 109.5 -16.5t88 -49.5t59 -83t21.5 -117q0 -66 -21.5 -113.5t-56.5 -78t-80 -45t-92 -14.5q-53 0 -96.5 16t-75 44t-49 67t-17.5 85q0 34 19 52t53 23l247 37q-11 33 -45 49.5t-78 16.5q-41 0 -77.5 -10.5t-59.5 -24.5q-16 10 -27 28t-11 38q0 45 42 67
q32 17 72 23t75 6zM268 108q24 0 41 8t28.5 20.5t17 28t6.5 31.5l-171 -28q3 -20 22 -40t56 -20z" />
    <glyph glyph-name="uni0261" unicode="&#x261;" horiz-adv-x="567" 
d="M289 501q57 0 103.5 -14.5t78.5 -37.5q20 -14 31.5 -31t11.5 -44v-350q0 -53 -20 -91.5t-54.5 -64t-81 -37.5t-99.5 -12q-91 0 -143 24.5t-52 79.5q0 23 9.5 40.5t21.5 26.5q29 -16 65.5 -27t75.5 -11q54 0 86 18t32 58v16q-41 -18 -100 -18q-45 0 -85.5 13.5t-71 42
t-49 73.5t-18.5 107q0 61 19.5 106t54 74.5t82 44t103.5 14.5zM351 356q-7 4 -20.5 8t-33.5 4q-49 0 -73.5 -27.5t-24.5 -78.5q0 -58 24.5 -83.5t62.5 -25.5q41 0 65 19v184z" />
    <glyph glyph-name="uni02BB" unicode="&#x2bb;" horiz-adv-x="224" 
d="M72 628q11 17 26 25t38 8q19 0 35 -4t31 -11l-10 -122t-7 -113q-14 -8 -36.5 -15t-43.5 -7q-16 0 -31.5 3t-27.5 10.5t-19 20t-7 30.5q0 19 4 43.5t11.5 48.5t16.5 46t20 37z" />
    <glyph glyph-name="uni02BC" unicode="&#x2bc;" horiz-adv-x="224" 
d="M152 422q-11 -17 -26 -25t-38 -8q-19 0 -35 4t-31 11l10 122t7 113q14 8 36.5 15t43.5 7q16 0 31.5 -3t27.5 -10.5t19 -20t7 -30.5q0 -20 -4 -44t-11.5 -48t-17 -46t-19.5 -37z" />
    <glyph glyph-name="uni02BE" unicode="&#x2be;" horiz-adv-x="274" 
d="M108 509q0 70 -84 70q-2 5 -3 14t-1 14q0 29 21.5 47.5t60.5 18.5q25 0 49.5 -10t44 -30.5t31.5 -51t12 -72.5t-12 -72.5t-31.5 -51t-44 -30.5t-49.5 -10q-39 0 -60.5 18.5t-21.5 47.5q0 5 1 14t3 14q84 0 84 70z" />
    <glyph glyph-name="uni02BF" unicode="&#x2bf;" horiz-adv-x="274" 
d="M166 509q0 -70 84 -70q2 -5 3 -14t1 -14q0 -29 -21.5 -47.5t-60.5 -18.5q-25 0 -49.5 10t-44 30.5t-31.5 51t-12 72.5t12 72.5t31.5 51t44 30.5t49.5 10q39 0 60.5 -18.5t21.5 -47.5q0 -5 -1 -14t-3 -14q-84 0 -84 -70z" />
    <glyph glyph-name="circumflex" unicode="&#x2c6;" horiz-adv-x="348" 
d="M171 622q-34 -29 -53 -47l-38 -35q-39 0 -62 18.5t-23 47.5q0 20 11 36t37 35l49 35q24 17 43.5 24.5t39.5 7.5q13 0 23.5 -1.5t21.5 -7t24 -16l33 -27.5l70 -62q1 -5 1.5 -9t0.5 -9q0 -31 -16.5 -50.5t-47.5 -19.5q-10 0 -18 1.5t-16.5 6.5t-19.5 14.5t-26 25.5z" />
    <glyph glyph-name="caron" unicode="&#x2c7;" horiz-adv-x="350" 
d="M174 656q33 29 52 48t38 36q39 0 62 -18.5t23 -47.5q0 -20 -11 -35t-37 -36l-45 -37q-18 -14 -37.5 -22.5t-41.5 -8.5q-14 0 -25 2t-23 7.5t-26 15.5t-32 26l-74 64q-1 5 -1.5 9t-0.5 9q0 31 16.5 50.5t47.5 19.5q23 0 39 -10.5t42 -36.5z" />
    <glyph glyph-name="uni02C8" unicode="&#x2c8;" horiz-adv-x="342" 
d="M118 834q11 5 27.5 10.5t34.5 5.5q37 0 51.5 -15t14.5 -40v-225q-11 -8 -27.5 -12t-34.5 -4q-37 0 -51.5 14.5t-14.5 39.5v226z" />
    <glyph glyph-name="uni02C9" unicode="&#x2c9;" horiz-adv-x="363" 
d="M30 564q-5 11 -10.5 27.5t-5.5 34.5q0 37 15 51.5t40 14.5h265q8 -11 12 -27.5t4 -34.5q0 -37 -14.5 -51.5t-39.5 -14.5h-266z" />
    <glyph glyph-name="uni02CA" unicode="&#x2ca;" horiz-adv-x="309" 
d="M185 744q52 0 75.5 -20t23.5 -48q0 -26 -14 -43.5t-46 -34.5l-129 -68q-30 3 -51 24t-21 45q0 12 6 24t20 22z" />
    <glyph glyph-name="uni02CB" unicode="&#x2cb;" horiz-adv-x="292" 
d="M18 643q-2 10 -2 20q0 38 19 61t52 23q25 0 42 -10t38 -28l113 -95q-2 -38 -21.5 -61t-44.5 -23q-16 0 -32 6.5t-32 17.5z" />
    <glyph glyph-name="uni02CC" unicode="&#x2cc;" horiz-adv-x="382" 
d="M118 -109q11 5 27.5 10.5t34.5 5.5q37 0 51.5 -15t14.5 -40v-225q-11 -8 -27.5 -12t-34.5 -4q-37 0 -51.5 14.5t-14.5 39.5v226z" />
    <glyph glyph-name="breve" unicode="&#x2d8;" horiz-adv-x="336" 
d="M170 553q-84 0 -129 30.5t-45 75.5q0 26 19.5 49t60.5 23h9t9 -1q5 -22 25 -37t51 -15t50.5 15t25.5 37q5 1 9 1h9q41 0 60.5 -23t19.5 -49q0 -45 -45 -75.5t-129 -30.5z" />
    <glyph glyph-name="dotaccent" unicode="&#x2d9;" horiz-adv-x="206" 
d="M13 626q0 37 24.5 62t64.5 25q42 0 66.5 -25t24.5 -62t-24.5 -62t-66.5 -25q-40 0 -64.5 25t-24.5 62z" />
    <glyph glyph-name="ring" unicode="&#x2da;" horiz-adv-x="286" 
d="M8 641q0 47 35.5 79.5t96.5 32.5q65 0 101 -32.5t36 -79.5t-36 -79t-101 -32q-61 0 -96.5 32t-35.5 79zM109 641q0 -16 9.5 -25t22.5 -9q15 0 24.5 9t9.5 25t-9.5 25t-24.5 9q-13 0 -22.5 -9t-9.5 -25z" />
    <glyph glyph-name="ogonek" unicode="&#x2db;" horiz-adv-x="235" 
d="M193 7q-11 -8 -18.5 -21t-7.5 -29q0 -43 59 -43q3 -9 5 -19t2 -23q0 -29 -20 -51.5t-72 -22.5q-27 0 -50.5 7.5t-41 22.5t-27.5 36t-10 48q0 41 27 75t71 48l83 -28v0z" />
    <glyph glyph-name="tilde" unicode="&#x2dc;" horiz-adv-x="374" 
d="M190 697q18 -5 30 -8t20 -3q22 0 34 13t17 22q35 0 58.5 -22.5t23.5 -57.5q0 -45 -28 -66t-70 -21q-14 0 -28 1.5t-31 6.5l-40 12l-23.5 6.5t-18.5 2.5q-22 0 -33.5 -12.5t-17.5 -22.5q-35 0 -58.5 22.5t-23.5 57.5q0 22 8.5 38.5t22.5 27.5t31.5 16t35.5 5q13 0 31.5 -3
t59.5 -15z" />
    <glyph glyph-name="hungarumlaut" unicode="&#x2dd;" horiz-adv-x="488" 
d="M342 743q12 4 25 5.5t22 1.5q35 0 56.5 -15t21.5 -47q0 -20 -10 -38.5t-26 -34.5l-86 -86q-14 0 -31 4t-31.5 12.5t-24.5 20t-10 26.5t9 27zM114 743q12 4 25 5.5t22 1.5q35 0 56.5 -15t21.5 -47q0 -20 -10 -38.5t-26 -34.5l-86 -86q-14 0 -31 4t-31.5 12.5t-24.5 20
t-10 26.5t9 27z" />
    <glyph glyph-name="gravecomb" unicode="&#x300;" horiz-adv-x="302" 
d="M18 643q-2 10 -2 20q0 38 19 61t52 23q25 0 42 -10t38 -28l113 -95q-2 -38 -21.5 -61t-44.5 -23q-16 0 -32 6.5t-32 17.5z" />
    <glyph glyph-name="acutecomb" unicode="&#x301;" horiz-adv-x="298" 
d="M185 744q52 0 75.5 -20t23.5 -48q0 -26 -14 -43.5t-46 -34.5l-129 -68q-30 3 -51 24t-21 45q0 12 6 24t20 22z" />
    <glyph glyph-name="uni0302" unicode="&#x302;" horiz-adv-x="348" 
d="M171 622q-34 -29 -53 -47l-38 -35q-39 0 -62 18.5t-23 47.5q0 20 11 36t37 35l49 35q24 17 43.5 24.5t39.5 7.5q13 0 23.5 -1.5t21.5 -7t24 -16l33 -27.5l70 -62q1 -5 1.5 -9t0.5 -9q0 -31 -16.5 -50.5t-47.5 -19.5q-10 0 -18 1.5t-16.5 6.5t-19.5 14.5t-26 25.5z" />
    <glyph glyph-name="tildecomb" unicode="&#x303;" 
d="M-184 697q18 -5 30 -8t20 -3q22 0 34 13t17 22q35 0 58.5 -22.5t23.5 -57.5q0 -45 -28 -66t-70 -21q-14 0 -28 1.5t-31 6.5l-40 12l-23.5 6.5t-18.5 2.5q-22 0 -33.5 -12.5t-17.5 -22.5q-35 0 -58.5 22.5t-23.5 57.5q0 22 8.5 38.5t22.5 27.5t31.5 16t35.5 5
q13 0 31.5 -3t59.5 -15z" />
    <glyph glyph-name="uni0304" unicode="&#x304;" horiz-adv-x="321" 
d="M30 564q-5 11 -10.5 27.5t-5.5 34.5q0 37 15 51.5t40 14.5h265q8 -11 12 -27.5t4 -34.5q0 -37 -14.5 -51.5t-39.5 -14.5h-266z" />
    <glyph glyph-name="uni0306" unicode="&#x306;" horiz-adv-x="336" 
d="M170 553q-84 0 -129 30.5t-45 75.5q0 26 19.5 49t60.5 23h9t9 -1q5 -22 25 -37t51 -15t50.5 15t25.5 37q5 1 9 1h9q41 0 60.5 -23t19.5 -49q0 -45 -45 -75.5t-129 -30.5z" />
    <glyph glyph-name="uni0307" unicode="&#x307;" horiz-adv-x="206" 
d="M13 626q0 37 24.5 62t64.5 25q42 0 66.5 -25t24.5 -62t-24.5 -62t-66.5 -25q-40 0 -64.5 25t-24.5 62z" />
    <glyph glyph-name="uni0308" unicode="&#x308;" horiz-adv-x="397" 
d="M-14 627q0 35 25 60.5t62 25.5q42 0 66 -25.5t24 -60.5t-24 -60.5t-66 -25.5q-18 0 -34 7t-28 18.5t-18.5 27t-6.5 33.5zM210 627q0 35 23.5 60.5t65.5 25.5q19 0 35 -7t28 -19t18.5 -27.5t6.5 -32.5q0 -35 -25 -60.5t-63 -25.5q-42 0 -65.5 25.5t-23.5 60.5z" />
    <glyph glyph-name="hookabovecomb" unicode="&#x309;" horiz-adv-x="262" 
d="M126 742q51 0 78 -24t27 -59q0 -25 -10 -42.5t-35 -33.5q-18 -11 -23 -21t-5 -27q-13 -10 -36 -10q-22 0 -35.5 11.5t-13.5 31.5q0 27 32 48l20 14q11 8 14 12.5t3 9.5q0 13 -21 13q-18 0 -31.5 -7t-21.5 -14q-11 3 -21 14.5t-10 28.5q0 23 21.5 39t67.5 16z" />
    <glyph glyph-name="uni030A" unicode="&#x30a;" horiz-adv-x="286" 
d="M8 641q0 47 35.5 79.5t96.5 32.5q65 0 101 -32.5t36 -79.5t-36 -79t-101 -32q-61 0 -96.5 32t-35.5 79zM109 641q0 -16 9.5 -25t22.5 -9q15 0 24.5 9t9.5 25t-9.5 25t-24.5 9q-13 0 -22.5 -9t-9.5 -25z" />
    <glyph glyph-name="uni030B" unicode="&#x30b;" horiz-adv-x="488" 
d="M342 743q12 4 25 5.5t22 1.5q35 0 56.5 -15t21.5 -47q0 -20 -10 -38.5t-26 -34.5l-86 -86q-14 0 -31 4t-31.5 12.5t-24.5 20t-10 26.5t9 27zM114 743q12 4 25 5.5t22 1.5q35 0 56.5 -15t21.5 -47q0 -20 -10 -38.5t-26 -34.5l-86 -86q-14 0 -31 4t-31.5 12.5t-24.5 20
t-10 26.5t9 27z" />
    <glyph glyph-name="uni030C" unicode="&#x30c;" horiz-adv-x="350" 
d="M174 656q33 29 52 48t38 36q39 0 62 -18.5t23 -47.5q0 -20 -11 -35t-37 -36l-45 -37q-18 -14 -37.5 -22.5t-41.5 -8.5q-14 0 -25 2t-23 7.5t-26 15.5t-32 26l-74 64q-1 5 -1.5 9t-0.5 9q0 31 16.5 50.5t47.5 19.5q23 0 39 -10.5t42 -36.5z" />
    <glyph glyph-name="uni031B" unicode="&#x31b;" horiz-adv-x="218" 
d="M8 409q20 31 29.5 68t12.5 98q14 8 28.5 12t35.5 4q32 0 56.5 -15.5t24.5 -52.5q0 -30 -9 -61t-26 -58t-42 -48t-57 -31q-21 9 -37 30.5t-16 53.5z" />
    <glyph glyph-name="dotbelowcomb" unicode="&#x323;" horiz-adv-x="206" 
d="M14 628q0 35 25 60.5t64 25.5t64 -25.5t25 -60.5t-25 -60.5t-64 -25.5t-64 25.5t-25 60.5z" />
    <glyph glyph-name="uni0324" unicode="&#x324;" horiz-adv-x="374" 
d="M-2 -161q0 33 23.5 57t59.5 24q38 0 61 -24t23 -57t-23 -57t-61 -24q-36 0 -59.5 24t-23.5 57zM209 -161q0 33 23 57t61 24q36 0 59.5 -24t23.5 -57t-23.5 -57t-59.5 -24q-38 0 -61 24t-23 57z" />
    <glyph glyph-name="uni0326" unicode="&#x326;" horiz-adv-x="220" 
d="M143 -223q-17 -18 -36.5 -25.5t-42.5 -7.5q-38 0 -64 23q21 42 31.5 81.5t15.5 78.5q16 8 37.5 14.5t43.5 6.5q32 0 52 -12t20 -40q0 -12 -5.5 -28.5t-13.5 -33t-18 -32t-20 -25.5z" />
    <glyph glyph-name="uni0327" unicode="&#x327;" horiz-adv-x="195" 
d="M99 35q45 -18 71.5 -51.5t26.5 -81.5q0 -45 -26.5 -74.5t-70.5 -29.5q-42 0 -69 24t-29 66q40 21 40 62q0 12 -4 24t-17 28z" />
    <glyph glyph-name="uni0328" unicode="&#x328;" horiz-adv-x="235" 
d="M193 7q-11 -12 -18.5 -25t-7.5 -32q0 -41 40 -62q-2 -42 -28.5 -66t-65.5 -24q-45 0 -73 29.5t-28 74.5q0 48 26.5 81.5t71.5 51.5z" />
    <glyph glyph-name="uni032E" unicode="&#x32e;" horiz-adv-x="354" 
d="M170 -206q-84 0 -129 30.5t-45 75.5q0 26 19.5 49t60.5 23h9t9 -1q5 -22 25 -37t51 -15t50.5 15t25.5 37q5 1 9 1h9q41 0 60.5 -23t19.5 -49q0 -45 -45 -75.5t-129 -30.5z" />
    <glyph glyph-name="uni0331" unicode="&#x331;" horiz-adv-x="368" 
d="M25 -184q-5 11 -10.5 27.5t-5.5 34.5q0 37 15 51.5t40 14.5h275q8 -11 12 -27.5t4 -34.5q0 -37 -14.5 -51.5t-39.5 -14.5h-276z" />
    <glyph glyph-name="pi" unicode="&#x3c0;" horiz-adv-x="665" 
d="M48 355q-6 11 -12 28.5t-6 37.5q0 37 16.5 53t42.5 16h528q6 -11 12 -28.5t6 -37.5q0 -37 -16.5 -53t-42.5 -16h-29v-188q0 -30 13 -43.5t41 -13.5q4 -16 4 -34q0 -35 -25 -61.5t-79 -26.5q-120 0 -120 138v229h-99v-354q-10 -2 -33 -5.5t-44 -3.5q-22 0 -38.5 3
t-28 11.5t-17 24t-5.5 39.5v285h-68z" />
    <glyph glyph-name="uni1E0C" unicode="&#x1e0c;" horiz-adv-x="659" 
d="M232 130q11 -2 27 -3.5t30 -1.5q34 0 62.5 10t49 31t32 54.5t11.5 80.5q0 90 -42 135.5t-112 45.5q-14 0 -28.5 -1t-29.5 -3v-348zM288 -16q-17 0 -39 1t-45.5 4t-47 7.5t-43.5 12.5q-55 21 -55 73v467q0 21 11.5 32.5t31.5 18.5q43 14 91 18.5t86 4.5q78 0 141.5 -19
t109 -58.5t70.5 -99.5t25 -142q0 -80 -24 -139.5t-68.5 -100t-106.5 -60.5t-137 -20zM209 -141q0 35 25 60.5t64 25.5t64 -25.5t25 -60.5t-25 -60.5t-64 -25.5t-64 25.5t-25 60.5z" />
    <glyph glyph-name="uni1E0D" unicode="&#x1e0d;" horiz-adv-x="586" 
d="M31 243q0 66 20 114.5t55.5 80.5t83 47.5t102.5 15.5q20 0 39 -3.5t31 -8.5v162q10 3 32 6.5t45 3.5q22 0 39.5 -3t29.5 -12t18 -24.5t6 -40.5v-474q0 -47 -44 -75q-29 -19 -75 -33.5t-106 -14.5q-65 0 -116.5 18t-87 52t-54 81.5t-18.5 107.5zM315 368q-54 0 -83 -31
t-29 -94q0 -62 27 -93.5t78 -31.5q18 0 32.5 5.5t22.5 12.5v220q-20 12 -48 12zM227 -141q0 35 25 60.5t64 25.5t64 -25.5t25 -60.5t-25 -60.5t-64 -25.5t-64 25.5t-25 60.5z" />
    <glyph glyph-name="uni1E0E" unicode="&#x1e0e;" horiz-adv-x="659" 
d="M232 130q11 -2 27 -3.5t30 -1.5q34 0 62.5 10t49 31t32 54.5t11.5 80.5q0 90 -42 135.5t-112 45.5q-14 0 -28.5 -1t-29.5 -3v-348zM288 -16q-17 0 -39 1t-45.5 4t-47 7.5t-43.5 12.5q-55 21 -55 73v467q0 21 11.5 32.5t31.5 18.5q43 14 91 18.5t86 4.5q78 0 141.5 -19
t109 -58.5t70.5 -99.5t25 -142q0 -80 -24 -139.5t-68.5 -100t-106.5 -60.5t-137 -20zM145 -214q-5 11 -10.5 27.5t-5.5 34.5q0 37 15 51.5t40 14.5h275q8 -11 12 -27.5t4 -34.5q0 -37 -14.5 -51.5t-39.5 -14.5h-276z" />
    <glyph glyph-name="uni1E0F" unicode="&#x1e0f;" horiz-adv-x="586" 
d="M31 243q0 66 20 114.5t55.5 80.5t83 47.5t102.5 15.5q20 0 39 -3.5t31 -8.5v162q10 3 32 6.5t45 3.5q22 0 39.5 -3t29.5 -12t18 -24.5t6 -40.5v-474q0 -47 -44 -75q-29 -19 -75 -33.5t-106 -14.5q-65 0 -116.5 18t-87 52t-54 81.5t-18.5 107.5zM315 368q-54 0 -83 -31
t-29 -94q0 -62 27 -93.5t78 -31.5q18 0 32.5 5.5t22.5 12.5v220q-20 12 -48 12zM163 -214q-5 11 -10.5 27.5t-5.5 34.5q0 37 15 51.5t40 14.5h275q8 -11 12 -27.5t4 -34.5q0 -37 -14.5 -51.5t-39.5 -14.5h-276z" />
    <glyph glyph-name="uni1E20" unicode="&#x1e20;" horiz-adv-x="664" 
d="M614 99q0 -31 -11 -46t-35 -29q-14 -8 -35 -15.5t-46 -13t-52.5 -8.5t-54.5 -3q-72 0 -135 19.5t-109.5 59t-73.5 98.5t-27 137q0 82 29.5 143t78 101.5t111 60.5t128.5 20q95 0 150.5 -30.5t55.5 -79.5q0 -26 -13 -45t-30 -30q-25 15 -62.5 29.5t-84.5 14.5
q-84 0 -133.5 -48t-49.5 -133q0 -46 13.5 -79.5t36.5 -55t53 -32t64 -10.5q22 0 39 4t26 9v94h-107q-6 11 -11.5 29t-5.5 38q0 36 16.5 52t42.5 16h169q30 0 46.5 -16.5t16.5 -46.5v-204zM199 695q-5 11 -10.5 27.5t-5.5 34.5q0 37 15 51.5t40 14.5h265q8 -11 12 -27.5
t4 -34.5q0 -37 -14.5 -51.5t-39.5 -14.5h-266z" />
    <glyph glyph-name="uni1E21" unicode="&#x1e21;" horiz-adv-x="567" 
d="M289 501q57 0 103.5 -14.5t78.5 -37.5q20 -14 31.5 -31t11.5 -44v-350q0 -53 -20 -91.5t-54.5 -64t-81 -37.5t-99.5 -12q-91 0 -143 24.5t-52 79.5q0 23 9.5 40.5t21.5 26.5q29 -16 65.5 -27t75.5 -11q54 0 86 18t32 58v16q-41 -18 -100 -18q-45 0 -85.5 13.5t-71 42
t-49 73.5t-18.5 107q0 61 19.5 106t54 74.5t82 44t103.5 14.5zM351 356q-7 4 -20.5 8t-33.5 4q-49 0 -73.5 -27.5t-24.5 -78.5q0 -58 24.5 -83.5t62.5 -25.5q41 0 65 19v184zM126 564q-5 11 -10.5 27.5t-5.5 34.5q0 37 15 51.5t40 14.5h265q8 -11 12 -27.5t4 -34.5
q0 -37 -14.5 -51.5t-39.5 -14.5h-266z" />
    <glyph glyph-name="uni1E24" unicode="&#x1e24;" horiz-adv-x="643" 
d="M616 4q-11 -3 -34.5 -6t-46.5 -3t-40.5 3.5t-29.5 12.5t-18 25t-6 42v156h-192v-230q-11 -3 -34.5 -6t-46.5 -3t-40.5 3.5t-29.5 12.5t-18 25t-6 42v528q11 2 35 5.5t46 3.5q23 0 40.5 -3.5t29.5 -12.5t18 -25t6 -42v-160h192v234q11 2 35 5.5t46 3.5q23 0 40.5 -3.5
t29.5 -12.5t18 -25t6 -42v-528zM266 -141q0 35 25 60.5t64 25.5t64 -25.5t25 -60.5t-25 -60.5t-64 -25.5t-64 25.5t-25 60.5z" />
    <glyph glyph-name="uni1E25" unicode="&#x1e25;" horiz-adv-x="585" 
d="M532 1q-10 -3 -31.5 -6t-44.5 -3q-22 0 -39.5 3t-29.5 12t-18.5 24.5t-6.5 40.5v222q0 41 -20.5 57.5t-50.5 16.5q-20 0 -38 -5t-29 -12v-350q-10 -3 -31.5 -6t-44.5 -3q-22 0 -39.5 3t-29.5 12t-18.5 24.5t-6.5 40.5v580q11 2 32.5 5.5t43.5 3.5t39.5 -3t29.5 -12
t18.5 -24.5t6.5 -40.5v-98q13 5 39.5 11.5t58.5 6.5q99 0 154.5 -49.5t55.5 -147.5v-303zM219 -141q0 35 25 60.5t64 25.5t64 -25.5t25 -60.5t-25 -60.5t-64 -25.5t-64 25.5t-25 60.5z" />
    <glyph glyph-name="uni1E2A" unicode="&#x1e2a;" horiz-adv-x="643" 
d="M616 4q-11 -3 -34.5 -6t-46.5 -3t-40.5 3.5t-29.5 12.5t-18 25t-6 42v156h-192v-230q-11 -3 -34.5 -6t-46.5 -3t-40.5 3.5t-29.5 12.5t-18 25t-6 42v528q11 2 35 5.5t46 3.5q23 0 40.5 -3.5t29.5 -12.5t18 -25t6 -42v-160h192v234q11 2 35 5.5t46 3.5q23 0 40.5 -3.5
t29.5 -12.5t18 -25t6 -42v-528zM357 -226q-84 0 -129 30.5t-45 75.5q0 26 19.5 49t60.5 23h9t9 -1q5 -22 25 -37t51 -15t50.5 15t25.5 37q5 1 9 1h9q41 0 60.5 -23t19.5 -49q0 -45 -45 -75.5t-129 -30.5z" />
    <glyph glyph-name="uni1E2B" unicode="&#x1e2b;" horiz-adv-x="585" 
d="M532 1q-10 -3 -31.5 -6t-44.5 -3q-22 0 -39.5 3t-29.5 12t-18.5 24.5t-6.5 40.5v222q0 41 -20.5 57.5t-50.5 16.5q-20 0 -38 -5t-29 -12v-350q-10 -3 -31.5 -6t-44.5 -3q-22 0 -39.5 3t-29.5 12t-18.5 24.5t-6.5 40.5v580q11 2 32.5 5.5t43.5 3.5t39.5 -3t29.5 -12
t18.5 -24.5t6.5 -40.5v-98q13 5 39.5 11.5t58.5 6.5q99 0 154.5 -49.5t55.5 -147.5v-303zM313 -226q-84 0 -129 30.5t-45 75.5q0 26 19.5 49t60.5 23h9t9 -1q5 -22 25 -37t51 -15t50.5 15t25.5 37q5 1 9 1h9q41 0 60.5 -23t19.5 -49q0 -45 -45 -75.5t-129 -30.5z" />
    <glyph glyph-name="uni1E36" unicode="&#x1e36;" horiz-adv-x="506" 
d="M151 -3q-43 0 -68 25t-25 68v517q11 2 35 5.5t46 3.5q23 0 40.5 -3.5t29.5 -12.5t18 -25t6 -42v-395h229q7 -11 13 -29.5t6 -38.5q0 -40 -17 -56.5t-45 -16.5h-268zM186 -141q0 35 25 60.5t64 25.5t64 -25.5t25 -60.5t-25 -60.5t-64 -25.5t-64 25.5t-25 60.5z" />
    <glyph glyph-name="uni1E37" unicode="&#x1e37;" horiz-adv-x="280" 
d="M225 1q-11 -2 -32.5 -5.5t-43.5 -3.5t-39.5 3t-29.5 12t-18.5 24.5t-6.5 40.5v580q11 2 32.5 5.5t43.5 3.5t39.5 -3t29.5 -12t18.5 -24.5t6.5 -40.5v-580zM58 -144q0 35 25 60.5t64 25.5t64 -25.5t25 -60.5t-25 -60.5t-64 -25.5t-64 25.5t-25 60.5z" />
    <glyph glyph-name="uni1E38" unicode="&#x1e38;" horiz-adv-x="513" 
d="M158 -3q-43 0 -68 25t-25 68v517q11 2 35 5.5t46 3.5q23 0 40.5 -3.5t29.5 -12.5t18 -25t6 -42v-395h229q7 -11 13 -29.5t6 -38.5q0 -40 -17 -56.5t-45 -16.5h-268zM14 695q-5 11 -10.5 27.5t-5.5 34.5q0 37 15 51.5t40 14.5h265q8 -11 12 -27.5t4 -34.5
q0 -37 -14.5 -51.5t-39.5 -14.5h-266zM183 -141q0 35 25 60.5t64 25.5t64 -25.5t25 -60.5t-25 -60.5t-64 -25.5t-64 25.5t-25 60.5z" />
    <glyph glyph-name="uni1E39" unicode="&#x1e39;" horiz-adv-x="280" 
d="M225 1q-11 -2 -32.5 -5.5t-43.5 -3.5t-39.5 3t-29.5 12t-18.5 24.5t-6.5 40.5v580q11 2 32.5 5.5t43.5 3.5t39.5 -3t29.5 -12t18.5 -24.5t6.5 -40.5v-580zM-20 714q-5 11 -10.5 27.5t-5.5 34.5q0 37 15 51.5t40 14.5h265q8 -11 12 -27.5t4 -34.5q0 -37 -14.5 -51.5
t-39.5 -14.5h-266zM58 -144q0 35 25 60.5t64 25.5t64 -25.5t25 -60.5t-25 -60.5t-64 -25.5t-64 25.5t-25 60.5z" />
    <glyph glyph-name="uni1E3A" unicode="&#x1e3a;" horiz-adv-x="506" 
d="M151 -3q-43 0 -68 25t-25 68v517q11 2 35 5.5t46 3.5q23 0 40.5 -3.5t29.5 -12.5t18 -25t6 -42v-395h229q7 -11 13 -29.5t6 -38.5q0 -40 -17 -56.5t-45 -16.5h-268zM109 -214q-5 11 -10.5 27.5t-5.5 34.5q0 37 15 51.5t40 14.5h275q8 -11 12 -27.5t4 -34.5
q0 -37 -14.5 -51.5t-39.5 -14.5h-276z" />
    <glyph glyph-name="uni1E3B" unicode="&#x1e3b;" horiz-adv-x="280" 
d="M225 1q-11 -2 -32.5 -5.5t-43.5 -3.5t-39.5 3t-29.5 12t-18.5 24.5t-6.5 40.5v580q11 2 32.5 5.5t43.5 3.5t39.5 -3t29.5 -12t18.5 -24.5t6.5 -40.5v-580zM-5 -214q-5 11 -10.5 27.5t-5.5 34.5q0 37 15 51.5t40 14.5h275q8 -11 12 -27.5t4 -34.5q0 -37 -14.5 -51.5
t-39.5 -14.5h-276z" />
    <glyph glyph-name="uni1E42" unicode="&#x1e42;" horiz-adv-x="806" 
d="M483 149q-13 -11 -33.5 -17.5t-47.5 -6.5q-36 0 -59.5 9t-30.5 31l-46 142.5t-28 95.5h-5q-3 -59 -4.5 -107.5t-2 -94.5t-2 -93t-4.5 -104q-13 -5 -34 -8.5t-42 -3.5q-44 0 -68.5 14t-24.5 51l29 510q8 13 35 28t76 15q53 0 83 -16.5t44 -53.5q9 -24 19.5 -55l21 -64
l20.5 -65.5l18 -58.5h5l48 162.5t44 131.5q15 8 38.5 13.5t52.5 5.5q49 0 80 -14.5t36 -41.5q4 -20 8.5 -61.5t9.5 -93.5t10 -110l9.5 -111.5t7.5 -98t4 -68.5q-17 -10 -35.5 -14.5t-47.5 -4.5q-38 0 -64 13t-28 51q-6 109 -7.5 196t-4.5 146h-5q-10 -39 -29 -98t-46 -151z
M313 -141q0 35 25 60.5t64 25.5t64 -25.5t25 -60.5t-25 -60.5t-64 -25.5t-64 25.5t-25 60.5z" />
    <glyph glyph-name="uni1E43" unicode="&#x1e43;" horiz-adv-x="846" 
d="M285 501q41 0 80.5 -11.5t68.5 -34.5q30 20 67.5 33t90.5 13q38 0 74.5 -10t65 -31.5t45.5 -57t17 -86.5v-315q-10 -3 -31.5 -6t-44.5 -3q-22 0 -39.5 3t-29.5 12t-18.5 24.5t-6.5 40.5v239q0 30 -17 43.5t-46 13.5q-14 0 -30 -6.5t-24 -13.5q1 -4 1 -7.5v-6.5v-333
q-11 -3 -32.5 -6t-43.5 -3t-39.5 3t-29.5 12t-18.5 24.5t-6.5 40.5v239q0 30 -18.5 43.5t-44.5 13.5q-18 0 -31 -5.5t-22 -10.5v-351q-10 -3 -31.5 -6t-44.5 -3q-22 0 -39.5 3t-29.5 12t-18.5 24.5t-6.5 40.5v302q0 27 11.5 43t31.5 30q34 24 84.5 39t105.5 15zM341 -141
q0 35 25 60.5t64 25.5t64 -25.5t25 -60.5t-25 -60.5t-64 -25.5t-64 25.5t-25 60.5z" />
    <glyph glyph-name="uni1E44" unicode="&#x1e44;" horiz-adv-x="665" 
d="M607 21q-14 -14 -40.5 -21.5t-63.5 -7.5t-70 11t-54 53l-99 202q-15 31 -27 58.5t-26 63.5l-6 -1q4 -54 4.5 -110t0.5 -110v-155q-11 -3 -33.5 -6t-44.5 -3t-39 3t-28 12t-17 24.5t-6 40.5v500q14 20 43 30t62 10q37 0 70.5 -11.5t53.5 -52.5l100 -202q15 -31 27 -58.5
t26 -63.5l5 1q-4 54 -5 108t-1 108v162q11 3 33.5 6t44.5 3q44 0 67 -15.5t23 -64.5v-514zM242 757q0 37 24.5 62t64.5 25q42 0 66.5 -25t24.5 -62t-24.5 -62t-66.5 -25q-40 0 -64.5 25t-24.5 62z" />
    <glyph glyph-name="uni1E45" unicode="&#x1e45;" horiz-adv-x="583" 
d="M360 308q0 31 -17.5 45.5t-47.5 14.5q-20 0 -39.5 -5t-33.5 -15v-347q-10 -3 -31.5 -6t-44.5 -3q-22 0 -39.5 3t-29.5 12t-18.5 24.5t-6.5 40.5v300q0 27 11.5 44t31.5 31q34 24 85.5 39t114.5 15q113 0 174 -49.5t61 -137.5v-313q-10 -3 -31.5 -6t-44.5 -3
q-22 0 -39.5 3t-29.5 12t-18.5 24.5t-6.5 40.5v236zM197 626q0 37 24.5 62t64.5 25q42 0 66.5 -25t24.5 -62t-24.5 -62t-66.5 -25q-40 0 -64.5 25t-24.5 62z" />
    <glyph glyph-name="uni1E46" unicode="&#x1e46;" horiz-adv-x="665" 
d="M607 21q-14 -14 -40.5 -21.5t-63.5 -7.5t-70 11t-54 53l-99 202q-15 31 -27 58.5t-26 63.5l-6 -1q4 -54 4.5 -110t0.5 -110v-155q-11 -3 -33.5 -6t-44.5 -3t-39 3t-28 12t-17 24.5t-6 40.5v500q14 20 43 30t62 10q37 0 70.5 -11.5t53.5 -52.5l100 -202q15 -31 27 -58.5
t26 -63.5l5 1q-4 54 -5 108t-1 108v162q11 3 33.5 6t44.5 3q44 0 67 -15.5t23 -64.5v-514zM248 -141q0 35 25 60.5t64 25.5t64 -25.5t25 -60.5t-25 -60.5t-64 -25.5t-64 25.5t-25 60.5z" />
    <glyph glyph-name="uni1E47" unicode="&#x1e47;" horiz-adv-x="583" 
d="M360 308q0 31 -17.5 45.5t-47.5 14.5q-20 0 -39.5 -5t-33.5 -15v-347q-10 -3 -31.5 -6t-44.5 -3q-22 0 -39.5 3t-29.5 12t-18.5 24.5t-6.5 40.5v300q0 27 11.5 44t31.5 31q34 24 85.5 39t114.5 15q113 0 174 -49.5t61 -137.5v-313q-10 -3 -31.5 -6t-44.5 -3
q-22 0 -39.5 3t-29.5 12t-18.5 24.5t-6.5 40.5v236zM209 -141q0 35 25 60.5t64 25.5t64 -25.5t25 -60.5t-25 -60.5t-64 -25.5t-64 25.5t-25 60.5z" />
    <glyph glyph-name="uni1E48" unicode="&#x1e48;" horiz-adv-x="665" 
d="M607 21q-14 -14 -40.5 -21.5t-63.5 -7.5t-70 11t-54 53l-99 202q-15 31 -27 58.5t-26 63.5l-6 -1q4 -54 4.5 -110t0.5 -110v-155q-11 -3 -33.5 -6t-44.5 -3t-39 3t-28 12t-17 24.5t-6 40.5v500q14 20 43 30t62 10q37 0 70.5 -11.5t53.5 -52.5l100 -202q15 -31 27 -58.5
t26 -63.5l5 1q-4 54 -5 108t-1 108v162q11 3 33.5 6t44.5 3q44 0 67 -15.5t23 -64.5v-514zM183 -214q-5 11 -10.5 27.5t-5.5 34.5q0 37 15 51.5t40 14.5h275q8 -11 12 -27.5t4 -34.5q0 -37 -14.5 -51.5t-39.5 -14.5h-276z" />
    <glyph glyph-name="uni1E49" unicode="&#x1e49;" horiz-adv-x="583" 
d="M360 308q0 31 -17.5 45.5t-47.5 14.5q-20 0 -39.5 -5t-33.5 -15v-347q-10 -3 -31.5 -6t-44.5 -3q-22 0 -39.5 3t-29.5 12t-18.5 24.5t-6.5 40.5v300q0 27 11.5 44t31.5 31q34 24 85.5 39t114.5 15q113 0 174 -49.5t61 -137.5v-313q-10 -3 -31.5 -6t-44.5 -3
q-22 0 -39.5 3t-29.5 12t-18.5 24.5t-6.5 40.5v236zM145 -214q-5 11 -10.5 27.5t-5.5 34.5q0 37 15 51.5t40 14.5h275q8 -11 12 -27.5t4 -34.5q0 -37 -14.5 -51.5t-39.5 -14.5h-276z" />
    <glyph glyph-name="uni1E5A" unicode="&#x1e5a;" horiz-adv-x="602" 
d="M232 196v-192q-11 -3 -34.5 -6t-46.5 -3t-40.5 3.5t-29 12.5t-17.5 25t-6 42v471q0 21 11.5 32.5t31.5 18.5q34 12 79 17.5t96 5.5q138 0 208 -58t70 -157q0 -62 -32 -106t-76 -68q36 -49 71 -92t55 -78q-10 -35 -36.5 -53.5t-59.5 -18.5q-22 0 -38 5t-28 14t-22 22
t-19 28l-84 135h-53zM295 329q38 0 60 19.5t22 57.5t-24.5 57.5t-77.5 19.5q-15 0 -24 -1t-20 -3v-150h64zM211 -141q0 35 25 60.5t64 25.5t64 -25.5t25 -60.5t-25 -60.5t-64 -25.5t-64 25.5t-25 60.5z" />
    <glyph glyph-name="uni1E5B" unicode="&#x1e5b;" horiz-adv-x="411" 
d="M222 1q-10 -3 -31.5 -6t-44.5 -3q-22 0 -39.5 3t-29.5 12t-18.5 24.5t-6.5 40.5v300q0 23 8.5 39.5t24.5 29.5t39.5 23.5t50.5 18.5t56 12.5t58 4.5q48 0 76 -18.5t28 -60.5q0 -14 -4 -27.5t-10 -24.5q-21 0 -43 -2t-43 -6t-39.5 -8.5t-31.5 -10.5v-341zM134 -141
q0 35 25 60.5t64 25.5t64 -25.5t25 -60.5t-25 -60.5t-64 -25.5t-64 25.5t-25 60.5z" />
    <glyph glyph-name="uni1E5C" unicode="&#x1e5c;" horiz-adv-x="602" 
d="M232 196v-192q-11 -3 -34.5 -6t-46.5 -3t-40.5 3.5t-29 12.5t-17.5 25t-6 42v471q0 21 11.5 32.5t31.5 18.5q34 12 79 17.5t96 5.5q138 0 208 -58t70 -157q0 -62 -32 -106t-76 -68q36 -49 71 -92t55 -78q-10 -35 -36.5 -53.5t-59.5 -18.5q-22 0 -38 5t-28 14t-22 22
t-19 28l-84 135h-53zM295 329q38 0 60 19.5t22 57.5t-24.5 57.5t-77.5 19.5q-15 0 -24 -1t-20 -3v-150h64zM132 695q-5 11 -10.5 27.5t-5.5 34.5q0 37 15 51.5t40 14.5h265q8 -11 12 -27.5t4 -34.5q0 -37 -14.5 -51.5t-39.5 -14.5h-266zM211 -141q0 35 25 60.5t64 25.5
t64 -25.5t25 -60.5t-25 -60.5t-64 -25.5t-64 25.5t-25 60.5z" />
    <glyph glyph-name="uni1E5D" unicode="&#x1e5d;" horiz-adv-x="419" 
d="M230 1q-10 -3 -31.5 -6t-44.5 -3q-22 0 -39.5 3t-29.5 12t-18.5 24.5t-6.5 40.5v300q0 23 8.5 39.5t24.5 29.5t39.5 23.5t50.5 18.5t56 12.5t58 4.5q48 0 76 -18.5t28 -60.5q0 -14 -4 -27.5t-10 -24.5q-21 0 -43 -2t-43 -6t-39.5 -8.5t-31.5 -10.5v-341zM73 564
q-5 11 -10.5 27.5t-5.5 34.5q0 37 15 51.5t40 14.5h265q8 -11 12 -27.5t4 -34.5q0 -37 -14.5 -51.5t-39.5 -14.5h-266zM142 -141q0 35 25 60.5t64 25.5t64 -25.5t25 -60.5t-25 -60.5t-64 -25.5t-64 25.5t-25 60.5z" />
    <glyph glyph-name="uni1E5E" unicode="&#x1e5e;" horiz-adv-x="602" 
d="M232 196v-192q-11 -3 -34.5 -6t-46.5 -3t-40.5 3.5t-29 12.5t-17.5 25t-6 42v471q0 21 11.5 32.5t31.5 18.5q34 12 79 17.5t96 5.5q138 0 208 -58t70 -157q0 -62 -32 -106t-76 -68q36 -49 71 -92t55 -78q-10 -35 -36.5 -53.5t-59.5 -18.5q-22 0 -38 5t-28 14t-22 22
t-19 28l-84 135h-53zM295 329q38 0 60 19.5t22 57.5t-24.5 57.5t-77.5 19.5q-15 0 -24 -1t-20 -3v-150h64zM155 -214q-5 11 -10.5 27.5t-5.5 34.5q0 37 15 51.5t40 14.5h275q8 -11 12 -27.5t4 -34.5q0 -37 -14.5 -51.5t-39.5 -14.5h-276z" />
    <glyph glyph-name="uni1E5F" unicode="&#x1e5f;" horiz-adv-x="424" 
d="M235 1q-10 -3 -31.5 -6t-44.5 -3q-22 0 -39.5 3t-29.5 12t-18.5 24.5t-6.5 40.5v300q0 23 8.5 39.5t24.5 29.5t39.5 23.5t50.5 18.5t56 12.5t58 4.5q48 0 76 -18.5t28 -60.5q0 -14 -4 -27.5t-10 -24.5q-21 0 -43 -2t-43 -6t-39.5 -8.5t-31.5 -10.5v-341zM68 -214
q-5 11 -10.5 27.5t-5.5 34.5q0 37 15 51.5t40 14.5h275q8 -11 12 -27.5t4 -34.5q0 -37 -14.5 -51.5t-39.5 -14.5h-276z" />
    <glyph glyph-name="uni1E60" unicode="&#x1e60;" horiz-adv-x="543" 
d="M241 241q-44 15 -80 30.5t-62 37.5t-40.5 52.5t-14.5 74.5q0 85 65.5 136t183.5 51q43 0 80 -6t63.5 -18.5t41.5 -32t15 -45.5t-12 -44.5t-29 -31.5q-22 14 -59 24.5t-81 10.5q-45 0 -66 -12.5t-21 -31.5q0 -15 13 -24.5t39 -17.5l53 -17q94 -30 144.5 -76.5t50.5 -126.5
q0 -85 -67 -137.5t-197 -52.5q-46 0 -85.5 7.5t-69 22t-46 36t-16.5 49.5q0 29 17 49.5t37 31.5q28 -22 68.5 -38t88.5 -16q49 0 69 15t20 35t-16 30.5t-45 20.5zM201 757q0 37 24.5 62t64.5 25q42 0 66.5 -25t24.5 -62t-24.5 -62t-66.5 -25q-40 0 -64.5 25t-24.5 62z" />
    <glyph glyph-name="uni1E61" unicode="&#x1e61;" horiz-adv-x="492" 
d="M462 145q0 -76 -57 -119t-168 -43q-42 0 -78 6t-61.5 18.5t-40 31.5t-14.5 45q0 24 10 40.5t24 27.5q29 -16 66.5 -28.5t86.5 -12.5q31 0 47.5 9t16.5 24q0 14 -12 22t-40 13l-30 6q-87 17 -129.5 53.5t-42.5 104.5q0 37 16 67t45 50t69.5 31t89.5 11q37 0 69.5 -5.5
t56.5 -16.5t38 -28.5t14 -41.5q0 -23 -8.5 -39.5t-21.5 -27.5q-8 5 -24 10.5t-35 10t-38.5 7.5t-35.5 3q-33 0 -51 -7.5t-18 -23.5q0 -11 10 -18t38 -13l31 -7q96 -22 136.5 -60.5t40.5 -99.5zM154 626q0 37 24.5 62t64.5 25q42 0 66.5 -25t24.5 -62t-24.5 -62t-66.5 -25
q-40 0 -64.5 25t-24.5 62z" />
    <glyph glyph-name="uni1E62" unicode="&#x1e62;" horiz-adv-x="543" 
d="M241 241q-44 15 -80 30.5t-62 37.5t-40.5 52.5t-14.5 74.5q0 85 65.5 136t183.5 51q43 0 80 -6t63.5 -18.5t41.5 -32t15 -45.5t-12 -44.5t-29 -31.5q-22 14 -59 24.5t-81 10.5q-45 0 -66 -12.5t-21 -31.5q0 -15 13 -24.5t39 -17.5l53 -17q94 -30 144.5 -76.5t50.5 -126.5
q0 -85 -67 -137.5t-197 -52.5q-46 0 -85.5 7.5t-69 22t-46 36t-16.5 49.5q0 29 17 49.5t37 31.5q28 -22 68.5 -38t88.5 -16q49 0 69 15t20 35t-16 30.5t-45 20.5zM201 -141q0 35 25 60.5t64 25.5t64 -25.5t25 -60.5t-25 -60.5t-64 -25.5t-64 25.5t-25 60.5z" />
    <glyph glyph-name="uni1E63" unicode="&#x1e63;" horiz-adv-x="492" 
d="M462 145q0 -76 -57 -119t-168 -43q-42 0 -78 6t-61.5 18.5t-40 31.5t-14.5 45q0 24 10 40.5t24 27.5q29 -16 66.5 -28.5t86.5 -12.5q31 0 47.5 9t16.5 24q0 14 -12 22t-40 13l-30 6q-87 17 -129.5 53.5t-42.5 104.5q0 37 16 67t45 50t69.5 31t89.5 11q37 0 69.5 -5.5
t56.5 -16.5t38 -28.5t14 -41.5q0 -23 -8.5 -39.5t-21.5 -27.5q-8 5 -24 10.5t-35 10t-38.5 7.5t-35.5 3q-33 0 -51 -7.5t-18 -23.5q0 -11 10 -18t38 -13l31 -7q96 -22 136.5 -60.5t40.5 -99.5zM169 -141q0 35 25 60.5t64 25.5t64 -25.5t25 -60.5t-25 -60.5t-64 -25.5
t-64 25.5t-25 60.5z" />
    <glyph glyph-name="uni1E6C" unicode="&#x1e6c;" horiz-adv-x="556" 
d="M37 466q-7 11 -13 30t-6 40q0 39 17.5 56t45.5 17h436q7 -11 13 -30t6 -40q0 -39 -17.5 -56t-45.5 -17h-111v-462q-11 -3 -34.5 -6t-46.5 -3t-40.5 3.5t-29.5 12.5t-18 25t-6 42v388h-150zM194 -141q0 35 25 60.5t64 25.5t64 -25.5t25 -60.5t-25 -60.5t-64 -25.5
t-64 25.5t-25 60.5z" />
    <glyph glyph-name="uni1E6D" unicode="&#x1e6d;" horiz-adv-x="400" 
d="M222 167q0 -26 16.5 -37t46.5 -11q15 0 31 2.5t28 6.5q9 -11 15.5 -24.5t6.5 -32.5q0 -38 -28.5 -62t-100.5 -24q-88 0 -135.5 40t-47.5 130v428q11 3 31.5 6.5t43.5 3.5q44 0 68.5 -15.5t24.5 -65.5v-64h131q6 -11 11.5 -27.5t5.5 -36.5q0 -35 -15.5 -50.5t-41.5 -15.5
h-91v-151zM118 -141q0 35 25 60.5t64 25.5t64 -25.5t25 -60.5t-25 -60.5t-64 -25.5t-64 25.5t-25 60.5z" />
    <glyph glyph-name="uni1E6E" unicode="&#x1e6e;" horiz-adv-x="556" 
d="M37 466q-7 11 -13 30t-6 40q0 39 17.5 56t45.5 17h436q7 -11 13 -30t6 -40q0 -39 -17.5 -56t-45.5 -17h-111v-462q-11 -3 -34.5 -6t-46.5 -3t-40.5 3.5t-29.5 12.5t-18 25t-6 42v388h-150zM122 -214q-5 11 -10.5 27.5t-5.5 34.5q0 37 15 51.5t40 14.5h275q8 -11 12 -27.5
t4 -34.5q0 -37 -14.5 -51.5t-39.5 -14.5h-276z" />
    <glyph glyph-name="uni1E6F" unicode="&#x1e6f;" horiz-adv-x="400" 
d="M222 167q0 -26 16.5 -37t46.5 -11q15 0 31 2.5t28 6.5q9 -11 15.5 -24.5t6.5 -32.5q0 -38 -28.5 -62t-100.5 -24q-88 0 -135.5 40t-47.5 130v428q11 3 31.5 6.5t43.5 3.5q44 0 68.5 -15.5t24.5 -65.5v-64h131q6 -11 11.5 -27.5t5.5 -36.5q0 -35 -15.5 -50.5t-41.5 -15.5
h-91v-151zM60 -214q-5 11 -10.5 27.5t-5.5 34.5q0 37 15 51.5t40 14.5h275q8 -11 12 -27.5t4 -34.5q0 -37 -14.5 -51.5t-39.5 -14.5h-276z" />
    <glyph glyph-name="Wgrave" unicode="&#x1e80;" horiz-adv-x="885" 
d="M349 458q11 5 34.5 11.5t47.5 6.5q42 0 70 -12.5t34 -36.5l20.5 -76.5l18.5 -68l17.5 -64.5t16.5 -67h5q9 61 16 116.5t13 109l12 106l12 106.5q37 21 79 21q37 0 64 -16t27 -54q0 -22 -4.5 -62.5t-12 -90.5t-17.5 -105t-21 -105t-22.5 -90.5t-21.5 -62.5
q-15 -14 -49 -23t-70 -9q-47 0 -79.5 12.5t-39.5 35.5q-13 40 -28 95l-32 121q-14 -65 -29 -127t-27 -105q-15 -14 -45 -23t-66 -9q-45 0 -81.5 12.5t-47.5 35.5q-9 18 -19.5 53.5t-21.5 81t-22.5 98.5t-21 106t-17.5 103.5t-12 92.5q14 13 39 24t54 11q38 0 62.5 -16.5
t30.5 -55.5l26.5 -170l17 -111.5t9.5 -67.5t6 -38h5l17 74l16.5 68.5l17.5 74t19 90.5zM254 726q-5 11 -6.5 22t-1.5 20q0 32 19.5 52t53.5 20q18 0 34 -6.5t36 -17.5l136 -70q1 -4 1 -8v-8q0 -35 -17.5 -56t-43.5 -21q-25 0 -57 13z" />
    <glyph glyph-name="wgrave" unicode="&#x1e81;" horiz-adv-x="800" 
d="M328 15q-14 -12 -38 -19.5t-57 -7.5q-41 0 -71 11.5t-40 32.5q-11 24 -25.5 76t-28.5 114t-26.5 126t-19.5 113q14 14 37.5 24.5t51.5 10.5q35 0 57.5 -15.5t27.5 -53.5l17 -125.5l11.5 -81l7 -48t4.5 -26.5h4q3 16 10.5 46.5l17.5 69.5l21 84.5l22 90.5q20 11 39.5 17
t48.5 6q35 0 60 -11t32 -34l23 -85.5l20 -77l16 -63t10 -43.5h5q11 77 21.5 160t19.5 169q18 11 38 16t40 5q35 0 58 -15t23 -52q0 -16 -5 -48t-13 -72t-18.5 -84l-21 -85t-20 -74t-16.5 -51q-14 -12 -43 -19.5t-62 -7.5q-84 0 -99 42l-15 45.5l-19 60.5t-19 68.5t-15 68.5
q-7 -35 -17 -72.5t-20.5 -73l-19.5 -65t-14 -47.5zM221 643q-2 10 -2 20q0 38 19 61t52 23q25 0 42 -10t38 -28l113 -95q-2 -38 -21.5 -61t-44.5 -23q-16 0 -32 6.5t-32 17.5z" />
    <glyph glyph-name="Wacute" unicode="&#x1e82;" horiz-adv-x="885" 
d="M349 458q11 5 34.5 11.5t47.5 6.5q42 0 70 -12.5t34 -36.5l20.5 -76.5l18.5 -68l17.5 -64.5t16.5 -67h5q9 61 16 116.5t13 109l12 106l12 106.5q37 21 79 21q37 0 64 -16t27 -54q0 -22 -4.5 -62.5t-12 -90.5t-17.5 -105t-21 -105t-22.5 -90.5t-21.5 -62.5
q-15 -14 -49 -23t-70 -9q-47 0 -79.5 12.5t-39.5 35.5q-13 40 -28 95l-32 121q-14 -65 -29 -127t-27 -105q-15 -14 -45 -23t-66 -9q-45 0 -81.5 12.5t-47.5 35.5q-9 18 -19.5 53.5t-21.5 81t-22.5 98.5t-21 106t-17.5 103.5t-12 92.5q14 13 39 24t54 11q38 0 62.5 -16.5
t30.5 -55.5l26.5 -170l17 -111.5t9.5 -67.5t6 -38h5l17 74l16.5 68.5l17.5 74t19 90.5zM512 851q49 -4 70 -23.5t21 -45.5q0 -29 -16.5 -46t-51.5 -31l-137 -54q-29 6 -46.5 24t-17.5 40q0 14 7.5 27t23.5 21z" />
    <glyph glyph-name="wacute" unicode="&#x1e83;" horiz-adv-x="800" 
d="M328 15q-14 -12 -38 -19.5t-57 -7.5q-41 0 -71 11.5t-40 32.5q-11 24 -25.5 76t-28.5 114t-26.5 126t-19.5 113q14 14 37.5 24.5t51.5 10.5q35 0 57.5 -15.5t27.5 -53.5l17 -125.5l11.5 -81l7 -48t4.5 -26.5h4q3 16 10.5 46.5l17.5 69.5l21 84.5l22 90.5q20 11 39.5 17
t48.5 6q35 0 60 -11t32 -34l23 -85.5l20 -77l16 -63t10 -43.5h5q11 77 21.5 160t19.5 169q18 11 38 16t40 5q35 0 58 -15t23 -52q0 -16 -5 -48t-13 -72t-18.5 -84l-21 -85t-20 -74t-16.5 -51q-14 -12 -43 -19.5t-62 -7.5q-84 0 -99 42l-15 45.5l-19 60.5t-19 68.5t-15 68.5
q-7 -35 -17 -72.5t-20.5 -73l-19.5 -65t-14 -47.5zM481 744q52 0 75.5 -20t23.5 -48q0 -26 -14 -43.5t-46 -34.5l-129 -68q-30 3 -51 24t-21 45q0 12 6 24t20 22z" />
    <glyph glyph-name="Wdieresis" unicode="&#x1e84;" horiz-adv-x="885" 
d="M349 458q11 5 34.5 11.5t47.5 6.5q42 0 70 -12.5t34 -36.5l20.5 -76.5l18.5 -68l17.5 -64.5t16.5 -67h5q9 61 16 116.5t13 109l12 106l12 106.5q37 21 79 21q37 0 64 -16t27 -54q0 -22 -4.5 -62.5t-12 -90.5t-17.5 -105t-21 -105t-22.5 -90.5t-21.5 -62.5
q-15 -14 -49 -23t-70 -9q-47 0 -79.5 12.5t-39.5 35.5q-13 40 -28 95l-32 121q-14 -65 -29 -127t-27 -105q-15 -14 -45 -23t-66 -9q-45 0 -81.5 12.5t-47.5 35.5q-9 18 -19.5 53.5t-21.5 81t-22.5 98.5t-21 106t-17.5 103.5t-12 92.5q14 13 39 24t54 11q38 0 62.5 -16.5
t30.5 -55.5l26.5 -170l17 -111.5t9.5 -67.5t6 -38h5l17 74l16.5 68.5l17.5 74t19 90.5zM232 755q0 35 25 60.5t62 25.5q42 0 66 -25.5t24 -60.5t-24 -60.5t-66 -25.5q-18 0 -34 7t-28 18.5t-18.5 27t-6.5 33.5zM456 755q0 35 23.5 60.5t65.5 25.5q19 0 35 -7t28 -19
t18.5 -27.5t6.5 -32.5q0 -35 -25 -60.5t-63 -25.5q-42 0 -65.5 25.5t-23.5 60.5z" />
    <glyph glyph-name="wdieresis" unicode="&#x1e85;" horiz-adv-x="800" 
d="M328 15q-14 -12 -38 -19.5t-57 -7.5q-41 0 -71 11.5t-40 32.5q-11 24 -25.5 76t-28.5 114t-26.5 126t-19.5 113q14 14 37.5 24.5t51.5 10.5q35 0 57.5 -15.5t27.5 -53.5l17 -125.5l11.5 -81l7 -48t4.5 -26.5h4q3 16 10.5 46.5l17.5 69.5l21 84.5l22 90.5q20 11 39.5 17
t48.5 6q35 0 60 -11t32 -34l23 -85.5l20 -77l16 -63t10 -43.5h5q11 77 21.5 160t19.5 169q18 11 38 16t40 5q35 0 58 -15t23 -52q0 -16 -5 -48t-13 -72t-18.5 -84l-21 -85t-20 -74t-16.5 -51q-14 -12 -43 -19.5t-62 -7.5q-84 0 -99 42l-15 45.5l-19 60.5t-19 68.5t-15 68.5
q-7 -35 -17 -72.5t-20.5 -73l-19.5 -65t-14 -47.5zM194 627q0 35 25 60.5t62 25.5q42 0 66 -25.5t24 -60.5t-24 -60.5t-66 -25.5q-18 0 -34 7t-28 18.5t-18.5 27t-6.5 33.5zM418 627q0 35 23.5 60.5t65.5 25.5q19 0 35 -7t28 -19t18.5 -27.5t6.5 -32.5q0 -35 -25 -60.5
t-63 -25.5q-42 0 -65.5 25.5t-23.5 60.5z" />
    <glyph glyph-name="uni1E8E" unicode="&#x1e8e;" horiz-adv-x="574" 
d="M383 4q-11 -3 -34 -6t-45 -3q-46 0 -69 15.5t-23 65.5v135l-54 82l-57 92t-52 92.5t-39 83.5q13 18 35.5 33t55.5 15q39 0 63.5 -16t46.5 -60l83 -167h6q14 31 24.5 56.5l20.5 51l21 53l25 63.5q18 9 40 14t42 5q35 0 59.5 -18.5t24.5 -55.5q0 -12 -5 -29t-23 -51.5
t-52.5 -93.5l-93.5 -154v-203zM199 757q0 37 24.5 62t64.5 25q42 0 66.5 -25t24.5 -62t-24.5 -62t-66.5 -25q-40 0 -64.5 25t-24.5 62z" />
    <glyph glyph-name="uni1E8F" unicode="&#x1e8f;" horiz-adv-x="550" 
d="M128 124l-23.5 56t-26 71t-28 91.5t-30.5 118.5q14 14 37.5 24.5t51.5 10.5q35 0 58 -14.5t34 -54.5l79 -275h4q12 34 23.5 74t22.5 82.5t20.5 85t16.5 83.5q36 19 79 19q35 0 58 -15t23 -52q0 -27 -7 -62.5t-18.5 -75.5t-27 -82.5t-32.5 -83.5t-35 -77.5t-35 -65.5
q-28 -49 -52 -80t-46 -48.5t-44 -24t-46 -6.5q-42 0 -68 25t-31 65q32 25 64 55.5t58 62.5q-17 5 -36.5 23.5t-42.5 69.5zM181 626q0 37 24.5 62t64.5 25q42 0 66.5 -25t24.5 -62t-24.5 -62t-66.5 -25q-40 0 -64.5 25t-24.5 62z" />
    <glyph glyph-name="uni1E92" unicode="&#x1e92;" horiz-adv-x="560" 
d="M308 466h-246q-7 11 -13 30t-6 40q0 39 17.5 56t45.5 17h373q44 -36 44 -96q0 -25 -11.5 -49.5t-29.5 -46.5l-227 -274h256q7 -11 13 -30t6 -40q0 -39 -17.5 -56t-45.5 -17h-394q-17 14 -28 38t-11 55q0 25 13 51t31 48zM195 757q0 37 24.5 62t64.5 25q42 0 66.5 -25
t24.5 -62t-24.5 -62t-66.5 -25q-40 0 -64.5 25t-24.5 62z" />
    <glyph glyph-name="uni1E93" unicode="&#x1e93;" horiz-adv-x="481" 
d="M69 0q-16 14 -25.5 33t-9.5 43q0 20 9.5 39.5t23.5 36.5l172 202h-184q-6 11 -11.5 28t-5.5 37q0 35 15.5 50.5t41.5 15.5h315q16 -14 25.5 -33t9.5 -43q0 -20 -9.5 -39.5t-23.5 -36.5l-168 -202h196q6 -11 11.5 -28t5.5 -37q0 -35 -15.5 -50.5t-41.5 -15.5h-331z
M149 628q0 35 25 60.5t64 25.5t64 -25.5t25 -60.5t-25 -60.5t-64 -25.5t-64 25.5t-25 60.5z" />
    <glyph glyph-name="uni1E97" unicode="&#x1e97;" horiz-adv-x="400" 
d="M222 167q0 -26 16.5 -37t46.5 -11q15 0 31 2.5t28 6.5q9 -11 15.5 -24.5t6.5 -32.5q0 -38 -28.5 -62t-100.5 -24q-88 0 -135.5 40t-47.5 130v428q11 3 31.5 6.5t43.5 3.5q44 0 68.5 -15.5t24.5 -65.5v-64h131q6 -11 11.5 -27.5t5.5 -36.5q0 -35 -15.5 -50.5t-41.5 -15.5
h-91v-151zM-8 727q0 35 25 60.5t62 25.5q42 0 66 -25.5t24 -60.5t-24 -60.5t-66 -25.5q-18 0 -34 7t-28 18.5t-18.5 27t-6.5 33.5zM216 727q0 35 23.5 60.5t65.5 25.5q19 0 35 -7t28 -19t18.5 -27.5t6.5 -32.5q0 -35 -25 -60.5t-63 -25.5q-42 0 -65.5 25.5t-23.5 60.5z" />
    <glyph glyph-name="uni1E9E" unicode="&#x1e9e;" horiz-adv-x="614" 
d="M54 436q0 54 19 94.5t53 67.5t79.5 40t98.5 13q55 0 101 -14.5t79.5 -42t52.5 -67t19 -89.5q0 -25 -7.5 -41.5t-27.5 -24.5l-44 -18q-28 -11 -28 -34q0 -11 7.5 -18.5t19.5 -12.5q27 -12 49 -26t37 -32t23.5 -40.5t8.5 -51.5q0 -40 -15.5 -69.5t-42 -48.5t-60.5 -28.5
t-70 -9.5q-60 0 -96.5 19t-36.5 57q0 23 9.5 39t23.5 26q14 -8 31 -13t37 -5t33 7.5t13 21.5t-10 23t-30 20q-52 28 -78.5 60t-26.5 84q0 44 30 74t81 47q-3 33 -24.5 51.5t-55.5 18.5q-36 0 -59 -22t-23 -65v-425q-10 -3 -31.5 -6t-44.5 -3q-22 0 -39.5 3t-29.5 12
t-18.5 24.5t-6.5 40.5v364z" />
    <glyph glyph-name="uni1EA0" unicode="&#x1ea0;" horiz-adv-x="627" 
d="M194 588q17 10 51.5 19t69.5 9q50 0 88.5 -14.5t49.5 -45.5q18 -52 39 -121l42 -142.5l41 -145l35 -126.5q-12 -14 -36 -22.5t-57 -8.5q-24 0 -40.5 4t-27 12t-17 21t-11.5 30l-18 69h-181l-16 -62l-16 -62q-14 -5 -29.5 -8.5t-37.5 -3.5q-51 0 -75.5 17.5t-24.5 48.5
q0 14 4 28l9 33q7 27 19.5 67l27.5 86.5l32 95.5l32 92.5l27.5 77.5zM314 459l-31.5 -93.5t-31.5 -104.5h124l-28.5 105.5l-26.5 92.5h-6zM226 759q0 35 25 60.5t64 25.5t64 -25.5t25 -60.5t-25 -60.5t-64 -25.5t-64 25.5t-25 60.5z" />
    </font>
</defs>
</svg>
